<?xml version="1.0" standalone="no"?>
<!DOCTYPE svg PUBLIC "-//W3C//DTD SVG 1.1//EN" "http://www.w3.org/Graphics/SVG/1.1/DTD/svg11.dtd" >
<svg>
<metadata>
Created by FontForge 20110222 at Mon Jan  6 01:25:21 2014
 By deploy user
Equestria (c) (Neale Davidson). 2011. All Rights Reserved
</metadata>
<defs>
<font id="Equestria_Cyrillic" horiz-adv-x="800" >
  <font-face 
    font-family="Equestria_Cyrillic"
    font-weight="400"
    font-stretch="normal"
    units-per-em="2048"
    panose-1="2 0 5 0 0 0 0 0 0 0"
    ascent="1638"
    descent="-410"
    x-height="949"
    cap-height="1363"
    bbox="-291 -448 2037 2091"
    underline-thickness="150"
    underline-position="-142"
    unicode-range="U+0020-F002"
  />
<missing-glyph horiz-adv-x="1650" 
d="M0 200v1100q0 200 200 200h1100q200 0 200 -200v-1100q0 -200 -200 -200h-1100q-200 0 -200 200zM1475 201v1099q0 175 -175 175h-1100q-174 0 -175 -175v-1100q1 -175 175 -175h1101q174 0 174 176z" />
    <glyph glyph-name=".notdef" horiz-adv-x="1650" 
d="M0 200v1100q0 200 200 200h1100q200 0 200 -200v-1100q0 -200 -200 -200h-1100q-200 0 -200 200zM1475 201v1099q0 175 -175 175h-1100q-174 0 -175 -175v-1100q1 -175 175 -175h1101q174 0 174 176z" />
    <glyph glyph-name="NULL" horiz-adv-x="0" 
 />
    <glyph glyph-name="nonmarkingreturn" horiz-adv-x="508" 
 />
    <glyph glyph-name="space" unicode=" " horiz-adv-x="900" 
 />
    <glyph glyph-name="space" unicode="&#xa0;" horiz-adv-x="900" 
 />
    <glyph glyph-name="exclam" unicode="!" horiz-adv-x="400" 
d="M-47 1158q25 14 89 14t128 6q27 4 51 4q76 0 106 -30q1 -3 1 -9q0 -15 -17 -50.5t-34 -69.5t-17 -46v-558q-14 -13 -27.5 -15.5t-36.5 -2.5q-22 0 -45 -7q-11 0 -31 -2t-29 -2q-22 0 -39 9q-7 15 -8.5 89t-5.5 171t-17 156zM104 257q15 5 32 5q27 0 52.5 -12t46.5 -32
q1 -2 7 -10t9 -12.5t6.5 -11t5 -13.5t1.5 -14q0 -6 0.5 -18t0.5 -17q0 -21 -2 -32q-9 -17 -18.5 -31t-22 -28t-27.5 -22q-12 -7 -32 -8q-5 0 -16.5 -0.5t-16.5 -0.5q-35 2 -48 10q-30 16 -50 44.5t-20 60.5q0 49 25.5 90t66.5 52z" />
    <glyph glyph-name="quotedbl" unicode="&#x22;" 
d="M98 1238q32 16 68 16q56 0 105 -33q2 -2 10.5 -10t11 -10.5t9.5 -10.5t9.5 -12.5t6.5 -12t5 -15.5q1 -1 3 -9.5t2.5 -11.5t2.5 -10.5t2.5 -11.5t1.5 -10.5t1.5 -11t1 -10.5t0.5 -11q-2 -6 -5 -22t-7.5 -33t-12 -37.5t-21.5 -41.5t-34 -40q-17 -24 -36.5 -43t-37.5 -30
t-36 -18.5t-35 -11.5t-31.5 -6.5t-28.5 -5t-23 -7.5q22 26 36.5 44t31 40t26 38t16 32.5t6.5 28.5q0 7 -2 13q-2 0 -10 -0.5t-15 -0.5q-89 0 -114 88q-5 19 -5 38q0 47 27.5 88t70.5 61zM477 1241q30 16 68 16q26 0 53.5 -8.5t51.5 -24.5q1 -2 9.5 -10t11.5 -11t9.5 -10
t9.5 -12t6.5 -12.5t5.5 -14.5q0 -2 2 -9t2 -9t1.5 -8t2 -8.5t2 -8.5t2 -9.5t1 -8.5t0.5 -9t0.5 -8.5t0.5 -8.5q-2 -5 -5 -21.5t-7.5 -33.5t-12 -37.5t-21.5 -41.5t-33 -39q-18 -25 -37.5 -44t-37.5 -30t-35.5 -18.5t-35 -11.5t-31.5 -6t-28 -5t-23 -8q21 26 35.5 44t31 40
t26 38.5t16.5 32.5t7 28q0 8 -3 13q-2 0 -10.5 -0.5t-13.5 -0.5q-90 0 -115 88q-5 19 -5 38q0 47 28 88t71 61z" />
    <glyph glyph-name="numbersign" unicode="#" horiz-adv-x="775" 
d="M243 709q2 -21 2 -71v-54q0 -6 -4 -110l127 -1q1 0 19 -1q11 0 11 46q0 26 -4 68q-1 3 -1 35q0 33 1 95q0 5 -49 5h-31q-29 -1 -45 -1q-26 -1 -26 -10v-1zM510 539q-2 -51 -2 -64v-2q0 -9 10 -9h3q92 11 130 11q25 0 25 -4q4 -46 4 -73q0 -37 -8 -37q-69 5 -108 5t-49 -5
q-8 -4 -8 -18q0 -8 2 -18q16 -67 16 -134v-2q0 -27 -21 -34q-4 -2 -63 -3q-17 -1 -28 -1q-15 0 -16 1q-7 18 -7 39v9l-1 169l-145 -1v-39q2 -53 6 -101q4 -62 4 -85q0 -13 -1 -13q-3 -1 -8 -1q-15 0 -49 6q-14 2 -109 20q-10 2 -10 27q0 48 35 184l-103 -13q-8 0 -10 44
q-1 30 -8 87q0 7 21 7q29 0 100 -14h2q4 0 6 3q5 10 8 110q1 29 1 116q0 10 -11 10h-3q-74 -12 -103 -12q-19 0 -19 6q5 124 8 131q6 0 116 -23h2q6 0 6 13q0 9 -3 24q-9 42 -17 100v4q0 16 24 23q24 8 60 12q31 4 46 4q14 0 15 -4q8 -16 8 -37q0 -5 -1 -10l-14 -137l162 -8
v6q1 1 1 5q0 5 -1 11q-4 83 -7 113q-5 57 -5 81q0 14 2 17q4 8 15 8q15 0 43 -13q9 -4 116 -20q9 -1 9 -26q0 -48 -34 -185l81 11h1q8 0 8 -44q0 -71 -8 -71h-1q-60 3 -98 8h-2q-5 0 -5 -4q-6 -83 -10 -160z" />
    <glyph glyph-name="dollar" unicode="$" horiz-adv-x="780" 
d="M546 328q2 15 2 28q-1 125 -90 194q-20 15 -79 16q-17 0 -38 -2q-20 -2 -38 -2h-2q-38 0 -55 8q-41 18 -71.5 53t-42.5 79q-13 43 -13 85v6q0 63 30 117q20 28 35.5 50t36.5 47q33 39 50 46q77 35 78 67v2q0 81 -14 164q91 20 137 20h1q42 0 48 -16q4 -12 4 -36
q0 -37 -8 -102l-1 -2q1 -14 47 -32q26 -12 52 -12q5 0 9 1q14 6 41.5 22.5t43.5 22.5q0 -11 1.5 -34.5t1.5 -35.5q0 -128 -26 -252q-10 4 -19.5 11t-18 16t-16 17.5t-16 18.5t-16.5 17q-67 39 -131 39q-44 0 -80 -20q-24 -13 -38 -38.5t-14 -55.5v-3q20 -22 48 -40t51.5 -30
t56 -28t52.5 -27q50 -26 89 -56q33 -26 66 -70q57 -80 57 -174q0 -2 0.5 -7t0.5 -7q0 -15 -2.5 -30.5t-7.5 -35t-7 -29.5q-3 -53 -112 -170q-28 -30 -59 -38q-45 -14 -45 -163q0 -35 2 -77l-186 12q8 47 8 80q0 77 -40 90q-54 35 -101 106q-23 34 -59 100q-6 12 -10 17
q-7 17 -19 34t-24 31.5t-23.5 30t-21.5 33t-16 35.5q64 13 132 17t154 4h102q-6 -11 -15 -22.5t-18 -21.5l-18 -20t-17.5 -22t-13.5 -24q-7 -13 -7 -29q0 -20 9.5 -38.5t25.5 -28.5q22 -15 36 -15q4 0 8 2q129 60 133 107z" />
    <glyph glyph-name="percent" unicode="%" horiz-adv-x="1100" 
d="M747 391q-24 -3 -46 -12t-36.5 -20.5t-18.5 -21t-4 -19.5q0 -18 12 -36q11 -17 35 -34q3 -2 13 -6t21.5 -8t23 -6t18.5 -2h6q32 7 48 18.5t20 25.5q8 19 8 41v2q0 17 -5 31t-14 24q-8 9 -28.5 16.5t-40.5 7.5q-5 0 -12 -1zM324 814q-24 -3 -46 -12t-36 -20.5t-18 -21.5
t-4 -20q0 -18 12 -35q12 -18 35 -35q3 -2 13 -6t21 -7.5t23 -6t20 -2.5q3 0 4 1q32 6 48 18t21 27q7 18 7 40v1q0 17 -4 32t-14 24q-8 9 -28.5 16t-41.5 7h-12zM636 493q25 8 56 11q26 3 51 3h5q48 0 86 -9t66 -27q16 -11 25 -18.5t20 -18t18.5 -20t13.5 -22t9 -26.5
q9 -25 9.5 -45t0.5 -51q0 -16 -8 -45q-8 -23 -26 -51q-16 -24 -34 -37q-36 -27 -82 -39q-55 -15 -113 -15q-37 0 -74 6l-31 9q-36 11 -52 19q-24 13 -42 30t-30 36q-8 15 -14.5 31t-10.5 35q-3 7 -4 19l-39 -54l-19 -36q-33 -49 -39 -78.5t-6 -92.5l11 -14l-23 7h-7
q-1 0 -1 1h-108q-48 0 -58 3h-47q0 -2 -32 -2t-32 -2q0 1 -23 1h-23q5 36 8 56q17 9 34.5 24.5t31.5 28.5q22 20 31 31l6 6q16 20 43 51t49.5 59t40.5 53l155 212q-2 0 -4 -1q-56 -15 -113 -15q-37 0 -75 6l-30 9q-37 10 -52 19q-24 13 -41.5 29.5t-29.5 36.5
q-10 14 -16.5 30t-9 30t-4 24.5t-1.5 17.5v13q0 21 7 47q5 21 20 45q12 21 31 40q18 19 41 33.5t51.5 25t68.5 15.5q25 3 49 3h5q49 0 87 -9t66 -27q15 -12 24.5 -19t20.5 -17.5t18 -20.5t13 -22.5t10 -25.5q8 -25 9 -45q1 -15 1 -33l31 40q49 85 49 114q0 4 -2 7
q-23 63 -23 92v1q0 42 39 42h52l3 -5h100q16 -2 34 -2t38 2q15 2 29 2h9q7 0 27 -1h33q3 1 13 1h12q1 -7 1 -14q0 -32 -37 -51q-24 -11 -36 -24q-24 -26 -40 -46q-74 -103 -149 -207z" />
    <glyph glyph-name="ampersand" unicode="&#x26;" horiz-adv-x="1000" 
d="M369 609q-1 1 -4 1q-5 0 -12 -2q-17 -6 -101 -89q-62 -61 -62 -132q0 -7 1 -16l7 -70q14 -33 47 -55q57 -39 139 -42q11 -1 20 -1q78 0 80 32v2q0 13 -16 45q-9 20 -21 72l-19 62q-30 138 -54 186q-2 4 -5 7zM374 825q0 -1 1 -1q4 0 19 8q52 26 82 51q22 19 36 51
q5 10 5 25q0 29 -17 75q-9 23 -27 58q-20 39 -54 39q-44 0 -46 -96q-1 -57 -1 -105q0 -36 1 -67q1 -37 1 -38zM3 330q-5 27 -5 52q0 226 306 348q20 8 20 11q-8 10 -20 31q-23 41 -50 121q-28 83 -28 153q0 72 30 128q39 74 138 74q30 0 68 -7q148 -29 183 -199q9 -46 9 -85
q0 -111 -74 -173l-120 -99q52 -125 193 -377q12 -21 15 -21q50 63 50 122q0 12 -2 24q-13 70 -90 127q-5 4 -5 6q0 10 57 10h216q21 0 22 -2q8 -23 8 -48q0 -115 -179 -313q-1 -2 -1 -5q0 -21 70 -98q62 -67 73 -70q25 -7 25 -22q0 -7 -4 -14t-55 -32q-101 -49 -113 -49
q-41 14 -63 42q-41 54 -108 140q-2 3 -5 3q-4 0 -10 -7q-116 -128 -193 -128q-21 0 -41 10q-283 150 -317 347z" />
    <glyph glyph-name="quotesingle" unicode="'" horiz-adv-x="450" 
d="M125 1254q20 6 41 6q34 0 66.5 -14.5t59.5 -39.5q1 -3 9 -14q10 -13 12 -16q3 -5 8 -14.5t7 -18t2 -17.5v-41q0 -28 -2 -47q-3 -4 -8 -16l-10 -24t-13.5 -28t-18.5 -30t-26 -29.5t-35 -27.5q-17 -17 -35 -29q-17 -13 -34 -21t-31 -13q-15 -6 -31 -8t-27.5 -3t-25.5 -1
h-27q-24 0 -35 -2q30 24 46 37q18 16 40 36q20 19 33 35q13 15 21.5 30t8.5 27q0 3 -1 6q-2 0 -12 1q-10 2 -17.5 3t-19.5 5q-13 4 -21 8q-8 5 -19 13q-9 9 -17 19q-6 12 -10.5 27.5t-4.5 34.5q0 29 10 58q9 27 26 48q18 22 41 37q23 16 50 23z" />
    <glyph glyph-name="parenleft" unicode="(" horiz-adv-x="600" 
d="M240 699q-1 -18 -1 -37q0 -175 123 -451q30 -66 87 -141q67 -88 67 -116v-1q0 -14 -15 -14q-39 0 -181 92q-82 56 -138 129q-112 149 -151 366q-26 150 -26 276q0 196 65 332q144 301 313 393q90 49 117 49q10 0 10 -8q0 -22 -83 -110q-137 -145 -187 -759z" />
    <glyph glyph-name="parenright" unicode=")" horiz-adv-x="597" 
d="M268 413q15 106 15 212q0 393 -213 781q-19 35 -50 81q-7 11 -7 17q0 8 14 8q13 0 39 -7q7 -2 58 -21q125 -46 245 -222q100 -146 124 -499q1 -19 1 -40q0 -97 -28 -231q-51 -247 -151 -358q-81 -89 -106 -109q-168 -108 -183 -108t-15 14v1q0 28 136 155q85 80 121 326z
" />
    <glyph glyph-name="asterisk" unicode="*" horiz-adv-x="750" 
d="M233 1088q-60 28 -168 71q-58 23 -58 38q0 3 1 4q10 23 22 42q18 28 24 41q12 22 16 22l12 -6q120 -79 121 -80q57 -52 72 -58h1q5 0 5 22q0 45 -20 188q-2 12 -15 52v1q0 3 8 4q33 3 64 3q24 0 48 -1q32 -3 32 -12v-1q-4 -30 -20 -184q-5 -54 -5 -77q0 -17 3 -17
q13 0 171 138q21 18 37 38q1 2 2 2q4 0 8 -6q38 -56 54 -88q9 -18 9 -28q0 -5 -4 -7q-21 -7 -147 -71q-66 -33 -66 -40q0 -1 1 -2q34 -21 65 -39q101 -58 141 -69q4 -2 11 -8v-2q0 -4 -12 -22q0 -1 -23 -43l-30 -53q-5 0 -60 42q-147 114 -156 140q-3 0 -3 -22q0 -27 4 -91
q8 -89 24 -156q1 -7 1 -11q0 -5 -2 -5h-40q-4 -1 -48 -1q-31 0 -47 2q-12 2 -12 28q0 17 4 42q13 75 24 212q-4 -16 -54 -56q-129 -104 -149 -108h-2q-11 0 -25 21q-21 30 -50 91q-2 4 -2 7t3 4q27 6 47 15q184 86 184 93q0 1 -1 1z" />
    <glyph glyph-name="plus" unicode="+" horiz-adv-x="700" 
d="M599 639q7 -3 7 -32q0 -47 -18 -159v-1q0 -7 -10 -7q-4 0 -9 1q-152 28 -194 34h-1q-4 0 -4 -13q0 -42 45 -222q2 -5 2 -11q0 -13 -11 -22q-12 -8 -85 -15q-38 -4 -59 -4q-28 0 -29 6q-2 4 -2 13q0 25 11 93q1 3 5 174l-187 -30h-10q-16 0 -23 9q-12 15 -22 87
q-4 24 -5 67q0 11 10 15q5 2 13 2h8q130 -15 178 -15q28 0 29 5v10q0 48 -20 234v4q0 22 26 22h3q83 -2 130 -10q37 -6 37 -16v-2q-25 -72 -39 -171q-4 -32 -4 -49q0 -20 6 -20q1 0 2 1q7 3 133 22q34 5 55 5q22 0 32 -5z" />
    <glyph glyph-name="comma" unicode="," horiz-adv-x="450" 
d="M154 275q20 7 41 7q34 0 66.5 -15t59.5 -40q2 -4 8 -12t9.5 -12t7.5 -12t6.5 -14t4.5 -14t2 -15v-41q0 -29 -2 -47q-3 -5 -8 -17l-10 -24t-13.5 -28t-18.5 -30t-26 -29.5t-35 -26.5q-20 -20 -42 -34.5t-39.5 -22t-37.5 -12t-33.5 -5.5t-31.5 -1h-62q21 17 33.5 27
t30 25.5t28 25.5t22.5 23t19 22.5t11.5 20t4.5 18.5q0 3 -1 7q-3 0 -12.5 0.5t-18.5 2t-21.5 4t-23 6.5t-21.5 11.5t-19 17.5t-13 26t-5 35q0 29 12 58t31.5 52t44.5 39.5t52 23.5z" />
    <glyph glyph-name="hyphen" unicode="-" horiz-adv-x="725" 
d="M216 603q8 -1 18 -1q64 0 222 23q142 20 154 23h6q7 0 10 -4v-190q0 -3 -1 -7t-2.5 -7.5t-4 -6t-5.5 -2.5t-8 1q-274 10 -291 16q-22 7 -56 7q-12 0 -27 -2q-32 -1 -78 -14q-69 -18 -151 -27l-2 66v50q0 40 2 79q0 5 2 8q1 1 14 1q28 0 198 -13z" />
    <glyph glyph-name="hyphen" unicode="&#xad;" horiz-adv-x="725" 
d="M216 603q8 -1 18 -1q64 0 222 23q142 20 154 23h6q7 0 10 -4v-190q0 -3 -1 -7t-2.5 -7.5t-4 -6t-5.5 -2.5t-8 1q-274 10 -291 16q-22 7 -56 7q-12 0 -27 -2q-32 -1 -78 -14q-69 -18 -151 -27l-2 66v50q0 40 2 79q0 5 2 8q1 1 14 1q28 0 198 -13z" />
    <glyph glyph-name="period" unicode="." horiz-adv-x="425" 
d="M119 323q20 6 41 6q33 0 66.5 -15t58.5 -39q2 -4 10 -14.5t11 -15.5t8.5 -14.5t7.5 -18t2 -17.5v-44q0 -24 -2 -40q-10 -18 -18.5 -33t-21.5 -31t-25.5 -26t-28.5 -17.5t-33 -7.5q-7 0 -21 -0.5t-22 -0.5q-38 0 -62 13q-37 21 -62.5 57t-25.5 77q0 30 8 59.5t23 54
t37 42.5t49 25z" />
    <glyph glyph-name="slash" unicode="/" horiz-adv-x="850" 
d="M696 1091l-120 -258l-256 -562l-16 -45q-26 -60 -29 -97t-7 -115l9 -19l-18 9h-5q-1 0 -2 2l-40 1l-46 2q-38 1 -46 1h-38l-25 -3l-25 -3q-1 1 -20 2h-18q5 45 6 69q14 13 28 32t25 35q18 26 25 39q2 4 5 7q13 26 34.5 64t39.5 74q19 35 32 67l133 281l133 269
q39 107 39 143q0 5 -1 9q-19 79 -19 115q0 54 32 54h41l3 -6h80q13 -3 26 -3q16 0 31 3q11 2 30 2q12 0 22 -1q18 -1 26 -1q15 0 20 2q2 -10 2 -18q0 -40 -31 -63q-19 -14 -28 -30q-20 -34 -32 -58z" />
    <glyph glyph-name="zero" unicode="0" horiz-adv-x="900" 
d="M398 1001h-3q-4 0 -11 -2q-12 -1 -18 -7q-67 -59 -164 -311v-140l40 -230q31 -104 214 -120q16 -1 51 -5q7 0 10 2q99 31 114 169q10 158 10 161q1 4 1 8t-1 11v38q0 278 -231 422q-8 4 -12 4zM385 1158q86 -4 231 -88q72 -41 99 -104q60 -138 60 -238q7 -42 11 -133
q4 -104 8 -149q1 -3 1 -5q0 -32 -17 -110q-13 -67 -44 -133q-34 -72 -55 -93q-18 -16 -58 -46q-4 -3 -88 -31q-52 -18 -145 -35q-26 -3 -39 -3h-8q-97 11 -133 68q-209 324 -209 508q0 21 3 39q36 267 37 270q18 55 53 126q20 40 56 80q45 49 69 58q57 21 133 21q17 0 35 -2
z" />
    <glyph glyph-name="one" unicode="1" horiz-adv-x="550" 
d="M373 473q0 -175 51 -364q1 -4 49 -91q5 -8 5 -16q0 -20 -42 -20h-170q-162 0 -172 13q-6 7 -6 14q0 15 25 32q60 43 60 245q0 148 9 203v145q0 186 -3 188q-10 28 -39 35h-102q-39 7 -39 15q0 5 15 10q125 40 204 112q128 118 144 131q36 31 51 31q13 0 13 -18
q0 -7 -2 -15q-31 -209 -33 -209q-6 -2 -15 -242q-3 -110 -3 -199z" />
    <glyph glyph-name="two" unicode="2" horiz-adv-x="950" 
d="M753 649q-45 -65 -158 -199q-107 -126 -296 -283h359q14 10 32 13q10 2 48 22q23 12 33 12q5 0 6 -4q26 -95 35 -122q65 -189 65 -194q-4 -6 -11 -6q-10 0 -26 12q-56 44 -270 86h-572q-1 1 -1 3q0 21 317 388l102 148l84 136q44 85 44 149q0 63 -40 106q-61 65 -131 65
q-33 0 -45 -6q-42 -24 -64 -48q-87 -97 -146 -182q-4 -6 -8 -6q-8 0 -18 10l-53 203l-16 59q-9 32 -9 35q38 0 49 8q23 15 62 15h13q7 0 107 29q88 26 180 26q122 0 220 -64q30 -19 73 -66q40 -43 54 -72q21 -46 27 -117q1 -10 1 -20q0 -70 -47 -136z" />
    <glyph glyph-name="three" unicode="3" horiz-adv-x="900" 
d="M272 723h19q33 -1 91 -1h4q74 0 96 39q39 71 39 130q0 99 -104 170q-13 9 -32 9q-31 0 -75 -23q-137 -71 -144 -89q-27 -62 -41 -62q-2 0 -5 2q-9 6 -10 8q-11 19 -123 210v2q0 12 76 12q35 0 68 3q31 3 42 7q112 38 209 38q23 0 44 -1q120 -11 162 -51
q135 -128 136 -236q0 -58 -66 -172q-50 -88 -113 -120l128 -76q128 -108 128 -208v-7q0 -113 -53 -193q-85 -128 -269 -140h-17q-53 0 -134 18q-138 31 -203 31h-1q-9 0 -78 -21q-17 -5 -27 -5q-17 0 -17 14l64 318q94 -83 110 -105q21 -30 50 -46q63 -33 63 -34
q97 -30 238 -30q54 16 54 80q0 114 -51 204q-40 68 -90 101q-43 29 -83 29h-1q-2 0 -27 -7q-43 -12 -54 -18q-25 -13 -33 -13q-5 0 -5 4q5 24 7 72q8 104 10 139q2 17 18 18z" />
    <glyph glyph-name="four" unicode="4" horiz-adv-x="900" 
d="M811 306v-7q0 -21 -9 -21q-7 0 -18 11q-11 9 -13 10l-16 10q-51 30 -80 30q-6 0 -12 -1l32 -219l41 -127q0 -9 -10 -9h-112q-116 -1 -131 -1h-3q-3 1 -12 1t-24 -1h-9q-40 0 -40 13q0 8 17 21l21 13q50 35 60 79q14 68 14 75v24q0 39 1 136h-493q-17 3 -17 21q0 10 5 25
q11 33 172 241q7 8 190 228q250 301 291 301q7 0 7 -11q2 -217 3 -525q1 -126 1 -131q0 -1 2 -1q6 0 25 3q15 3 28 9q78 38 93 38q3 0 3 -2v-11zM248 492h264q0 78 -5 232q1 2 1 48q-4 0 -75 -68q-61 -59 -198 -206q-1 -2 -1 -3q0 -3 14 -3z" />
    <glyph glyph-name="five" unicode="5" horiz-adv-x="850" 
d="M25 299h288q16 0 16 -7q0 -6 -8 -14q-23 -29 -45 -46q-37 -31 -41 -42q-2 -4 -2 -9q0 -11 10 -20q76 -75 130 -83h7q16 0 28 8q39 26 43 29q54 46 86 163q4 11 4 32q0 18 -3 44q-8 110 -69 154q-87 63 -133 63q-11 0 -17 -2q0 -1 -88 -20l-83 -23q-22 -7 -39 -11
q-16 -3 -32 -3h-6q-4 0 -4 4q-1 22 -1 23h-1q0 2 1 4q0 11 5 114q1 7 1 18q0 31 -3 91q-1 12 -33 160q-29 130 -36 180q-1 2 -1 4q0 4 6 4h2q55 -3 125 -3q43 0 91 2l175 3q108 4 190 8q33 2 88 46h1q1 0 2 -1t2.5 -2t1.5 -4l-6 -186q2 -17 2 -28q0 -22 -9 -22q-34 6 -41 7
q-31 6 -144 20q-53 7 -253 15h-3q-16 0 -16 -7q4 -21 4 -46v-9q0 -10 3 -63q5 -66 9 -86q11 -78 15 -78q60 8 105 8q30 0 57 -2q250 -31 299 -172q22 -66 22 -128q0 -202 -229 -366q-17 -12 -143 -32q-42 0 -92 11q-9 3 -106 44q-113 48 -145 179q-1 4 -1 11q0 18 7 61
q1 5 7 5z" />
    <glyph glyph-name="six" unicode="6" horiz-adv-x="950" 
d="M192 598q5 -37 21 -112q2 -8 5 -8t6 2q122 96 244 96h1q187 0 286 -99q81 -82 81 -167q0 -24 -6 -48q-20 -76 -76 -150q-61 -79 -155 -102q-68 -18 -127 -18q-82 0 -149 33q-135 63 -198 169q-94 158 -108 280q-12 112 -14 135v1q6 108 45 229q67 208 344 319h10
q108 0 191 -43q89 -44 151 -94q22 9 74 11h1q22 0 22 -14q0 -6 -77 -133q-53 -89 -53 -95v-1q-17 -13 -26 -13t-11 12q-19 82 -69 140q-45 54 -115 54q-30 0 -64 -10q-237 -66 -237 -314q0 -28 3 -60zM305 274q17 -77 53 -97q50 -30 147 -30q9 0 18 1q76 1 112 106
q7 22 7 42q0 41 -30 80q-42 54 -113 56q-4 1 -8 1t-8 -1q-110 -3 -142 -41q-38 -44 -38 -92q0 -13 2 -25z" />
    <glyph glyph-name="seven" unicode="7" horiz-adv-x="950" 
d="M121 70q127 84 445 799q26 58 26 70q0 2 -1 2q-90 0 -296 -21q-148 -15 -201 -30q-14 -4 -15 -35q0 -19 -25 -25q-1 -1 -2 -1q-15 0 -21 44q-30 198 -30 220q0 13 12 13t36 -13q15 -9 26 -16q25 -16 31 -16q43 0 186 4l545 17q7 -2 7 -19q0 -8 -1 -20l-10 -18
q-294 -592 -412 -849q-22 -48 -22 -85q0 -15 18 -75q15 -52 15 -60q0 -10 -4 -10h-3q-37 14 -46 16q-27 7 -107 28q-86 25 -150 32q-24 4 -25 16q1 11 24 32z" />
    <glyph glyph-name="eight" unicode="8" horiz-adv-x="900" 
d="M439 138q144 45 144 172q0 53 -25 120q-49 130 -191 145q-8 2 -15 2q-51 0 -82 -42q-63 -88 -63 -167q0 -50 25 -98q24 -43 78 -80q81 -53 118 -53q7 0 11 1zM231 858q-2 -10 -2 -19q0 -69 93 -70q96 0 138 48q73 81 73 135q0 24 -16 42q-25 32 -72 32q-46 0 -113 -28
q-85 -36 -101 -140zM776 314q-11 -171 -114 -249q-96 -74 -232 -74q-80 0 -173 26q-144 38 -206 159q-52 99 -52 202q0 30 5 62q20 132 177 226q-105 131 -112 186q-2 30 -2 55q0 197 176 249q33 10 98 10q25 0 55 -1q150 -9 236 -47q101 -46 101 -154q0 -30 -8 -63
q-37 -155 -152 -218q0 -5 7 -5q13 0 33 -9q165 -64 165 -307q0 -24 -2 -48z" />
    <glyph glyph-name="nine" unicode="9" horiz-adv-x="900" 
d="M548 510q-122 -81 -229 -81q-128 0 -234 117q-75 82 -75 156q0 146 15 203q18 71 71 141q54 74 142 96q50 14 117 16q55 3 98 3q57 0 93 -4q108 -12 197 -93q38 -36 46 -225q6 -143 6 -237q0 -168 -18 -180v-2q0 -26 -31 -133q-56 -193 -317 -299q-26 -2 -51 -2
q-165 0 -244 71q-1 2 -4 2q-12 0 -47 -21q-13 -7 -19 -7q-7 0 -7 8q0 3 2 9q23 83 33 114q30 92 30 94q14 16 23 16q7 0 11 -9q33 -81 85 -102q91 -37 133 -37q7 0 12 1q24 4 40 24q2 9 70 61q27 21 53 86q12 28 15 103v23q0 39 -6 84q-1 7 -5 7q-2 0 -5 -3zM540 737
q24 47 24 153v28q-2 101 -33 118q-37 20 -79 20q-29 0 -60 -9q-153 -44 -171 -167q-7 -40 -7 -76q0 -46 10 -88q23 -99 142 -110q8 -1 15 -1q93 0 159 132z" />
    <glyph glyph-name="colon" unicode=":" horiz-adv-x="450" 
d="M119 323q20 6 41 6q33 0 66.5 -15t58.5 -39q2 -4 10 -14.5t11 -15.5t8.5 -14.5t7.5 -18t2 -17.5v-44q0 -24 -2 -40q-10 -18 -18.5 -33t-21.5 -31t-25.5 -26t-28.5 -17.5t-33 -7.5q-7 0 -21 -0.5t-22 -0.5q-38 0 -62 13q-37 21 -62.5 57t-25.5 77q0 30 8 59.5t23 54
t37 42.5t49 25zM149 773q20 6 41 6q33 0 66.5 -15t58.5 -39q2 -4 10 -14.5t11 -15.5t8.5 -14.5t7.5 -18t2 -17.5v-44q0 -24 -2 -40q-10 -18 -18.5 -33t-21.5 -31t-25.5 -26t-28.5 -17.5t-33 -7.5q-7 0 -21 -0.5t-22 -0.5q-38 0 -62 13q-37 21 -62.5 57t-25.5 77q0 30 8 59.5
t23 54t37 42.5t49 25z" />
    <glyph glyph-name="semicolon" unicode=";" horiz-adv-x="450" 
d="M149 773q20 6 41 6q33 0 66.5 -15t58.5 -39q2 -4 10 -14.5t11 -15.5t8.5 -14.5t7.5 -18t2 -17.5v-44q0 -24 -2 -40q-10 -18 -18.5 -33t-21.5 -31t-25.5 -26t-28.5 -17.5t-33 -7.5q-7 0 -21 -0.5t-22 -0.5q-38 0 -62 13q-37 21 -62.5 57t-25.5 77q0 30 8 59.5t23 54
t37 42.5t49 25zM154 275q20 7 41 7q34 0 66.5 -15t59.5 -40q2 -4 8 -12t9.5 -12t7.5 -12t6.5 -14t4.5 -14t2 -15v-41q0 -29 -2 -47q-3 -5 -8 -17l-10 -24t-13.5 -28t-18.5 -30t-26 -29.5t-35 -26.5q-20 -20 -42 -34.5t-39.5 -22t-37.5 -12t-33.5 -5.5t-31.5 -1h-62
q21 17 33.5 27t30 25.5t28 25.5t22.5 23t19 22.5t11.5 20t4.5 18.5q0 3 -1 7q-3 0 -12.5 0.5t-18.5 2t-21.5 4t-23 6.5t-21.5 11.5t-19 17.5t-13 26t-5 35q0 29 12 58t31.5 52t44.5 39.5t52 23.5z" />
    <glyph glyph-name="semicolon" unicode="&#x37e;" horiz-adv-x="450" 
d="M149 773q20 6 41 6q33 0 66.5 -15t58.5 -39q2 -4 10 -14.5t11 -15.5t8.5 -14.5t7.5 -18t2 -17.5v-44q0 -24 -2 -40q-10 -18 -18.5 -33t-21.5 -31t-25.5 -26t-28.5 -17.5t-33 -7.5q-7 0 -21 -0.5t-22 -0.5q-38 0 -62 13q-37 21 -62.5 57t-25.5 77q0 30 8 59.5t23 54
t37 42.5t49 25zM154 275q20 7 41 7q34 0 66.5 -15t59.5 -40q2 -4 8 -12t9.5 -12t7.5 -12t6.5 -14t4.5 -14t2 -15v-41q0 -29 -2 -47q-3 -5 -8 -17l-10 -24t-13.5 -28t-18.5 -30t-26 -29.5t-35 -26.5q-20 -20 -42 -34.5t-39.5 -22t-37.5 -12t-33.5 -5.5t-31.5 -1h-62
q21 17 33.5 27t30 25.5t28 25.5t22.5 23t19 22.5t11.5 20t4.5 18.5q0 3 -1 7q-3 0 -12.5 0.5t-18.5 2t-21.5 4t-23 6.5t-21.5 11.5t-19 17.5t-13 26t-5 35q0 29 12 58t31.5 52t44.5 39.5t52 23.5z" />
    <glyph glyph-name="less" unicode="&#x3c;" horiz-adv-x="750" 
d="M274 547l8 -6q7 -5 15 -10q56 -32 204 -91q133 -54 145 -57l5 -3q6 -4 7 -9l-95 -164q-2 -3 -5 -6t-6 -5.5t-12 -2.5q-3 2 -6 5q-233 146 -245 159q-15 7 -44 24q-11 6 -25 12q-28 15 -74 37q-16 4 -33 10q-8 -5 -9 -5q-4 2 -6 6q-1 2 -3 5q-46 15 -84 36l-18 68l3 5
l-4 7l28 58q30 12 77 27l2 4q2 4 6 6q1 0 9 -4q16 5 31 9q46 22 74 37q14 6 25 12q19 7 44 24q12 14 245 159q3 4 6 5q9 0 12 -2.5t6 -5.5l5 -5l95 -165q-1 -5 -7 -8l-5 -3q-12 -4 -145 -57q-148 -60 -204 -92q-8 -5 -15 -9q-4 -3 -7 -5z" />
    <glyph glyph-name="equal" unicode="=" horiz-adv-x="750" 
d="M216 465q8 -1 18 -1q64 0 222 23q142 20 154 23h6q7 0 10 -4v-190q0 -3 -1 -7t-2.5 -7.5t-4 -6t-5.5 -2.5t-8 1q-274 10 -291 16q-22 7 -56 7q-12 0 -27 -2q-32 -1 -78 -14q-69 -18 -151 -27l-2 66v50q0 40 2 79q0 5 2 8q1 1 14 1q28 0 198 -13zM226 791q8 -1 18 -1
q64 0 222 23q142 20 154 23h6q7 0 10 -4v-190q0 -3 -1 -7t-2.5 -7.5t-4 -6t-5.5 -2.5t-8 1q-274 10 -291 16q-22 7 -56 7q-12 0 -27 -2q-32 -1 -78 -14q-69 -18 -151 -27l-2 66v50q0 40 2 79q0 5 2 8q1 1 14 1q28 0 198 -13z" />
    <glyph glyph-name="greater" unicode="&#x3e;" horiz-adv-x="750" 
d="M369 552q-7 4 -15 9q-56 32 -204 92q-133 53 -145 57l-5 3q-6 3 -7 8l95 165l5 5t6 5.5t12 2.5q3 -1 6 -5q233 -145 245 -159q25 -17 44 -24q11 -6 25 -12q28 -15 74 -37q15 -4 31 -9q8 4 9 4q4 -2 6 -6l2 -4q47 -15 77 -27l28 -58l-4 -7l3 -5l-18 -68q-38 -21 -84 -36
q-2 -3 -3 -5q-2 -4 -6 -6q-1 0 -9 5q-17 -6 -33 -10q-46 -22 -74 -37q-14 -6 -25 -12q-29 -17 -44 -24q-12 -13 -245 -159q-3 -3 -6 -5q-9 0 -12 2.5t-6 5.5t-5 6l-95 164q1 5 7 9l5 3q12 3 145 57q148 59 204 91q8 5 15 10l8 6q-3 2 -7 5z" />
    <glyph glyph-name="question" unicode="?" horiz-adv-x="775" 
d="M306 345v-1q-12 0 -32.5 -5.5t-36.5 -5.5q-7 0 -14 1q2 2 4 4.5t2.5 4t1.5 3t1.5 2t0.5 1.5v1q15 67 15 68q1 10 5 87q8 43 14 61q10 30 37 62q29 36 109 107l36 125q7 26 7 40q0 7 -4 25.5t-4 38.5q0 27 -14 50.5t-38 33.5q-15 5 -23 7.5t-21 5t-24 2.5h-8
q-23 -3 -38.5 -5t-32 -6t-27 -9.5t-21.5 -13.5t-18 -18.5t-12 -25.5q-6 -28 -6 -47q0 -38 18 -70q6 -12 20 -17.5t30 -5.5q15 0 27 4.5t18 13.5q7 -20 7 -46q0 -28 -7 -53t-20 -39q-4 -5 -9 -8.5t-12.5 -6.5t-13.5 -5.5t-15 -5t-14 -3.5t-15 -3.5l-14 -3.5h-5q-24 0 -46 10
t-38.5 26.5t-30.5 39t-23.5 46t-16.5 49.5q-5 27 -5 60q0 63 17 114q8 20 32 51t50 57t46 42q16 6 40 15.5t35 14t30 10.5t33 8.5t34 4.5t44 2q48 0 92 -11.5t78 -39.5q28 -18 55.5 -44t46.5 -52q15 -20 24.5 -38t14 -35.5t6 -32.5t1.5 -35q0 -9 -0.5 -28t-0.5 -31v-14
q0 -37 -14.5 -83.5t-37.5 -85t-45 -54.5q-10 -9 -23.5 -20.5t-22 -18.5t-19.5 -17.5t-17 -20.5t-13.5 -24t-11 -29t-6 -66t-2.5 -77v-50q-56 8 -75 13h-85zM297 259q20 9 43 9q25 0 49.5 -10t44.5 -26q2 -3 8 -9.5t8.5 -9.5t6.5 -9.5t6.5 -11t4.5 -10.5t3 -12q5 -35 5 -58
v-10q-37 -87 -95 -102q-33 -4 -47 -4q-21 0 -38 7q-30 13 -52.5 40.5t-28.5 60.5q-2 12 -2 24q0 44 23.5 81t60.5 50z" />
    <glyph glyph-name="at" unicode="@" horiz-adv-x="1400" 
d="M614 806q-79 -21 -86 -133q-1 -42 -1 -74q0 -65 9 -83q24 -44 59 -44q22 0 49 19q94 69 98 71l6 82q8 97 13 146v2q0 12 -17 16q-26 8 -56 8q-36 0 -74 -10zM350 254q113 -126 340 -126q89 0 197 20q67 12 75 18q159 113 163 114q8 2 15 2q21 0 21 -22v-13
q0 -63 2 -133.5t2 -87.5v-5q-5 -28 -15 -28q-14 0 -38 42q-8 13 -8 18q-1 5 -11 5q-17 0 -63 -16q-154 -51 -275 -51q-26 0 -50 2q-329 31 -476 191q-235 257 -235 504q0 184 132 361q127 171 237 187q217 32 366 32q130 0 208 -24q184 -56 274 -264q85 -198 85 -326
q0 -30 -5 -55q-20 -113 -163 -212q-63 -44 -125 -44q-61 0 -120 41q-67 47 -80 47q-1 0 -2 -1q-47 -50 -86 -65q-31 -12 -66 -12q-33 0 -70 11q-200 60 -238 198q-9 36 -9 70q0 116 107 216q83 76 233 76q26 0 54 -2q189 -15 189 -51q0 -3 -2 -7q-49 -98 -49 -193
q0 -45 11 -89q19 -78 91 -96q25 -6 46 -6q46 0 77 29q51 49 51 151q0 66 -20 154q-59 250 -476 353q-25 6 -51 6q-99 0 -223 -87q-194 -137 -194 -296q0 -21 4 -42q58 -369 170 -494z" />
    <glyph glyph-name="A" unicode="A" horiz-adv-x="1201" 
d="M775 1469h28q23 0 43 -318l97 -677q104 -416 213 -567q23 0 45 -69l-595 -78l-8 27q133 166 133 394v172h-170l-96 9q-37 -9 -37 -60q0 -163 133 -274v-10l-34 -17q-533 10 -533 51q166 191 258 456q115 338 115 618v25q0 65 -151 147q-44 0 -44 25q44 38 603 146z
M606 920l-124 -360v-9h17l196 9v7q-45 250 -80 353h-9z" />
    <glyph glyph-name="B" unicode="B" horiz-adv-x="1104" 
d="M113 1440h98q405 -23 716 -206q97 -82 97 -153v-18q0 -104 -204 -297v-9q241 -94 241 -197v-19q0 -127 -313 -423q-201 -126 -618 -198l-9 27q108 137 108 388q-30 980 -124 980q0 25 -100 99q32 26 108 26zM471 901v-90h26q233 56 233 234v18q-30 81 -99 81h-36
q-98 0 -98 -45q-26 -80 -26 -198zM471 622v-171q0 -126 44 -126l54 -9q154 0 223 216v9q0 66 -143 90h-27z" />
    <glyph glyph-name="C" unicode="C" horiz-adv-x="962" 
d="M887 1457h9l10 -46v-82q0 -393 -36 -393h-8q-180 164 -312 164q-303 0 -303 -348q0 -447 312 -447q199 0 320 210h8l19 -27v-165q0 -239 -53 -239l-392 -91q-212 0 -419 403q-35 145 -35 237q0 417 89 495q150 176 383 265l35 10h62l142 -46q49 0 169 100z" />
    <glyph glyph-name="D" unicode="D" horiz-adv-x="1083" 
d="M43 1451q538 -56 637 -133q190 -48 330 -315q53 -189 53 -363q0 -354 -445 -582q-125 -58 -593 -114l-9 9v10q184 213 184 438v363q0 409 -184 659zM435 745v-29q0 -429 105 -429l26 -9h26q192 84 192 362v29q-47 458 -192 458h-62q-57 0 -78 -153z" />
    <glyph glyph-name="E" unicode="E" horiz-adv-x="1192" 
d="M1070 1486h9q50 0 70 -537v-10h-26q-154 207 -328 207l-247 10q-53 -38 -53 -236v-57l27 -27q130 0 273 150q36 -166 36 -443v-47h-17q-242 113 -284 113h-26q-27 -102 -27 -197v-95q0 -28 168 -38q336 0 336 86l116 121q26 -56 26 -197v-254l-18 -20l-929 -27l-8 -10
h-10l-8 10h-9l-115 -20l-8 28q202 335 202 679q0 410 -194 726l-18 47h10l848 -75q79 13 204 113z" />
    <glyph glyph-name="F" unicode="F" horiz-adv-x="970" 
d="M909 1445q15 0 27 -328l-9 -9h-9q-110 71 -241 71q-231 0 -231 -36v-97q0 -65 26 -159q85 0 242 142h10l27 -27v-336l-9 -133h-18q-176 193 -260 212v-8l-10 -177q0 -318 111 -496l28 -27v-8q0 -39 -518 -62l-10 -9l-10 9v9q159 287 159 663q0 326 -121 655
q-74 74 -74 106l28 8l510 -25q165 0 352 62z" />
    <glyph glyph-name="G" unicode="G" horiz-adv-x="1247" 
d="M546 1425q61 0 406 -96h36q70 0 185 96q18 0 18 -26q-81 -338 -177 -419q-185 174 -433 174q-282 0 -327 -174l-10 -34q44 -294 169 -533q155 -235 239 -235q163 0 211 227v8q0 110 -176 235v9q5 27 61 27l469 17l10 -9v-8q-47 -401 -125 -506q-137 -201 -450 -201
l-98 -8q-449 0 -531 592l-17 358q0 326 451 497z" />
    <glyph glyph-name="H" unicode="H" horiz-adv-x="1381" 
d="M1343 1497l9 -8v-8q-217 -151 -217 -395v-143l-9 -63l9 -86v-364q0 -338 283 -475v-15h-9l-707 -64l-10 9v15q189 151 189 483l-19 277h-141q-226 -6 -226 -24q0 -259 189 -499l37 -39v-8l-19 -16l-188 16h-453l-18 16v8q131 71 131 142q86 150 86 387q0 391 -246 617v15
q0 20 613 56h57l8 -8h10q-198 -311 -198 -466v-16l47 -8h10q264 0 301 40v15q0 392 -170 514q-17 0 -56 55v16l113 8z" />
    <glyph glyph-name="I" unicode="I" horiz-adv-x="727" 
d="M317 1445h21q204 0 274 -168v-125q-115 -150 -215 -150h-102q-186 0 -223 231q61 212 245 212zM164 895h428q60 -6 60 -27q-142 -255 -142 -284v-124q0 -136 184 -338v-27l-10 -9v-8l-327 -10h-357v18q236 113 236 382q0 272 -164 383l-10 35z" />
    <glyph glyph-name="J" unicode="J" horiz-adv-x="1224" 
d="M1176 1428l43 -9v-8q-20 -35 -180 -126q-69 -32 -69 -598l-9 -127l9 -8v-8q0 -257 -300 -531l-94 -26q-574 162 -574 337v18q0 146 154 370q105 59 188 59h9q154 0 154 -118q0 -95 -68 -177q-53 93 -111 93q-78 0 -78 -110q56 -252 257 -252h18q171 0 171 437v127
q0 452 -275 598v17q0 42 755 42z" />
    <glyph glyph-name="K" unicode="K" horiz-adv-x="1330" 
d="M109 1444l71 -10h339q73 0 80 -27q-130 -272 -130 -469h10q259 145 259 392q0 77 41 77q518 -37 518 -77q-76 -31 -379 -325l-219 -191q507 -181 507 -362l11 -10l-50 -257q0 -69 239 -191v-29q-141 -143 -309 -143h-10q-184 0 -209 276q-67 516 -190 516q-92 67 -239 67
v-133q0 -231 200 -507l-61 -18h-9l-589 -58l-20 29q220 159 220 687l-10 124v220q-48 343 -130 343l-30 39v9q0 18 89 18v10z" />
    <glyph glyph-name="L" unicode="L" horiz-adv-x="1026" 
d="M-12 1484h253q559 0 559 -32q0 -25 -79 -34q-253 -112 -253 -390v-58l-9 -7l53 -701h9q240 0 287 49l174 204q25 0 44 -482l-25 -16q-562 -16 -804 -40h-104l-17 16v17q157 204 157 383v464q0 479 -210 586q-35 13 -35 25v16z" />
    <glyph glyph-name="M.001" horiz-adv-x="1707" 
d="M-30 1444h603q29 0 176 -456l95 -222h9l251 667l9 11h614l73 -11v-9q-271 -232 -271 -436q-27 -23 -41 -314q0 -484 280 -648v-10q0 -20 -31 -20q-676 41 -676 92q167 113 167 383l-20 355h-11q-208 -421 -208 -456q7 -63 52 -121q0 -36 -188 -81h-20q-132 22 -208 91
q35 55 63 162l-188 405h-11l-20 -375q0 -229 135 -334l32 -40q0 -37 -698 -81l-10 10v20q281 160 281 658q0 513 -281 698l-31 42v9z" />
    <glyph glyph-name="N" unicode="N" horiz-adv-x="1320" 
d="M687 1423q659 -10 659 -55q-146 -187 -146 -281q-38 -155 -38 -369q0 -555 126 -650l78 -81v-16l-446 -64q-49 0 -78 169q-97 220 -330 618h-10l-19 -297q0 -183 126 -265l30 -33q0 -29 -651 -63l-9 7v16q262 127 262 522q0 406 -262 554l-29 32v8l67 8h563
q27 0 165 -361q158 -319 185 -337l9 176q0 599 -281 722l-10 9v24z" />
    <glyph glyph-name="O.001" horiz-adv-x="976" 
d="M491 1173h42q285 0 395 -294q43 -138 43 -253v-111l10 -91q0 -242 -352 -364l-128 -21q-219 0 -374 162q-127 157 -127 416v60q0 317 362 475zM320 637q24 -335 171 -335h21q190 0 223 355v10q0 243 -191 243q-171 0 -224 -253v-20z" />
    <glyph glyph-name="P" unicode="P" horiz-adv-x="1077" 
d="M1 1451q624 -45 724 -98q163 -47 218 -150q131 -207 131 -345v-18q0 -209 -558 -354q-35 0 -35 -18q0 -285 140 -442v-8q-6 -27 -70 -27h-384q-96 0 -96 27q140 51 140 300l8 212v442q0 189 -235 461zM473 734l34 -18q279 64 279 239q0 148 -192 177h-26q-87 0 -87 -230z
" />
    <glyph glyph-name="Q" unicode="Q" horiz-adv-x="1169" 
d="M493 1451h60q289 -90 438 -296q69 -66 69 -463q0 -191 -129 -383q-24 0 -95 -105q-119 -79 -119 -96q0 -73 154 -97q154 19 154 114q18 0 18 61v62l17 17q138 -72 188 -235v-27q0 -147 -377 -279l-69 -9q-134 48 -309 358l-8 8q-8 15 -146 53q-109 51 -265 279
q-69 158 -69 305q0 396 86 471q144 169 368 254zM236 832q35 -341 95 -341q0 120 179 175v-8l61 -219l25 -26q98 0 206 175l26 235q0 244 -171 305q-45 27 -138 27q-133 0 -257 -158z" />
    <glyph glyph-name="R" unicode="R" horiz-adv-x="1238" 
d="M12 1443q686 -91 686 -163q249 -158 249 -368q0 -74 -223 -286q119 -129 119 -352q121 -392 147 -401q59 -40 111 -40h26q112 0 154 131q0 82 26 82q163 -118 163 -271q0 -89 -275 -179q-77 -34 -188 -34q-147 0 -343 524q-104 364 -171 425q-44 25 -86 25l-9 -8
q0 -253 129 -418l-8 -7v-9l-121 9l-360 -50l-17 16q92 90 146 557l9 122v74q0 183 -181 597v8zM372 1150v-140l18 -221v-25l17 -16q222 71 222 213q-39 205 -153 205z" />
    <glyph glyph-name="S" unicode="S" horiz-adv-x="996" 
d="M960 1454l9 -51q0 -191 -44 -348q-160 148 -276 148h-70q-160 -24 -160 -148q48 -41 452 -243q125 -115 125 -201v-34q0 -265 -311 -522q-114 -60 -160 -60h-9q-210 0 -425 391q-98 83 -98 138q120 27 532 27h10v-17q-116 -109 -116 -157v-9q14 -95 97 -95h36
q141 0 141 295v26q0 81 -266 96q-319 41 -319 295v18q0 212 311 391q43 26 116 26h35l142 -43q61 0 248 77z" />
    <glyph glyph-name="T" unicode="T" horiz-adv-x="1201" 
d="M1147 1494q34 0 42 -516l9 -35q-11 -44 -26 -44q-142 239 -428 239l-51 -9v-52q0 -826 60 -826q136 -189 136 -222h-153l-404 -45l-8 27q112 164 112 400l-35 701l-34 26h-26q-145 0 -266 -195l-25 -9q-38 22 -43 400l-9 9l9 8l231 9h377q481 0 481 62z" />
    <glyph glyph-name="U" unicode="U" horiz-adv-x="1141" 
d="M592 1512l542 -26v-24q-140 -87 -140 -349q-15 -904 -70 -904q-53 -113 -226 -183l-175 -33q-305 138 -305 663q-38 433 -106 433l-122 141l558 41v-8q-110 -183 -112 -241q25 -730 95 -730l44 -9q166 17 166 125l17 158q0 726 -148 888l-43 32z" />
    <glyph glyph-name="V" unicode="V" horiz-adv-x="1348" 
d="M845 1233l585 -18v-10q-353 -385 -404 -566l-327 -649h-9q-74 83 -172 298q-210 534 -517 853q-60 39 -60 55v9h9l594 19v-19q-112 -106 -112 -203q0 -102 232 -548h43q31 0 250 538v18q0 87 -129 205z" />
    <glyph glyph-name="W" unicode="W" horiz-adv-x="1629" 
d="M1143 1547l386 -18h181l17 -17q-264 -266 -317 -583q-95 -348 -95 -515q0 -212 78 -333v-9q0 -43 -515 -137l-9 8v9q52 134 52 180q0 166 -128 463h-9q-129 -202 -129 -481l35 -93v-9q0 -28 -378 -94h-69l-17 34q52 205 52 488q0 281 -283 567l-43 59v17h9q333 43 600 43
l17 -26q-110 -66 -120 -376l25 -198h17q205 516 276 840l17 17q30 -19 214 -643l86 -154h8q94 448 94 643q0 197 -76 309z" />
    <glyph glyph-name="X" unicode="X" horiz-adv-x="1173" 
d="M683 1451h9l530 -177l9 -9v-8q-281 -114 -539 -600v-9q182 -316 298 -439q17 0 116 -127q58 -23 58 -43q0 -27 -290 -58v8l-9 -8h-7l-9 8l-50 -17h-8l-9 9l-90 -17v8l-9 -8h-9l-16 17l25 117v26q-55 305 -100 305h-8q-75 -208 -75 -271v-76l26 -93l-26 -17l-8 9l-8 -9h-9
l-8 9l-8 -9h-16l-9 9l-9 -9q-423 27 -423 42q0 22 174 203q166 211 267 431v18q-282 459 -549 540v9q16 18 300 118q132 72 223 93h8v-9q-33 -90 -33 -143q0 -153 175 -397q141 355 141 456z" />
    <glyph glyph-name="Y" unicode="Y" horiz-adv-x="1463" 
d="M793 1441h9l723 -17l9 -10v-26q-104 -53 -185 -121q-253 -268 -473 -739v-200q0 -174 195 -252l18 -26q0 -23 -603 -114q0 -17 -64 -17h-47l-18 17q260 174 260 365q0 171 -381 662q-130 143 -278 217v17l278 17l10 -8h9l38 8l119 -8l167 8h10q28 0 28 -34
q-56 -92 -56 -148q0 -115 167 -270q250 311 250 444q0 59 -185 226v9z" />
    <glyph glyph-name="Z" unicode="Z" horiz-adv-x="1316" 
d="M127 1367h9q131 -98 195 -98h267l79 10l9 -10h10l230 10h17l338 -10l115 19l10 -9q-48 -143 -231 -301l-622 -726v-8h151q399 0 399 71l125 123q26 -52 26 -186v-229l-18 -18l-887 -18h-230l-81 -8l-8 8h-9l-10 -8h-8l-27 8l-27 -8l-17 26q0 47 187 177q717 765 727 814
l9 52l-18 19h-62q-543 -13 -586 -98l-107 -115h-26v9q19 504 71 504z" />
    <glyph glyph-name="bracketleft" unicode="[" horiz-adv-x="900" 
d="M331 734q0 -14 -1 -41.5t-1 -41.5q0 -47 8 -80q0 -305 30 -522q26 0 77.5 2.5t76.5 2.5q10 0 19.5 2.5t19 7t16 8t17.5 10t16 9.5q12 9 25 21.5t21 21.5t22 27t18.5 23.5t20 28t17.5 25.5q2 2 5 7t5 9.5t5.5 8.5t7 6.5t8.5 2.5q4 0 8 -4q10 -40 13 -89q4 -47 4 -85v-34
q0 -20 1 -62q2 -55 7 -89q2 -15 3 -30q0 -18 -4 -39q-84 0 -251 -11t-251 -11q-29 0 -84.5 -8t-83.5 -8q-12 0 -35 -1t-35 -1q-37 0 -63 9q10 30 24 47q16 20 29.5 43.5t30 56.5l23.5 47q2 10 14 32.5t12 34.5v599l-1 81l1 91v599q0 12 -12 34.5t-14 32.5l-23.5 47t-30 56.5
t-29.5 43.5q-14 17 -24 47q26 9 63 9q12 0 35 -1t35 -1q28 0 83.5 -8t84.5 -8q84 0 251 -11t251 -11q4 -21 4 -39q-1 -15 -3 -30q-5 -34 -7 -89q-1 -42 -1 -62v-34q0 -38 -4 -85q-3 -49 -13 -89q-4 -4 -8 -4q-5 0 -8.5 2.5t-7 6.5t-5.5 8.5t-5 9.5t-5 7q-2 3 -17.5 25.5
t-20 28t-18.5 23.5t-22 27t-21 21.5t-25 21.5q-5 3 -16 9.5t-17.5 10t-16 8t-19 7t-19.5 2.5q-25 0 -76.5 2.5t-77.5 2.5q-30 -217 -30 -522q-8 -33 -8 -80q0 -14 1 -41.5t1 -83.5z" />
    <glyph glyph-name="backslash" unicode="\" horiz-adv-x="850" 
d="M52 1149q-8 16 -28 30q-30 23 -30 63q0 8 2 18q4 -2 20 -2q8 0 26 1q10 1 22 1q19 0 30 -2q15 -3 30 -3q14 0 27 3h80l3 6h41q32 0 32 -54q0 -36 -19 -115q-1 -4 -1 -9q0 -36 39 -143l133 -269l133 -281q13 -32 32 -67q18 -36 39 -74t35 -64q2 -3 5 -7q7 -13 25 -39
q11 -16 25 -35t27 -32q2 -24 7 -69h-19q-18 -1 -19 -2l-25 3l-25 3h-39q-8 0 -45 -1l-47 -2l-40 -1q0 -2 -1 -2h-5l-18 -9l8 19q-3 78 -6 115t-30 97l-15 45l-257 562l-120 258q-12 24 -32 58z" />
    <glyph glyph-name="bracketright" unicode="]" horiz-adv-x="850" 
d="M462 776q0 14 1 41.5t1 41.5q0 47 -8 80q0 305 -30 522q-26 0 -77.5 -2.5t-76.5 -2.5q-10 0 -19.5 -2.5t-19 -7t-16 -8t-17.5 -10t-16 -9.5q-12 -9 -25 -21.5t-21 -21.5t-22 -27t-18.5 -23.5t-20 -28t-17.5 -25.5q-2 -2 -5 -7t-5 -9.5t-5.5 -8.5t-7 -6.5t-8.5 -2.5
q-4 0 -8 4q-10 40 -13 89q-4 47 -4 85v34q0 20 -1 62q-2 55 -7 89q-2 15 -3 30q0 18 4 39q84 0 251 11t251 11q29 0 84.5 8t83.5 8q12 0 35 1t35 1q37 0 63 -9q-10 -30 -24 -47q-16 -20 -29.5 -43.5t-30 -56.5l-23.5 -47q-2 -10 -14 -32.5t-12 -34.5v-599l1 -81l-1 -91v-599
q0 -12 12 -34.5t14 -32.5l23.5 -47t30 -56.5t29.5 -43.5q14 -17 24 -47q-26 -9 -63 -9q-12 0 -35 1t-35 1q-28 0 -83.5 8t-84.5 8q-84 0 -251 11t-251 11q-4 21 -4 39q1 15 3 30q5 34 7 89q1 42 1 62v34q0 38 4 85q3 49 13 89q4 4 8 4q5 0 8.5 -2.5t7 -6.5t5.5 -8.5t5 -9.5
t5 -7q2 -3 17.5 -25.5t20 -28t18.5 -23.5t22 -27t21 -21.5t25 -21.5q5 -3 16 -9.5t17.5 -10t16 -8t19 -7t19.5 -2.5q25 0 76.5 -2.5t77.5 -2.5q30 217 30 522q8 33 8 80q0 14 -1 41.5t-1 83.5z" />
    <glyph glyph-name="asciicircum" unicode="^" horiz-adv-x="750" 
d="M-3 1478q142 95 189 133t136 95q109 -62 182.5 -109.5t165.5 -93.5l-96 -27q-76 52 -217 68l-34 4q-152 -6 -213 -55z" />
    <glyph glyph-name="underscore" unicode="_" horiz-adv-x="1006" 
d="M17 -285q-6 21 -13 56.5t-7 58.5l8 162q0 4 9 4q22 0 92 -1t90 -3t54 -2q64 0 191.5 -1.5t177.5 -1.5q30 5 81 6q44 1 62 1h60q18 0 54 4q60 -5 123 -9l-5 -241q0 -4 -1 -9t-3 -8.5t-4.5 -7t-6.5 -3.5t-9 2q-25 13 -99 14t-142.5 6.5t-89.5 5.5q-6 0 -6 -1
q-35 0 -46.5 -1.5t-76.5 -1.5q-114 0 -141.5 -1t-54.5 -4t-80 -3.5t-82 -6.5q-31 -6 -70.5 -7.5t-64.5 -6.5z" />
    <glyph glyph-name="grave" unicode="`" horiz-adv-x="750" 
d="M92 1470q-70 7 -85 34q-10 37 -10 89l2 22q15 45 95 76q70 -2 157 -25q154 -51 319 -128q32 -11 49 -38l17 -27l-27 -7q-86 40 -227 56l-34 4q-100 -1 -142 -28q-42 -28 -114 -28z" />
    <glyph glyph-name="a" unicode="a" 
d="M535 1182h19q16 0 30 -225l66 -480q72 -295 147 -402q15 0 30 -49l-408 -54l-5 18q91 118 91 280v121h-116l-67 7q-24 -7 -24 -43q0 -115 91 -194v-7l-24 -12q-365 8 -365 36q113 136 176 323q79 239 79 437v19q0 45 -103 103q-30 0 -30 18q30 27 413 104zM419 793
l-85 -255v-7h12l134 7v5q-30 177 -54 250h-7z" />
    <glyph glyph-name="b" unicode="b" 
d="M71 1114h67q275 -16 486 -139q67 -56 67 -104v-12q0 -70 -139 -201v-5q164 -64 164 -134v-13q0 -85 -213 -285q-136 -85 -420 -134l-6 19q73 92 73 261q-20 663 -85 663q0 16 -67 67q22 17 73 17zM314 750v-61h18q159 38 159 158v12q-21 55 -67 55h-24q-68 0 -68 -30
q-18 -54 -18 -134zM314 562v-116q0 -85 30 -85l37 -7q105 0 152 147v5q0 45 -97 61h-19z" />
    <glyph glyph-name="c" unicode="c" horiz-adv-x="700" 
d="M604 1108h6l6 -30v-55q0 -261 -24 -261h-6q-123 109 -213 109q-207 0 -207 -231q0 -298 213 -298q136 0 219 140h6l12 -18v-110q0 -158 -36 -158l-268 -61q-144 0 -286 268q-24 96 -24 158q0 277 61 329q102 116 261 176l24 6h43l97 -30q33 0 116 66z" />
    <glyph glyph-name="d" unicode="d" 
d="M21 1068q376 -36 444 -85q133 -30 231 -201q37 -120 37 -231q0 -225 -311 -370q-87 -37 -413 -73l-6 6v6q128 136 128 279v231q0 261 -128 420zM295 618v-18q0 -274 73 -274l18 -5h19q133 53 133 230v19q-33 292 -133 292h-44q-40 0 -54 -98z" />
    <glyph glyph-name="e" unicode="e" horiz-adv-x="880" 
d="M732 1098h6q34 0 48 -346v-6h-18q-106 133 -225 133l-170 7q-37 -24 -37 -152v-37l19 -18q89 0 188 97q25 -107 25 -286v-30h-12q-167 73 -196 73h-17q-19 -66 -19 -127v-61q0 -19 116 -25q231 0 231 55l79 79q18 -36 18 -128v-164l-12 -12l-639 -18l-5 -6h-7l-5 6h-7
l-79 -13l-6 19q140 216 140 437q0 265 -134 469l-12 30h6l584 -48q54 8 140 72z" />
    <glyph glyph-name="f" unicode="f" horiz-adv-x="680" 
d="M579 1133q10 0 18 -225l-6 -6h-6q-72 48 -158 48q-152 0 -152 -24v-67q0 -45 18 -109q55 0 158 97h6l18 -18v-231l-6 -92h-12q-115 133 -170 146v-6l-6 -121q0 -219 72 -341l19 -18v-6q0 -27 -340 -42l-7 -7l-6 7v5q104 198 104 456q0 224 -79 451q-49 50 -49 72l18 6
l335 -18q109 0 231 43z" />
    <glyph glyph-name="g" unicode="g" horiz-adv-x="920" 
d="M369 1133q43 0 279 -67h25q48 0 127 67q12 0 12 -19q-55 -235 -121 -292q-127 122 -298 122q-193 0 -225 -122l-6 -24q30 -204 116 -371q106 -164 164 -164q112 0 146 159v5q0 77 -122 164v7q4 18 42 18l323 12l6 -6v-6q-32 -279 -85 -353q-95 -140 -310 -140l-67 -5
q-309 0 -365 412l-12 250q0 227 310 346z" />
    <glyph glyph-name="h" unicode="h" horiz-adv-x="960" 
d="M858 1291l5 -5v-7q-140 -116 -140 -304v-109l-5 -49l5 -67v-280q0 -260 183 -364v-12h-6l-456 -49l-6 6v12q121 116 121 371l-12 213h-91q-146 -4 -146 -18q0 -199 122 -383l24 -31v-6l-12 -12l-122 12h-292l-12 13v5q85 55 85 110q55 115 55 297q0 301 -158 475v12
q0 15 395 43h37l6 -6h6q-128 -240 -128 -359v-13l30 -5h7q170 0 194 30v12q0 302 -109 395q-12 0 -36 43v12l72 6z" />
    <glyph glyph-name="i" unicode="i" horiz-adv-x="440" 
d="M155 1187h12q122 0 164 -115v-86q-69 -103 -128 -103h-61q-111 0 -134 159q36 145 147 145zM64 810h255q36 -4 36 -18q-85 -174 -85 -194v-85q0 -93 110 -231v-19l-7 -6v-6l-194 -6h-213v12q140 77 140 261q0 186 -98 262l-5 24z" />
    <glyph glyph-name="j" unicode="j" horiz-adv-x="920" 
d="M834 1172l30 -6v-6q-13 -26 -127 -91q-49 -23 -49 -432l-6 -91l6 -6v-6q0 -186 -213 -384l-67 -18q-407 117 -407 243v13q0 106 110 267q74 43 133 43h7q108 0 108 -85q0 -69 -48 -128q-37 67 -79 67q-55 0 -55 -79q40 -183 182 -183h13q122 0 122 316v92q0 326 -195 432
v12q0 30 535 30z" />
    <glyph glyph-name="k" unicode="k" horiz-adv-x="960" 
d="M82 1060l43 -6h206q45 0 49 -18q-79 -173 -79 -298h6q158 92 158 249q0 49 25 49q316 -23 316 -49q-47 -20 -231 -207l-134 -122q310 -115 310 -230l6 -6l-30 -164q0 -44 145 -122v-18q-85 -92 -188 -92h-6q-112 0 -127 176q-41 329 -116 329q-56 43 -146 43v-85
q0 -147 122 -323l-37 -12h-6l-359 -36l-12 18q134 102 134 438l-6 79v140q-30 218 -79 218l-19 25v6q0 12 55 12v6z" />
    <glyph glyph-name="l" unicode="l" 
d="M1 1246h176q390 0 390 -24q0 -18 -56 -24q-176 -84 -176 -292v-43l-6 -5l37 -524h6q167 0 200 37l122 152q17 0 30 -359l-17 -12q-392 -12 -560 -30h-73l-12 12v12q109 152 109 286v346q0 358 -146 438q-24 10 -24 18v12z" />
    <glyph glyph-name="m" unicode="m" horiz-adv-x="1160" 
d="M44 1009h353q17 0 103 -274l56 -133h5l147 400l5 7h359l43 -7v-5q-159 -139 -159 -262q-16 -13 -24 -189q0 -290 164 -388v-7q0 -12 -18 -12q-395 25 -395 55q97 68 97 231l-12 213h-6q-122 -253 -122 -274q4 -38 31 -73q0 -21 -110 -49h-12q-77 14 -121 56q20 32 36 96
l-109 244h-7l-12 -225q0 -138 80 -201l18 -24q0 -22 -408 -49l-6 7v12q164 96 164 395q0 308 -164 419l-18 25v5z" />
    <glyph glyph-name="n" unicode="n" horiz-adv-x="960" 
d="M460 1218q413 -8 413 -42q-91 -142 -91 -213q-24 -117 -24 -279q0 -421 79 -493l49 -61v-12l-280 -48q-30 0 -49 128q-61 166 -206 468h-7l-12 -225q0 -139 80 -201l18 -25q0 -22 -408 -48l-6 6v12q164 96 164 395q0 308 -164 420l-18 24v6l42 6h353q17 0 103 -274
q100 -241 116 -255l6 134q0 453 -176 547l-6 6v19z" />
    <glyph glyph-name="o.001" horiz-adv-x="750" 
d="M390 964h24q162 0 225 -177q25 -83 25 -152v-66l5 -55q0 -145 -201 -219l-72 -13q-125 0 -213 98q-73 94 -73 250v36q0 190 206 285zM292 642q14 -201 98 -201h12q108 0 127 213v6q0 146 -109 146q-97 0 -128 -152v-12z" />
    <glyph glyph-name="p" unicode="p" horiz-adv-x="840" 
d="M13 1136q435 -30 505 -67q113 -32 152 -103q91 -143 91 -237v-13q0 -143 -389 -243q-25 0 -25 -12q0 -196 98 -304v-6q-4 -18 -49 -18h-267q-67 0 -67 18q97 35 97 207l6 145v304q0 130 -164 317zM342 643l24 -12q194 44 194 164q0 102 -133 122h-19q-61 0 -61 -158z" />
    <glyph glyph-name="q" unicode="q" horiz-adv-x="840" 
d="M349 1150h43q205 -63 310 -207q49 -45 49 -322q0 -133 -91 -267q-17 0 -67 -73q-85 -55 -85 -67q0 -51 109 -68q109 13 109 80q13 0 13 42v43l12 12q98 -50 134 -164v-18q0 -103 -268 -195l-48 -6q-96 34 -220 250l-5 5q-6 11 -104 37q-77 35 -188 194q-49 111 -49 213
q0 276 61 328q102 118 261 177zM167 718q25 -237 67 -237q0 83 127 121v-5l44 -152l17 -19q70 0 147 122l18 164q0 170 -122 213q-32 18 -97 18q-95 0 -183 -109z" />
    <glyph glyph-name="r" unicode="r" 
d="M14 1213q486 -68 486 -122q177 -117 177 -273q0 -56 -158 -213q85 -95 85 -262q85 -291 104 -297q41 -31 78 -31h18q80 0 110 98q0 61 18 61q116 -88 116 -201q0 -67 -195 -134q-55 -25 -133 -25q-104 0 -244 390q-73 270 -121 316q-31 18 -61 18l-6 -6q0 -188 91 -310
l-6 -6v-6l-85 6l-256 -37l-12 12q65 67 104 414l6 91v55q0 136 -128 443v7zM269 994v-104l13 -164v-18l12 -12q158 53 158 158q-28 152 -109 152z" />
    <glyph glyph-name="s" unicode="s" horiz-adv-x="760" 
d="M658 1158l7 -36q0 -134 -31 -244q-109 104 -188 104h-48q-110 -17 -110 -104q33 -28 310 -170q85 -80 85 -140v-24q0 -186 -213 -365q-78 -42 -109 -42h-7q-144 0 -291 273q-67 59 -67 97q82 19 365 19h6v-12q-79 -76 -79 -110v-6q10 -67 66 -67h25q97 0 97 207v18
q0 57 -182 67q-219 29 -219 207v12q0 148 213 273q30 19 79 19h24l98 -31q41 0 169 55z" />
    <glyph glyph-name="t" unicode="t" horiz-adv-x="920" 
d="M814 1164q25 0 31 -353l6 -24q-8 -30 -18 -30q-101 164 -304 164l-36 -7v-36q0 -565 42 -565q97 -130 97 -152h-109l-286 -31l-6 19q79 112 79 273l-24 480l-24 19h-19q-103 0 -189 -134l-17 -6q-27 15 -31 273l-6 7l6 5l164 7h268q340 0 340 42z" />
    <glyph glyph-name="u" unicode="u" horiz-adv-x="840" 
d="M412 1246l378 -18v-18q-98 -64 -98 -256q-10 -662 -49 -662q-36 -82 -157 -134l-122 -24q-213 101 -213 486q-26 317 -73 317l-85 103l389 30v-6q-77 -134 -79 -176q18 -535 67 -535l30 -7q116 13 116 92l12 116q0 532 -103 650l-30 24z" />
    <glyph glyph-name="v" unicode="v" horiz-adv-x="1040" 
d="M606 949l414 -12v-7q-250 -252 -286 -371l-231 -425h-6q-52 54 -122 195q-148 350 -365 559q-42 26 -42 36v6h6l420 12v-12q-80 -69 -80 -133q0 -67 164 -359h31q22 0 177 352v12q0 57 -92 135z" />
    <glyph glyph-name="w" unicode="w" horiz-adv-x="1280" 
d="M838 1238l273 -13h128l12 -12q-187 -189 -224 -414q-68 -246 -68 -365q0 -150 56 -236v-7q0 -30 -365 -97l-7 6v6q37 96 37 128q0 118 -91 328h-6q-92 -143 -92 -340l25 -67v-6q0 -20 -268 -67h-49l-12 24q37 146 37 347q0 199 -201 401l-30 43v12h6q236 30 426 30
l12 -18q-78 -47 -86 -267l19 -140h12q145 365 195 596l12 12q22 -14 152 -456l61 -110h5q68 318 68 456q0 140 -55 219z" />
    <glyph glyph-name="x" unicode="x" horiz-adv-x="1040" 
d="M581 1183h6l389 -127l6 -6v-6q-205 -82 -395 -432v-6q134 -228 218 -316q13 0 86 -92q42 -16 42 -30q0 -20 -212 -42v6l-7 -6h-5l-7 6l-37 -13h-5l-7 7l-66 -12v5l-6 -5h-7l-12 12l19 84v19q-40 219 -73 219h-7q-54 -150 -54 -194v-56l18 -66l-18 -13l-6 7l-6 -7h-6l-7 7
l-5 -7h-12l-7 7l-6 -7q-310 20 -310 31q0 16 127 146q122 151 196 310v12q-207 331 -402 389v7q11 12 219 84q97 52 164 68h6v-7q-24 -65 -24 -103q0 -110 128 -286q103 256 103 328z" />
    <glyph glyph-name="y" unicode="y" horiz-adv-x="1120" 
d="M541 1148h7l473 -12l7 -6v-19q-69 -37 -122 -85q-166 -187 -310 -516v-140q0 -122 128 -176l12 -19q0 -16 -396 -79q0 -12 -42 -12h-30l-12 12q170 122 170 255q0 119 -250 463q-85 100 -182 152v12l182 12l7 -6h5l25 6l79 -6l109 6h7q18 0 18 -24q-37 -64 -37 -104
q0 -80 110 -188q164 217 164 310q0 41 -122 158v6z" />
    <glyph glyph-name="z" unicode="z" horiz-adv-x="1000" 
d="M136 1078h6q90 -68 134 -68h182l54 7l7 -7h6l158 7h12l231 -7l79 13l7 -6q-33 -99 -159 -207l-425 -499v-5h103q273 0 273 48l86 85q18 -36 18 -128v-157l-12 -12l-608 -13h-158l-55 -6l-6 6h-6l-7 -6h-5l-19 6l-18 -6l-12 19q0 32 128 121q491 526 498 559l6 36l-12 13
h-42q-372 -9 -402 -67l-73 -79h-18v6q13 347 49 347z" />
    <glyph glyph-name="braceleft" unicode="{" horiz-adv-x="850" 
d="M405 419q10 -316 138 -316h8q70 0 174 175h7l16 -23v-137q0 -198 -46 -198q-77 -58 -214 -76q-221 60 -288 335q-30 120 -30 197l-6 124q-12 37 -31 70q-10 68 -60 101l-23 29h-1q-2 0 -16 -9.5t-25 -15.5q-25 -13 -33 -13q-5 0 -5 4q5 24 7 72q8 104 10 139q2 17 18 18
h19l25 -1q44 0 66 39q26 47 35 89v77q0 293 56 378q58 166 197 220l30 8h53l122 -38q41 0 134 83h8l8 -38v-68q0 -327 -31 -327h-7q-144 137 -256 137q-109 -20 -109 -309l-2 -55q-13 -114 -62 -200q-50 -88 -113 -120l128 -76q89 -100 97 -194z" />
    <glyph glyph-name="bar" unicode="|" horiz-adv-x="525" 
d="M311 734q0 -14 4 -41.5t4 -41.5q-10 -67 -12 -210q0 -285 20 -372q26 -80 93 -121q2 -55 7 -89q2 -15 3 -30q0 -18 -4 -39q-84 0 -101 4t-101 4q-29 0 -84.5 -8t-83.5 -8q-12 0 -35 -1t-35 -1q4 123 32 190.5t28 79.5l50 619v172l-20 599q0 12 -28 79.5t-36 96.5
q-4 11 -4 28q0 26 8 66q159 -8 188 -8q84 0 212 -22q4 -21 4 -39q-1 -15 -3 -30q-5 -34 -34.5 -92t-55.5 -58q-18 -130 -18 -292q0 -108 8 -230q-8 -33 -8 -80q0 -14 1 -41.5t1 -83.5z" />
    <glyph glyph-name="braceright" unicode="}" horiz-adv-x="850" 
d="M325 500q8 94 97 194l128 76q-63 32 -113 120q-49 86 -62 200l-2 55q0 289 -109 309q-112 0 -256 -137h-7q-31 0 -31 327v68l8 38h8q93 -83 134 -83l122 38h53l30 -8q139 -54 197 -220q56 -85 56 -378v-77q9 -42 35 -89q22 -39 66 -39l25 1h19q16 -1 18 -18
q2 -35 10 -139q2 -48 7 -72q0 -4 -5 -4q-8 0 -33 13q-11 6 -25 15.5t-16 9.5h-1l-23 -29q-50 -33 -60 -101q-19 -33 -31 -70l-6 -124q0 -77 -30 -197q-67 -275 -288 -335q-137 18 -214 76q-46 0 -46 198v137l16 23h7q104 -175 174 -175h8q128 0 138 316z" />
    <glyph glyph-name="asciitilde" unicode="~" horiz-adv-x="750" 
d="M-3 1478q78 122 138 169.5t187 58.5q99 -12 143 -54q13 -14 33 -14q41 0 107 62l95 -50q-110 -138 -236 -138q-14 0 -27 2l-44 24q-59 48 -118 48q-83 0 -165 -93z" />
    <glyph glyph-name="exclamdown" unicode="&#xa1;" horiz-adv-x="400" 
d="M328 24q-25 -14 -89 -14t-128 -6q-27 -4 -51 -4q-76 0 -106 30q-1 3 -1 9q0 15 17 50.5t34 69.5t17 46v558q14 13 27.5 15.5t36.5 2.5q22 0 45 7q11 0 31 2t29 2q22 0 39 -9q7 -15 8.5 -89t5.5 -171t17 -156zM177 925q-15 -5 -32 -5q-27 0 -52.5 12t-46.5 32q-1 2 -7 10
t-9 12.5t-6.5 11t-5 13.5t-1.5 14q0 6 -0.5 18t-0.5 17q0 21 2 32q9 17 18.5 31t22 28t27.5 22q12 7 32 8q5 0 16.5 0.5t16.5 0.5q35 -2 48 -10q30 -16 50 -44.5t20 -60.5q0 -49 -25.5 -90t-66.5 -52z" />
    <glyph glyph-name="cent" unicode="&#xa2;" horiz-adv-x="721" 
d="M257 1037q-16 131 -94 193l-6 24l61 6h255q36 -4 36 -18q-68 -141 -81 -181l60 -19q33 0 116 66h6l6 -30v-55q0 -261 -24 -261h-6q-123 109 -213 109q-207 0 -207 -231q0 -298 213 -298q136 0 219 140h6l12 -18v-110q0 -158 -36 -158l-149 -34q19 -79 103 -185v-19l-6 -6
v-6l-195 -6h-213v12q113 62 135 194q-115 42 -229 257q-24 96 -24 158q0 277 61 329q80 91 194 147z" />
    <glyph glyph-name="sterling" unicode="&#xa3;" horiz-adv-x="1150" 
d="M511 1233l61 8q42 0 280 -84h25q48 0 127 84q12 0 12 -23q-55 -294 -122 -365q-127 152 -298 152q-134 0 -165 -152l-7 -150h-4v-7l23 -22q112 0 235 121q31 -134 31 -357v-38h-15q-208 91 -244 91h-22q-23 -82 -23 -159v-76q0 -23 144 -31q289 0 289 69l99 98
q23 -45 23 -159v-205l-16 -16l-798 -22l-7 -8h-8l-7 8h-8l-99 -16l-7 23q159 246 173 498q-115 -11 -183 -45v300q82 -41 197 -82l3 32q8 388 311 533z" />
    <glyph glyph-name="currency" unicode="&#xa4;" horiz-adv-x="1300" 
d="M468 627q17 -251 122 -251h15q135 0 159 266v8q0 182 -136 182q-122 0 -160 -190v-15zM706 1018q43 128 43 180l-23 106h8l486 -159l8 -8v-7q-174 -70 -338 -292q6 -14 11 -29q31 -104 31 -190v-83l7 -69q0 -77 -45 -138q63 -90 113 -142q16 0 107 -114q53 -20 53 -38
q0 -25 -266 -53v8l-8 -8h-7l-8 8l-46 -16h-7l-8 8l-83 -15v7l-8 -7h-8l-15 15l23 106v23q-9 50 -18 91l-20 -8l-91 -16q-17 0 -34 1q-4 -23 -4 -37v-69l23 -83l-23 -16l-8 8l-7 -8h-8l-8 8l-7 -8h-15l-8 8l-8 -8q-387 25 -387 38q0 20 159 183q39 49 75 99l-6 6
q-91 118 -91 312v45q0 121 67 211q-154 171 -303 216v8q14 16 274 106q121 65 205 84h7v-8q-30 -81 -30 -129q0 -59 30 -135l8 4l92 16h30q47 0 86 -12z" />
    <glyph glyph-name="yen" unicode="&#xa5;" horiz-adv-x="1400" 
d="M813 124q36 -34 91 -57l15 -23q0 -20 -494 -99q0 -15 -53 -15h-38l-15 15q131 94 182 193q-22 -4 -48 -11q-69 -18 -151 -27l-2 66v50q0 40 2 79q0 5 2 8q1 1 14 1q28 0 198 -13q6 -1 14 -1q-9 63 -61 165l-6 -2q-69 -18 -151 -27l-2 66v50q0 40 2 79q0 5 2 8q1 1 14 1
q10 0 39 -2q-62 97 -147 214q-107 125 -228 190v15l228 15l8 -7h7l31 7l98 -7l137 7h8q23 0 23 -30q-46 -80 -46 -129q0 -101 137 -236q205 272 205 388q0 51 -152 197v8h8l592 -15l8 -8v-23q-86 -46 -152 -106q-158 -178 -300 -460q79 12 88 14h6q7 0 10 -4v-190
q0 -3 -1 -7t-2.5 -7.5t-4 -6t-5.5 -2.5t-8 1q-104 4 -171 7v-142l12 2q142 20 154 23h6q7 0 10 -4v-190q0 -3 -1 -7t-2.5 -7.5t-4 -6t-5.5 -2.5t-8 1q-50 2 -92 4z" />
    <glyph glyph-name="brokenbar" unicode="&#xa6;" horiz-adv-x="525" 
d="M72 1700h319q45 -5 45 -23q-106 -218 -106 -243v-106q0 -116 137 -289v-23l-8 -8v-7l-243 -8h-266v15q175 96 175 327q0 232 -122 327l-7 30zM72 457h319q45 -5 45 -23q-106 -218 -106 -243v-106q0 -116 137 -289v-23l-8 -8v-7l-243 -8h-266v15q175 96 175 327
q0 232 -122 327l-7 30z" />
    <glyph glyph-name="section" unicode="&#xa7;" horiz-adv-x="950" 
d="M338 627q17 -251 122 -251h15q135 0 159 266v8q0 182 -136 182q-122 0 -160 -190v-15zM574 200l-16 -6l-91 -16q-57 0 -107 16v-1q12 -108 83 -108h31q71 0 100 115zM119 743q-25 65 -25 153v19q0 242 266 445q37 30 99 30h30l122 -49q52 0 212 88l8 -59q0 -217 -38 -395
q-137 168 -236 168h-60q-118 -24 -134 -132q2 2 5 3l92 16h30q203 0 281 -221q30 -102 31 -187q52 -84 52 -152v-39q0 -302 -266 -593q-98 -69 -137 -69h-8q-180 0 -364 445q-84 95 -84 157q49 14 153 22q-38 93 -38 219v45q0 45 9 86z" />
    <glyph glyph-name="dieresis" unicode="&#xa8;" horiz-adv-x="850" 
d="M121 1694q20 6 41 6q33 0 66.5 -15t58.5 -39q2 -4 10 -14.5t11 -15.5t8.5 -14.5t7.5 -18t2 -17.5v-44q0 -24 -2 -40q-10 -18 -18.5 -33t-21.5 -31t-25.5 -26t-28.5 -17.5t-33 -7.5q-7 0 -21 -0.5t-22 -0.5q-38 0 -62 13q-37 21 -62.5 57t-25.5 77q0 30 8 59.5t23 54
t37 42.5t49 25zM521 1694q20 6 41 6q33 0 66.5 -15t58.5 -39q2 -4 10 -14.5t11 -15.5t8.5 -14.5t7.5 -18t2 -17.5v-44q0 -24 -2 -40q-10 -18 -18.5 -33t-21.5 -31t-25.5 -26t-28.5 -17.5t-33 -7.5q-7 0 -21 -0.5t-22 -0.5q-38 0 -62 13q-37 21 -62.5 57t-25.5 77
q0 30 8 59.5t23 54t37 42.5t49 25z" />
    <glyph glyph-name="copyright" unicode="&#xa9;" 
d="M473 1118h3l3 -15v-27q0 -131 -12 -131h-3q-62 55 -106 55q-104 0 -104 -116q0 -149 106 -149q68 0 110 70h3l6 -9v-55q0 -79 -18 -79l-134 -30q-72 0 -143 134q-12 48 -12 78q0 139 30 165q52 58 131 88l12 3h21l49 -15q17 0 58 33zM350 1200q-104 0 -177 -95t-73 -230
t73 -230t177 -95t177 95t73 230t-73 230t-177 95zM700 875q0 -176 -102.5 -300.5t-247.5 -124.5t-247.5 124.5t-102.5 300.5t102.5 300.5t247.5 124.5t247.5 -124.5t102.5 -300.5z" />
    <glyph glyph-name="ordfeminine" unicode="&#xaa;" horiz-adv-x="1650" 
d="M0 200v1100q0 200 200 200h1100q200 0 200 -200v-1100q0 -200 -200 -200h-1100q-200 0 -200 200zM1475 201v1099q0 175 -175 175h-1100q-174 0 -175 -175v-1100q1 -175 175 -175h1101q174 0 174 176z" />
    <glyph glyph-name="guillemotleft" unicode="&#xab;" horiz-adv-x="944" 
d="M174 479l342 303h14v-37l-205 -266l205 -266v-37h-14zM487 479l342 303h14v-37l-205 -266l205 -266v-37h-14z" />
    <glyph glyph-name="logicalnot" unicode="&#xac;" horiz-adv-x="1650" 
d="M0 200v1100q0 200 200 200h1100q200 0 200 -200v-1100q0 -200 -200 -200h-1100q-200 0 -200 200zM1475 201v1099q0 175 -175 175h-1100q-174 0 -175 -175v-1100q1 -175 175 -175h1101q174 0 174 176z" />
    <glyph glyph-name="registered" unicode="&#xae;" 
d="M326 1034v-52l6 -82v-10l6 -6q79 27 79 80q-14 76 -55 76zM516 632q6 6 11 13q73 95 73 230t-73 230t-177 95q-81 0 -144 -58q235 -33 235 -60q89 -59 89 -137q0 -27 -80 -106q43 -48 43 -131q13 -45 23 -76zM452 577q-11 28 -23 61q-37 136 -61 158q-15 10 -30 10l-3 -4
q0 -94 45 -155l-2 -3v-3l-43 3l-128 -18l-6 6q33 33 52 207l3 45v28q0 67 -62 218q-11 -12 -21 -25q-73 -95 -73 -230t73 -230t177 -95q56 0 102 27zM572 546q6 -2 12 -2h9q40 0 55 49q0 30 9 30q58 -43 58 -100q0 -33 -97 -67q-28 -12 -67 -12q-25 0 -54 44
q-67 -38 -147 -38q-145 0 -247.5 124.5t-102.5 300.5t102.5 300.5t247.5 124.5t247.5 -124.5t102.5 -300.5t-102 -300q-13 -16 -26 -29z" />
    <glyph glyph-name="macron" unicode="&#xaf;" horiz-adv-x="1650" 
d="M0 200v1100q0 200 200 200h1100q200 0 200 -200v-1100q0 -200 -200 -200h-1100q-200 0 -200 200zM1475 201v1099q0 175 -175 175h-1100q-174 0 -175 -175v-1100q1 -175 175 -175h1101q174 0 174 176z" />
    <glyph glyph-name="degree" unicode="&#xb0;" horiz-adv-x="674" 
d="M339 1372q-86 0 -147.5 -61t-61.5 -148t61 -147t148 -60t147 60t60 147t-60.5 148t-146.5 61zM339 1442q115 0 196 -81.5t81 -196.5q0 -114 -82 -196t-197 -82q-117 0 -197 81t-80 197t81.5 197t197.5 81z" />
    <glyph glyph-name="plusminus" unicode="&#xb1;" horiz-adv-x="1650" 
d="M0 200v1100q0 200 200 200h1100q200 0 200 -200v-1100q0 -200 -200 -200h-1100q-200 0 -200 200zM1475 201v1099q0 175 -175 175h-1100q-174 0 -175 -175v-1100q1 -175 175 -175h1101q174 0 174 176z" />
    <glyph glyph-name="uni00B2" unicode="&#xb2;" horiz-adv-x="1650" 
d="M0 200v1100q0 200 200 200h1100q200 0 200 -200v-1100q0 -200 -200 -200h-1100q-200 0 -200 200zM1475 201v1099q0 175 -175 175h-1100q-174 0 -175 -175v-1100q1 -175 175 -175h1101q174 0 174 176z" />
    <glyph glyph-name="uni00B3" unicode="&#xb3;" horiz-adv-x="1650" 
d="M0 200v1100q0 200 200 200h1100q200 0 200 -200v-1100q0 -200 -200 -200h-1100q-200 0 -200 200zM1475 201v1099q0 175 -175 175h-1100q-174 0 -175 -175v-1100q1 -175 175 -175h1101q174 0 174 176z" />
    <glyph glyph-name="acute" unicode="&#xb4;" horiz-adv-x="750" 
d="M427 1498q-42 27 -142 28l-34 -4q-141 -16 -227 -56l-27 7l17 27q17 27 49 38q165 77 319 128q87 23 157 25q80 -31 95 -76l2 -22q0 -52 -10 -89q-15 -27 -85 -34q-72 0 -114 28z" />
    <glyph glyph-name="mu" unicode="&#xb5;" horiz-adv-x="1050" 
d="M189 600q-33 396 -92 396l-106 129l486 38v-8q-96 -167 -98 -220q22 -669 83 -669l38 -8q145 16 145 114l15 145q0 665 -129 813l-38 30l22 23l472 -23v-22q-122 -80 -122 -320q-13 -828 -61 -828q-46 -103 -197 -167l-144 -29v-9q0 -116 137 -289v-23l-8 -8v-7l-243 -8
h-266v15q175 96 175 327q0 232 -53 365q-16 107 -16 243z" />
    <glyph glyph-name="paragraph" unicode="&#xb6;" horiz-adv-x="1024" 
d="M929 1435v-70h-127v-1365h-82v1365h-166v-1365h-84v738q-174 8 -275.5 102.5t-101.5 245.5q0 157 107.5 253t285.5 96h443z" />
    <glyph glyph-name="periodcentered" unicode="&#xb7;" horiz-adv-x="450" 
d="M149 773q20 6 41 6q33 0 66.5 -15t58.5 -39q2 -4 10 -14.5t11 -15.5t8.5 -14.5t7.5 -18t2 -17.5v-44q0 -24 -2 -40q-10 -18 -18.5 -33t-21.5 -31t-25.5 -26t-28.5 -17.5t-33 -7.5q-7 0 -21 -0.5t-22 -0.5q-38 0 -62 13q-37 21 -62.5 57t-25.5 77q0 30 8 59.5t23 54
t37 42.5t49 25z" />
    <glyph glyph-name="periodcentered" unicode="&#x2219;" horiz-adv-x="450" 
d="M149 773q20 6 41 6q33 0 66.5 -15t58.5 -39q2 -4 10 -14.5t11 -15.5t8.5 -14.5t7.5 -18t2 -17.5v-44q0 -24 -2 -40q-10 -18 -18.5 -33t-21.5 -31t-25.5 -26t-28.5 -17.5t-33 -7.5q-7 0 -21 -0.5t-22 -0.5q-38 0 -62 13q-37 21 -62.5 57t-25.5 77q0 30 8 59.5t23 54
t37 42.5t49 25z" />
    <glyph glyph-name="cedilla" unicode="&#xb8;" horiz-adv-x="750" 
d="M637 89l-6 -181l6 -6v-6q0 -246 -273 -344l-87 2q-267 57 -277 193v13q0 56 60 207q74 43 133 43h7q108 0 108 -85q0 -69 -48 -128q-37 67 -79 67q-55 0 -55 -79q8 -77 126 -77q26 0 56 4h13q122 0 122 256v182z" />
    <glyph glyph-name="uni00B9" unicode="&#xb9;" horiz-adv-x="1650" 
d="M0 200v1100q0 200 200 200h1100q200 0 200 -200v-1100q0 -200 -200 -200h-1100q-200 0 -200 200zM1475 201v1099q0 175 -175 175h-1100q-174 0 -175 -175v-1100q1 -175 175 -175h1101q174 0 174 176z" />
    <glyph glyph-name="ordmasculine" unicode="&#xba;" horiz-adv-x="1650" 
d="M0 200v1100q0 200 200 200h1100q200 0 200 -200v-1100q0 -200 -200 -200h-1100q-200 0 -200 200zM1475 201v1099q0 175 -175 175h-1100q-174 0 -175 -175v-1100q1 -175 175 -175h1101q174 0 174 176z" />
    <glyph glyph-name="guillemotright" unicode="&#xbb;" horiz-adv-x="944" 
d="M115 176h-14v37l205 266l-205 266v37h14l342 -303zM428 176h-14v37l205 266l-205 266v37h14l342 -303z" />
    <glyph glyph-name="onequarter" unicode="&#xbc;" horiz-adv-x="1650" 
d="M0 200v1100q0 200 200 200h1100q200 0 200 -200v-1100q0 -200 -200 -200h-1100q-200 0 -200 200zM1475 201v1099q0 175 -175 175h-1100q-174 0 -175 -175v-1100q1 -175 175 -175h1101q174 0 174 176z" />
    <glyph glyph-name="onehalf" unicode="&#xbd;" horiz-adv-x="1650" 
d="M0 200v1100q0 200 200 200h1100q200 0 200 -200v-1100q0 -200 -200 -200h-1100q-200 0 -200 200zM1475 201v1099q0 175 -175 175h-1100q-174 0 -175 -175v-1100q1 -175 175 -175h1101q174 0 174 176z" />
    <glyph glyph-name="threequarters" unicode="&#xbe;" horiz-adv-x="1650" 
d="M0 200v1100q0 200 200 200h1100q200 0 200 -200v-1100q0 -200 -200 -200h-1100q-200 0 -200 200zM1475 201v1099q0 175 -175 175h-1100q-174 0 -175 -175v-1100q1 -175 175 -175h1101q174 0 174 176z" />
    <glyph glyph-name="questiondown" unicode="&#xbf;" horiz-adv-x="775" 
d="M373 890v1q12 0 32.5 5.5t36.5 5.5q7 0 14 -1q-2 -2 -4 -4.5t-2.5 -4t-1.5 -3t-1.5 -2t-0.5 -1.5v-1q-15 -67 -15 -68q-1 -10 -5 -87q-8 -43 -14 -61q-10 -30 -37 -62q-29 -36 -109 -107l-36 -125q-7 -26 -7 -40q0 -7 4 -25.5t4 -38.5q0 -27 14 -50.5t38 -33.5
q15 -5 23 -7.5t21 -5t24 -2.5h8q23 3 38.5 5t32 6t27 9.5t21.5 13.5t18 18.5t12 25.5q6 28 6 47q0 38 -18 70q-6 12 -20 17.5t-30 5.5q-15 0 -27 -4.5t-18 -13.5q-7 20 -7 46q0 28 7 53t20 39q4 5 9 8.5t12.5 6.5t13.5 5.5t15 5t14 3.5t15 3.5l14 3.5h5q24 0 46 -10
t38.5 -26.5t30.5 -39t23.5 -46t16.5 -49.5q5 -27 5 -60q0 -63 -17 -114q-8 -20 -32 -51t-50 -57t-46 -42q-16 -6 -40 -15.5t-35 -14t-30 -10.5t-33 -8.5t-34 -4.5t-44 -2q-48 0 -92 11.5t-78 39.5q-28 18 -55.5 44t-46.5 52q-15 20 -24.5 38t-14 35.5t-6 32.5t-1.5 35
q0 9 0.5 28t0.5 31v14q0 37 14.5 83.5t37.5 85t45 54.5q10 9 23.5 20.5t22 18.5t19.5 17.5t17 20.5t13.5 24t11 29t6 66t2.5 77v50q56 -8 75 -13h85zM382 976q-20 -9 -43 -9q-25 0 -49.5 10t-44.5 26q-2 3 -8 9.5t-8.5 9.5t-6.5 9.5t-6.5 11t-4.5 10.5t-3 12q-5 35 -5 58v10
q37 87 95 102q33 4 47 4q21 0 38 -7q30 -13 52.5 -40.5t28.5 -60.5q2 -12 2 -24q0 -44 -23.5 -81t-60.5 -50z" />
    <glyph glyph-name="Agrave" unicode="&#xc0;" horiz-adv-x="1000" 
d="M669 1302h23q20 0 38 -281l83 -600q89 -368 183 -502q19 0 38 -61l-510 -68l-7 23q114 147 114 349v152h-145l-83 8q-31 -8 -31 -53q0 -144 114 -243v-8l-30 -15q-456 9 -456 45q141 169 220 403q99 299 99 547v23q0 57 -129 129q-38 0 -38 23q38 33 517 129zM524 816
l-106 -319v-8h15l167 8v7q-38 221 -68 312h-8zM272 1470q-70 7 -85 34q-10 37 -10 89l2 22q15 45 95 76q70 -2 157 -25q154 -51 319 -128q32 -11 49 -38l17 -27l-27 -7q-86 40 -227 56l-34 4q-100 -1 -142 -28q-42 -28 -114 -28z" />
    <glyph glyph-name="Aacute" unicode="&#xc1;" horiz-adv-x="1000" 
d="M669 1302h23q20 0 38 -281l83 -600q89 -368 183 -502q19 0 38 -61l-510 -68l-7 23q114 147 114 349v152h-145l-83 8q-31 -8 -31 -53q0 -144 114 -243v-8l-30 -15q-456 9 -456 45q141 169 220 403q99 299 99 547v23q0 57 -129 129q-38 0 -38 23q38 33 517 129zM524 816
l-106 -319v-8h15l167 8v7q-38 221 -68 312h-8zM607 1498q-42 27 -142 28l-34 -4q-141 -16 -227 -56l-27 7l17 27q17 27 49 38q165 77 319 128q87 23 157 25q80 -31 95 -76l2 -22q0 -52 -10 -89q-15 -27 -85 -34q-72 0 -114 28z" />
    <glyph glyph-name="Acircumflex" unicode="&#xc2;" horiz-adv-x="1000" 
d="M669 1302h23q20 0 38 -281l83 -600q89 -368 183 -502q19 0 38 -61l-510 -68l-7 23q114 147 114 349v152h-145l-83 8q-31 -8 -31 -53q0 -144 114 -243v-8l-30 -15q-456 9 -456 45q141 169 220 403q99 299 99 547v23q0 57 -129 129q-38 0 -38 23q38 33 517 129zM524 816
l-106 -319v-8h15l167 8v7q-38 221 -68 312h-8zM157 1478q142 95 189 133t136 95q109 -62 182.5 -109.5t165.5 -93.5l-96 -27q-76 52 -217 68l-34 4q-152 -6 -213 -55z" />
    <glyph glyph-name="Atilde" unicode="&#xc3;" horiz-adv-x="1000" 
d="M669 1302h23q20 0 38 -281l83 -600q89 -368 183 -502q19 0 38 -61l-510 -68l-7 23q114 147 114 349v152h-145l-83 8q-31 -8 -31 -53q0 -144 114 -243v-8l-30 -15q-456 9 -456 45q141 169 220 403q99 299 99 547v23q0 57 -129 129q-38 0 -38 23q38 33 517 129zM524 816
l-106 -319v-8h15l167 8v7q-38 221 -68 312h-8zM147 1478q78 122 138 169.5t187 58.5q99 -12 143 -54q13 -14 33 -14q41 0 107 62l95 -50q-110 -138 -236 -138q-14 0 -27 2l-44 24q-59 48 -118 48q-83 0 -165 -93z" />
    <glyph glyph-name="Adieresis" unicode="&#xc4;" horiz-adv-x="1000" 
d="M669 1302h23q20 0 38 -281l83 -600q89 -368 183 -502q19 0 38 -61l-510 -68l-7 23q114 147 114 349v152h-145l-83 8q-31 -8 -31 -53q0 -144 114 -243v-8l-30 -15q-456 9 -456 45q141 169 220 403q99 299 99 547v23q0 57 -129 129q-38 0 -38 23q38 33 517 129zM524 816
l-106 -319v-8h15l167 8v7q-38 221 -68 312h-8zM251 1694q20 6 41 6q33 0 66.5 -15t58.5 -39q2 -4 10 -14.5t11 -15.5t8.5 -14.5t7.5 -18t2 -17.5v-44q0 -24 -2 -40q-10 -18 -18.5 -33t-21.5 -31t-25.5 -26t-28.5 -17.5t-33 -7.5q-7 0 -21 -0.5t-22 -0.5q-38 0 -62 13
q-37 21 -62.5 57t-25.5 77q0 30 8 59.5t23 54t37 42.5t49 25zM651 1694q20 6 41 6q33 0 66.5 -15t58.5 -39q2 -4 10 -14.5t11 -15.5t8.5 -14.5t7.5 -18t2 -17.5v-44q0 -24 -2 -40q-10 -18 -18.5 -33t-21.5 -31t-25.5 -26t-28.5 -17.5t-33 -7.5q-7 0 -21 -0.5t-22 -0.5
q-38 0 -62 13q-37 21 -62.5 57t-25.5 77q0 30 8 59.5t23 54t37 42.5t49 25z" />
    <glyph glyph-name="Aring" unicode="&#xc5;" horiz-adv-x="1000" 
d="M669 1302h23q20 0 38 -281l83 -600q89 -368 183 -502q19 0 38 -61l-510 -68l-7 23q114 147 114 349v152h-145l-83 8q-31 -8 -31 -53q0 -144 114 -243v-8l-30 -15q-456 9 -456 45q141 169 220 403q99 299 99 547v23q0 57 -129 129q-38 0 -38 23q38 33 517 129zM524 816
l-106 -319v-8h15l167 8v7q-38 221 -68 312h-8zM434 1836q28 8 57 8q45 0 91 -20.5t80 -53.5q3 -6 14 -20t15 -21t11.5 -20t10.5 -24.5t3 -24.5v-60q0 -33 -3 -55q-14 -25 -25.5 -45.5t-29.5 -42.5t-35 -35.5t-39 -24t-45 -10.5q-10 0 -29 -0.5t-30 -0.5q-52 0 -85 18
q-51 29 -86 78t-35 106q0 41 11 81.5t31.5 74t50.5 58t67 34.5zM400 1599q0 -25 15.5 -47t37.5 -34q14 -8 37 -8q5 0 13.5 0.5t12.5 0.5q11 0 20.5 4.5t17 10.5t15.5 15.5t13 18.5t11 20q1 10 1 24v26q0 6 -1 11t-4.5 11t-5.5 9t-6.5 9t-5.5 9q-16 14 -36 23t-40 9
q-12 0 -25 -3q-16 -5 -29 -15.5t-22 -25.5t-14 -32.5t-5 -35.5z" />
    <glyph glyph-name="AE" unicode="&#xc6;" horiz-adv-x="1600" 
d="M524 816l-106 -319v-8h15l167 8v7q-38 221 -68 312h-8zM631 152v162h-145l-83 8q-31 -8 -31 -53q0 -144 114 -243v-8l-30 -15q-456 9 -456 45q141 169 220 403q99 299 99 547v23q0 57 -129 129q-38 0 -38 23q38 33 517 129h23q13 0 25 -121l570 -48q68 11 175 91h8
q43 0 60 -433v-8h-22q-133 167 -282 167l-212 8q-46 -30 -46 -190v-46l23 -22q112 0 235 121q31 -134 31 -357v-38h-15q-208 91 -244 91h-22q-23 -82 -23 -159v-76q0 -23 144 -31q289 0 289 69l99 98q23 -45 23 -159v-205l-16 -16l-553 -15q28 -63 57 -104q19 0 38 -61
l-510 -68l-7 23q68 88 95 195z" />
    <glyph glyph-name="Ccedilla" unicode="&#xc7;" horiz-adv-x="875" 
d="M443 6l-53 -12q-181 0 -358 335q-30 120 -30 197q0 346 76 411q128 146 327 220l30 8h53l122 -38q41 0 144 83h8l8 -38v-68q0 -327 -31 -327h-7q-154 137 -266 137q-259 0 -259 -289q0 -372 266 -372q170 0 274 175h7l16 -23v-137q0 -198 -46 -198l-88 -20l-5 -142l6 -6
v-6q0 -246 -273 -344l-87 2q-267 57 -277 193v13q0 56 60 207q74 43 133 43h7q108 0 108 -85q0 -69 -48 -128q-37 67 -79 67q-55 0 -55 -79q8 -77 126 -77q26 0 56 4h13q122 0 122 256v38z" />
    <glyph glyph-name="Egrave" unicode="&#xc8;" horiz-adv-x="1100" 
d="M914 1198h8q43 0 60 -433v-8h-22q-133 167 -282 167l-212 8q-46 -30 -46 -190v-46l23 -22q112 0 235 121q31 -134 31 -357v-38h-15q-208 91 -244 91h-22q-23 -82 -23 -159v-76q0 -23 144 -31q289 0 289 69l99 98q23 -45 23 -159v-205l-16 -16l-798 -22l-7 -8h-8l-7 8h-8
l-99 -16l-7 23q174 270 174 547q0 331 -167 586l-15 38h8l729 -61q68 11 175 91zM272 1470q-70 7 -85 34q-10 37 -10 89l2 22q15 45 95 76q70 -2 157 -25q154 -51 319 -128q32 -11 49 -38l17 -27l-27 -7q-86 40 -227 56l-34 4q-100 -1 -142 -28q-42 -28 -114 -28z" />
    <glyph glyph-name="Eacute" unicode="&#xc9;" horiz-adv-x="1100" 
d="M914 1198h8q43 0 60 -433v-8h-22q-133 167 -282 167l-212 8q-46 -30 -46 -190v-46l23 -22q112 0 235 121q31 -134 31 -357v-38h-15q-208 91 -244 91h-22q-23 -82 -23 -159v-76q0 -23 144 -31q289 0 289 69l99 98q23 -45 23 -159v-205l-16 -16l-798 -22l-7 -8h-8l-7 8h-8
l-99 -16l-7 23q174 270 174 547q0 331 -167 586l-15 38h8l729 -61q68 11 175 91zM607 1498q-42 27 -142 28l-34 -4q-141 -16 -227 -56l-27 7l17 27q17 27 49 38q165 77 319 128q87 23 157 25q80 -31 95 -76l2 -22q0 -52 -10 -89q-15 -27 -85 -34q-72 0 -114 28z" />
    <glyph glyph-name="Ecircumflex" unicode="&#xca;" horiz-adv-x="1100" 
d="M914 1198h8q43 0 60 -433v-8h-22q-133 167 -282 167l-212 8q-46 -30 -46 -190v-46l23 -22q112 0 235 121q31 -134 31 -357v-38h-15q-208 91 -244 91h-22q-23 -82 -23 -159v-76q0 -23 144 -31q289 0 289 69l99 98q23 -45 23 -159v-205l-16 -16l-798 -22l-7 -8h-8l-7 8h-8
l-99 -16l-7 23q174 270 174 547q0 331 -167 586l-15 38h8l729 -61q68 11 175 91zM157 1478q142 95 189 133t136 95q109 -62 182.5 -109.5t165.5 -93.5l-96 -27q-76 52 -217 68l-34 4q-152 -6 -213 -55z" />
    <glyph glyph-name="Edieresis" unicode="&#xcb;" horiz-adv-x="1100" 
d="M914 1198h8q43 0 60 -433v-8h-22q-133 167 -282 167l-212 8q-46 -30 -46 -190v-46l23 -22q112 0 235 121q31 -134 31 -357v-38h-15q-208 91 -244 91h-22q-23 -82 -23 -159v-76q0 -23 144 -31q289 0 289 69l99 98q23 -45 23 -159v-205l-16 -16l-798 -22l-7 -8h-8l-7 8h-8
l-99 -16l-7 23q174 270 174 547q0 331 -167 586l-15 38h8l729 -61q68 11 175 91zM251 1694q20 6 41 6q33 0 66.5 -15t58.5 -39q2 -4 10 -14.5t11 -15.5t8.5 -14.5t7.5 -18t2 -17.5v-44q0 -24 -2 -40q-10 -18 -18.5 -33t-21.5 -31t-25.5 -26t-28.5 -17.5t-33 -7.5
q-7 0 -21 -0.5t-22 -0.5q-38 0 -62 13q-37 21 -62.5 57t-25.5 77q0 30 8 59.5t23 54t37 42.5t49 25zM651 1694q20 6 41 6q33 0 66.5 -15t58.5 -39q2 -4 10 -14.5t11 -15.5t8.5 -14.5t7.5 -18t2 -17.5v-44q0 -24 -2 -40q-10 -18 -18.5 -33t-21.5 -31t-25.5 -26t-28.5 -17.5
t-33 -7.5q-7 0 -21 -0.5t-22 -0.5q-38 0 -62 13q-37 21 -62.5 57t-25.5 77q0 30 8 59.5t23 54t37 42.5t49 25z" />
    <glyph glyph-name="Igrave" unicode="&#xcc;" horiz-adv-x="550" 
d="M80 838h319q45 -5 45 -23q-106 -218 -106 -243v-106q0 -116 137 -289v-23l-8 -8v-7l-243 -8h-266v15q175 96 175 327q0 232 -122 327l-7 30zM22 1470q-70 7 -85 34q-10 37 -10 89l2 22q15 45 95 76q70 -2 157 -25q154 -51 319 -128q32 -11 49 -38l17 -27l-27 -7
q-86 40 -227 56l-34 4q-100 -1 -142 -28q-42 -28 -114 -28z" />
    <glyph glyph-name="Iacute" unicode="&#xcd;" horiz-adv-x="550" 
d="M80 838h319q45 -5 45 -23q-106 -218 -106 -243v-106q0 -116 137 -289v-23l-8 -8v-7l-243 -8h-266v15q175 96 175 327q0 232 -122 327l-7 30zM337 1498q-42 27 -142 28l-34 -4q-141 -16 -227 -56l-27 7l17 27q17 27 49 38q165 77 319 128q87 23 157 25q80 -31 95 -76
l2 -22q0 -52 -10 -89q-15 -27 -85 -34q-72 0 -114 28z" />
    <glyph glyph-name="Icircumflex" unicode="&#xce;" horiz-adv-x="550" 
d="M80 838h319q45 -5 45 -23q-106 -218 -106 -243v-106q0 -116 137 -289v-23l-8 -8v-7l-243 -8h-266v15q175 96 175 327q0 232 -122 327l-7 30zM-103 1478q142 95 189 133t136 95q109 -62 182.5 -109.5t165.5 -93.5l-96 -27q-76 52 -217 68l-34 4q-152 -6 -213 -55z" />
    <glyph glyph-name="Idieresis" unicode="&#xcf;" horiz-adv-x="550" 
d="M80 838h319q45 -5 45 -23q-106 -218 -106 -243v-106q0 -116 137 -289v-23l-8 -8v-7l-243 -8h-266v15q175 96 175 327q0 232 -122 327l-7 30zM-19 1694q20 6 41 6q33 0 66.5 -15t58.5 -39q2 -4 10 -14.5t11 -15.5t8.5 -14.5t7.5 -18t2 -17.5v-44q0 -24 -2 -40
q-10 -18 -18.5 -33t-21.5 -31t-25.5 -26t-28.5 -17.5t-33 -7.5q-7 0 -21 -0.5t-22 -0.5q-38 0 -62 13q-37 21 -62.5 57t-25.5 77q0 30 8 59.5t23 54t37 42.5t49 25zM381 1694q20 6 41 6q33 0 66.5 -15t58.5 -39q2 -4 10 -14.5t11 -15.5t8.5 -14.5t7.5 -18t2 -17.5v-44
q0 -24 -2 -40q-10 -18 -18.5 -33t-21.5 -31t-25.5 -26t-28.5 -17.5t-33 -7.5q-7 0 -21 -0.5t-22 -0.5q-38 0 -62 13q-37 21 -62.5 57t-25.5 77q0 30 8 59.5t23 54t37 42.5t49 25z" />
    <glyph glyph-name="Eth" unicode="&#xd0;" horiz-adv-x="1000" 
d="M600 832q-39 70 -94 70h-54q-45 0 -64 -100q35 5 78 11q98 14 134 19zM150 797q-34 202 -146 341l23 22q469 -45 555 -106q166 -38 288 -251q46 -150 46 -289q0 -282 -388 -463q-109 -46 -516 -91l-8 7v8q160 170 160 349v303h-1q-69 -18 -151 -27l-2 66v50q0 40 2 79
q0 5 2 8q1 1 14 1q21 0 122 -7zM372 631l-3 -33v-23q0 -342 91 -342l23 -7h23q167 67 167 288v23q-14 122 -37 204v-99q0 -3 -1 -7t-2.5 -7.5t-4 -6t-5.5 -2.5t-8 1q-173 6 -243 11z" />
    <glyph glyph-name="Ntilde" unicode="&#xd1;" horiz-adv-x="960" 
d="M460 1295q413 -8 413 -42q-91 -142 -91 -213q-24 -117 -24 -279q0 -421 79 -493l49 -61v-12l-280 -48q-30 0 -49 128q-61 166 -206 468h-7l-12 -225q0 -139 80 -201l18 -25q0 -22 -408 -48l-6 6v12q164 96 164 395q0 308 -164 420l-18 24v6l42 6h353q17 0 103 -274
q100 -241 116 -255l6 134q0 453 -176 547l-6 6v19zM97 1478q78 122 138 169.5t187 58.5q99 -12 143 -54q13 -14 33 -14q41 0 107 62l95 -50q-110 -138 -236 -138q-14 0 -27 2l-44 24q-59 48 -118 48q-83 0 -165 -93z" />
    <glyph glyph-name="Ograve" unicode="&#xd2;" 
d="M350 1030h30q203 0 281 -221q31 -104 31 -190v-83l7 -69q0 -181 -251 -273l-91 -16q-156 0 -266 122q-91 118 -91 312v45q0 238 258 357zM228 627q17 -251 122 -251h15q135 0 159 266v8q0 182 -136 182q-122 0 -160 -190v-15zM132 1470q-70 7 -85 34q-10 37 -10 89l2 22
q15 45 95 76q70 -2 157 -25q154 -51 319 -128q32 -11 49 -38l17 -27l-27 -7q-86 40 -227 56l-34 4q-100 -1 -142 -28q-42 -28 -114 -28z" />
    <glyph glyph-name="Oacute" unicode="&#xd3;" 
d="M350 1030h30q203 0 281 -221q31 -104 31 -190v-83l7 -69q0 -181 -251 -273l-91 -16q-156 0 -266 122q-91 118 -91 312v45q0 238 258 357zM228 627q17 -251 122 -251h15q135 0 159 266v8q0 182 -136 182q-122 0 -160 -190v-15zM467 1498q-42 27 -142 28l-34 -4
q-141 -16 -227 -56l-27 7l17 27q17 27 49 38q165 77 319 128q87 23 157 25q80 -31 95 -76l2 -22q0 -52 -10 -89q-15 -27 -85 -34q-72 0 -114 28z" />
    <glyph glyph-name="Ocircumflex" unicode="&#xd4;" 
d="M350 1030h30q203 0 281 -221q31 -104 31 -190v-83l7 -69q0 -181 -251 -273l-91 -16q-156 0 -266 122q-91 118 -91 312v45q0 238 258 357zM228 627q17 -251 122 -251h15q135 0 159 266v8q0 182 -136 182q-122 0 -160 -190v-15zM27 1478q142 95 189 133t136 95
q109 -62 182.5 -109.5t165.5 -93.5l-96 -27q-76 52 -217 68l-34 4q-152 -6 -213 -55z" />
    <glyph glyph-name="Otilde" unicode="&#xd5;" 
d="M350 1030h30q203 0 281 -221q31 -104 31 -190v-83l7 -69q0 -181 -251 -273l-91 -16q-156 0 -266 122q-91 118 -91 312v45q0 238 258 357zM228 627q17 -251 122 -251h15q135 0 159 266v8q0 182 -136 182q-122 0 -160 -190v-15zM7 1478q78 122 138 169.5t187 58.5
q99 -12 143 -54q13 -14 33 -14q41 0 107 62l95 -50q-110 -138 -236 -138q-14 0 -27 2l-44 24q-59 48 -118 48q-83 0 -165 -93z" />
    <glyph glyph-name="Odieresis" unicode="&#xd6;" 
d="M350 1030h30q203 0 281 -221q31 -104 31 -190v-83l7 -69q0 -181 -251 -273l-91 -16q-156 0 -266 122q-91 118 -91 312v45q0 238 258 357zM228 627q17 -251 122 -251h15q135 0 159 266v8q0 182 -136 182q-122 0 -160 -190v-15zM141 1694q20 6 41 6q33 0 66.5 -15t58.5 -39
q2 -4 10 -14.5t11 -15.5t8.5 -14.5t7.5 -18t2 -17.5v-44q0 -24 -2 -40q-10 -18 -18.5 -33t-21.5 -31t-25.5 -26t-28.5 -17.5t-33 -7.5q-7 0 -21 -0.5t-22 -0.5q-38 0 -62 13q-37 21 -62.5 57t-25.5 77q0 30 8 59.5t23 54t37 42.5t49 25zM541 1694q20 6 41 6q33 0 66.5 -15
t58.5 -39q2 -4 10 -14.5t11 -15.5t8.5 -14.5t7.5 -18t2 -17.5v-44q0 -24 -2 -40q-10 -18 -18.5 -33t-21.5 -31t-25.5 -26t-28.5 -17.5t-33 -7.5q-7 0 -21 -0.5t-22 -0.5q-38 0 -62 13q-37 21 -62.5 57t-25.5 77q0 30 8 59.5t23 54t37 42.5t49 25z" />
    <glyph glyph-name="multiply" unicode="&#xd7;" horiz-adv-x="1040" 
d="M581 1260h6l389 -127l6 -6v-6q-205 -82 -395 -432v-6q134 -228 218 -316q13 0 86 -92q42 -16 42 -30q0 -20 -212 -42v6l-7 -6h-5l-7 6l-37 -13h-5l-7 7l-66 -12v5l-6 -5h-7l-12 12l19 84v19q-40 219 -73 219h-7q-54 -150 -54 -194v-56l18 -66l-18 -13l-6 7l-6 -7h-6l-7 7
l-5 -7h-12l-7 7l-6 -7q-310 20 -310 31q0 16 127 146q122 151 196 310v12q-207 331 -402 389v7q11 12 219 84q97 52 164 68h6v-7q-24 -65 -24 -103q0 -110 128 -286q103 256 103 328z" />
    <glyph glyph-name="Oslash" unicode="&#xd8;" horiz-adv-x="850" 
d="M396 832h-8q-122 0 -160 -190v-15q4 -59 13 -104q17 32 32 64v12l91 152q17 43 32 81zM520 705q-33 -52 -65 -112v-6l-79 -158h-7q-10 -28 -19 -53h15q135 0 159 266v8q0 30 -4 55zM93 297q-1 2 -2 3q-91 118 -91 312v45q0 238 258 357l92 16h30q42 0 78 -9q9 37 9 58
l-18 85h6l389 -127l6 -6v-6q-108 -43 -212 -161q13 -26 23 -55q31 -104 31 -190v-83l7 -69q0 -181 -251 -273l-91 -16q-21 0 -42 2v-1l18 -66l-18 -13l-6 7l-6 -7h-6l-7 7l-5 -7h-12l-7 7l-6 -7q-310 20 -310 31q0 16 127 146z" />
    <glyph glyph-name="Ugrave" unicode="&#xd9;" horiz-adv-x="1050" 
d="M515 1383l472 -23v-22q-122 -80 -122 -320q-13 -828 -61 -828q-46 -103 -197 -167l-152 -31q-266 127 -266 608q-33 396 -92 396l-106 129l486 38v-8q-96 -167 -98 -220q22 -669 83 -669l38 -8q145 16 145 114l15 145q0 665 -129 813l-38 30zM272 1470q-70 7 -85 34
q-10 37 -10 89l2 22q15 45 95 76q70 -2 157 -25q154 -51 319 -128q32 -11 49 -38l17 -27l-27 -7q-86 40 -227 56l-34 4q-100 -1 -142 -28q-42 -28 -114 -28z" />
    <glyph glyph-name="Uacute" unicode="&#xda;" horiz-adv-x="1050" 
d="M515 1383l472 -23v-22q-122 -80 -122 -320q-13 -828 -61 -828q-46 -103 -197 -167l-152 -31q-266 127 -266 608q-33 396 -92 396l-106 129l486 38v-8q-96 -167 -98 -220q22 -669 83 -669l38 -8q145 16 145 114l15 145q0 665 -129 813l-38 30zM607 1498q-42 27 -142 28
l-34 -4q-141 -16 -227 -56l-27 7l17 27q17 27 49 38q165 77 319 128q87 23 157 25q80 -31 95 -76l2 -22q0 -52 -10 -89q-15 -27 -85 -34q-72 0 -114 28z" />
    <glyph glyph-name="Ucircumflex" unicode="&#xdb;" horiz-adv-x="1050" 
d="M515 1383l472 -23v-22q-122 -80 -122 -320q-13 -828 -61 -828q-46 -103 -197 -167l-152 -31q-266 127 -266 608q-33 396 -92 396l-106 129l486 38v-8q-96 -167 -98 -220q22 -669 83 -669l38 -8q145 16 145 114l15 145q0 665 -129 813l-38 30zM157 1478q142 95 189 133
t136 95q109 -62 182.5 -109.5t165.5 -93.5l-96 -27q-76 52 -217 68l-34 4q-152 -6 -213 -55z" />
    <glyph glyph-name="Udieresis" unicode="&#xdc;" horiz-adv-x="1050" 
d="M251 1694q20 6 41 6q33 0 66.5 -15t58.5 -39q2 -4 10 -14.5t11 -15.5t8.5 -14.5t7.5 -18t2 -17.5v-44q0 -24 -2 -40q-10 -18 -18.5 -33t-21.5 -31t-25.5 -26t-28.5 -17.5t-33 -7.5q-7 0 -21 -0.5t-22 -0.5q-38 0 -62 13q-37 21 -62.5 57t-25.5 77q0 30 8 59.5t23 54
t37 42.5t49 25zM622 1379q-37 21 -62.5 57t-25.5 77q0 30 8 59.5t23 54t37 42.5t49 25q20 6 41 6q33 0 66.5 -15t58.5 -39q2 -4 10 -14.5t11 -15.5t8.5 -14.5t7.5 -18t2 -17.5v-44q0 -24 -2 -40q-10 -18 -18.5 -33t-21.5 -31t-25.5 -26t-28.5 -17q-4 -2 -7 -4l234 -11v-22
q-122 -80 -122 -320q-13 -828 -61 -828q-46 -103 -197 -167l-152 -31q-266 127 -266 608q-33 396 -92 396l-106 129l486 38v-8q-96 -167 -98 -220q22 -669 83 -669l38 -8q145 16 145 114l15 145q0 665 -129 813l-38 30l22 23q85 -1 107 -4z" />
    <glyph glyph-name="Yacute" unicode="&#xdd;" horiz-adv-x="1400" 
d="M676 1260h8l592 -15l8 -8v-23q-86 -46 -152 -106q-207 -234 -388 -646v-175q0 -152 160 -220l15 -23q0 -20 -494 -99q0 -15 -53 -15h-38l-15 15q213 152 213 319q0 149 -312 578q-107 125 -228 190v15l228 15l8 -7h7l31 7l98 -7l137 7h8q23 0 23 -30q-46 -80 -46 -129
q0 -101 137 -236q205 272 205 388q0 51 -152 197v8zM737 1498q-42 27 -142 28l-34 -4q-141 -16 -227 -56l-27 7l17 27q17 27 49 38q165 77 319 128q87 23 157 25q80 -31 95 -76l2 -22q0 -52 -10 -89q-15 -27 -85 -34q-72 0 -114 28z" />
    <glyph glyph-name="Thorn" unicode="&#xde;" horiz-adv-x="1050" 
d="M427 519l30 -15q243 55 243 205q0 127 -167 152h-23q-76 0 -76 -197zM421 1090q161 -5 226 -39q142 -40 190 -129q114 -178 114 -296v-16q0 -179 -486 -304q-31 0 -31 -15q0 -135 122 -270v-7q-5 -23 -61 -23h-334q-84 0 -84 23q122 44 129 250v380q0 77 8 154
q0 447 -183 547q-30 12 -30 23v15h220q417 0 417 -30q0 -23 -69 -31q-127 -94 -148 -232z" />
    <glyph glyph-name="germandbls" unicode="&#xdf;" horiz-adv-x="900" 
d="M71 900h-4v7q0 197 176 249q33 10 98 10q25 0 55 -1q150 -9 236 -47q101 -46 101 -154q0 -30 -8 -63q-37 -155 -152 -218q0 -5 7 -5q13 0 33 -9q165 -64 165 -307q0 -24 -2 -48q-11 -171 -114 -249q-74 -57 -172 -70q1 7 1 14q0 51 -65 128h2q7 0 11 1q144 45 144 172
q0 53 -25 120q-49 130 -191 145q-8 2 -15 2h-2l-30 193q104 6 140 47q73 81 73 135q0 24 -16 42q-25 32 -72 32q-46 0 -113 -28q-63 -26 -88 -90q6 -39 14 -139q11 -149 15 -246t17 -156l68 -343q-25 -14 -89 -14t-128 -6q-27 -4 -51 -4q-76 0 -106 30q-1 3 -1 9
q0 15 17 50.5t34 69.5t17 46z" />
    <glyph glyph-name="agrave" unicode="&#xe0;" 
d="M535 1182h19q16 0 30 -225l66 -480q72 -295 147 -402q15 0 30 -49l-408 -54l-5 18q91 118 91 280v121h-116l-67 7q-24 -7 -24 -43q0 -115 91 -194v-7l-24 -12q-365 8 -365 36q113 136 176 323q79 239 79 437v19q0 45 -103 103q-30 0 -30 18q30 27 413 104zM419 793
l-85 -255v-7h12l134 7v5q-30 177 -54 250h-7zM218 1316q-56 6 -68 27q-8 30 -8 71l1 18q12 36 76 61q56 -2 126 -20q123 -41 255 -103q26 -8 39 -30l14 -22l-22 -5q-69 32 -181 45l-28 3q-80 -1 -113 -23q-34 -22 -91 -22z" />
    <glyph glyph-name="aacute" unicode="&#xe1;" 
d="M535 1182h19q16 0 30 -225l66 -480q72 -295 147 -402q15 0 30 -49l-408 -54l-5 18q91 118 91 280v121h-116l-67 7q-24 -7 -24 -43q0 -115 91 -194v-7l-24 -12q-365 8 -365 36q113 136 176 323q79 239 79 437v19q0 45 -103 103q-30 0 -30 18q30 27 413 104zM419 793
l-85 -255v-7h12l134 7v5q-30 177 -54 250h-7zM486 1338q-34 22 -114 23l-27 -3q-113 -13 -182 -45l-21 5l13 22q14 22 39 30q132 62 256 103q69 18 125 20q64 -25 76 -61l2 -18q0 -41 -8 -71q-12 -21 -68 -27q-58 0 -91 22z" />
    <glyph glyph-name="acircumflex" unicode="&#xe2;" 
d="M535 1182h19q16 0 30 -225l66 -480q72 -295 147 -402q15 0 30 -49l-408 -54l-5 18q91 118 91 280v121h-116l-67 7q-24 -7 -24 -43q0 -115 91 -194v-7l-24 -12q-365 8 -365 36q113 136 176 323q79 239 79 437v19q0 45 -103 103q-30 0 -30 18q30 27 413 104zM419 793
l-85 -255v-7h12l134 7v5q-30 177 -54 250h-7zM126 1322q113 76 150.5 106.5t109.5 76.5q87 -50 145.5 -88t132.5 -75l-77 -21q-61 41 -173 54l-28 3q-121 -4 -170 -44z" />
    <glyph glyph-name="atilde" unicode="&#xe3;" 
d="M535 1182h19q16 0 30 -225l66 -480q72 -295 147 -402q15 0 30 -49l-408 -54l-5 18q91 118 91 280v121h-116l-67 7q-24 -7 -24 -43q0 -115 91 -194v-7l-24 -12q-365 8 -365 36q113 136 176 323q79 239 79 437v19q0 45 -103 103q-30 0 -30 18q30 27 413 104zM419 793
l-85 -255v-7h12l134 7v5q-30 177 -54 250h-7zM118 1322q62 98 110 136t150 47q79 -10 114 -43q10 -12 26 -12q33 0 86 50l76 -40q-88 -110 -189 -110q-11 0 -21 1l-36 19q-47 39 -94 39q-66 0 -132 -75z" />
    <glyph glyph-name="adieresis" unicode="&#xe4;" 
d="M535 1182h19q16 0 30 -225l66 -480q72 -295 147 -402q15 0 30 -49l-408 -54l-5 18q91 118 91 280v121h-116l-67 7q-24 -7 -24 -43q0 -115 91 -194v-7l-24 -12q-365 8 -365 36q113 136 176 323q79 239 79 437v19q0 45 -103 103q-30 0 -30 18q30 27 413 104zM419 793
l-85 -255v-7h12l134 7v5q-30 177 -54 250h-7zM201 1495q16 5 33 5q26 0 53 -12t47 -31q1 -3 7.5 -11.5t9 -12.5t7 -11.5t6 -14.5t1.5 -14v-35q0 -20 -2 -32q-8 -15 -14.5 -27t-17 -24.5t-20.5 -20.5t-23 -14t-26 -6q-6 0 -17 -0.5t-18 -0.5q-30 0 -49 10q-30 17 -50.5 46
t-20.5 61q0 24 6.5 48t18.5 43.5t29.5 34t39.5 19.5zM521 1495q16 5 33 5q26 0 53 -12t47 -31q1 -3 7.5 -11.5t9 -12.5t7 -11.5t6 -14.5t1.5 -14v-35q0 -20 -2 -32q-8 -15 -14.5 -27t-17 -24.5t-20.5 -20.5t-23 -14t-26 -6q-6 0 -17 -0.5t-18 -0.5q-30 0 -49 10
q-30 17 -50.5 46t-20.5 61q0 24 6.5 48t18.5 43.5t29.5 34t39.5 19.5z" />
    <glyph glyph-name="aring" unicode="&#xe5;" 
d="M535 1182h19q16 0 30 -225l66 -480q72 -295 147 -402q15 0 30 -49l-408 -54l-5 18q91 118 91 280v121h-116l-67 7q-24 -7 -24 -43q0 -115 91 -194v-7l-24 -12q-365 8 -365 36q113 136 176 323q79 239 79 437v19q0 45 -103 103q-30 0 -30 18q30 27 413 104zM419 793
l-85 -255v-7h12l134 7v5q-30 177 -54 250h-7zM348 1609q21 6 45 6q36 0 72.5 -16.5t64.5 -42.5q2 -4 10.5 -15.5t12 -17t9.5 -16t8 -20t2 -19.5v-48q0 -26 -2 -44q-11 -20 -20 -36.5t-23.5 -34t-28 -28.5t-31 -19t-36.5 -8q-8 0 -23 -0.5t-24 -0.5q-42 0 -68 14
q-41 23 -69 62.5t-28 84.5q0 33 9 65.5t25.5 59t40.5 46.5t54 28zM320 1419q0 -20 12.5 -37.5t29.5 -27.5q12 -6 30 -6h21q8 0 16 4t14 8.5t12 12.5t10 15t9 16q1 8 1 19v21q0 5 -1 9t-3.5 8.5t-4 7t-5.5 7.5t-5 7q-12 12 -28 19t-32 7q-10 0 -20 -3q-13 -3 -23.5 -12
t-17.5 -20.5t-11 -26t-4 -28.5z" />
    <glyph glyph-name="ae" unicode="&#xe6;" horiz-adv-x="1280" 
d="M419 793l-85 -255v-7h12l134 7v5q-30 177 -54 250h-7zM505 261v130h-116l-67 7q-24 -7 -24 -43q0 -115 91 -194v-7l-24 -12q-365 8 -365 36q113 136 176 323q79 239 79 437v19q0 45 -103 103q-30 0 -30 18q30 27 413 104h19q10 0 20 -97l456 -39q54 9 140 73h6
q34 0 48 -346v-7h-18q-106 134 -225 134l-170 6q-37 -24 -37 -152v-36l19 -18q89 0 188 97q25 -107 25 -286v-30h-12q-167 73 -196 73h-17q-19 -66 -19 -128v-60q0 -19 116 -25q231 0 231 55l79 78q18 -36 18 -127v-164l-12 -13l-443 -12q23 -50 46 -83q15 0 30 -49
l-408 -54l-5 18q54 70 76 156z" />
    <glyph glyph-name="ccedilla" unicode="&#xe7;" horiz-adv-x="700" 
d="M354 145l-42 -10q-145 0 -286 268q-24 96 -24 158q0 277 60 329q103 116 262 176l24 6h42l98 -30q33 0 115 66h7l6 -30v-55q0 -261 -25 -261h-5q-124 109 -213 109q-207 0 -207 -231q0 -298 212 -298q136 0 220 140h5l13 -18v-110q0 -158 -37 -158l-70 -16l-4 -114l5 -4
v-5q0 -197 -219 -275l-69 1q-214 46 -222 155v10q0 45 48 166q59 34 106 34h6q86 0 86 -68q0 -55 -38 -102q-30 53 -63 53q-44 0 -44 -63q7 -61 100 -61q21 0 45 3h11q97 0 97 204v31z" />
    <glyph glyph-name="egrave" unicode="&#xe8;" horiz-adv-x="880" 
d="M732 1098h6q34 0 48 -346v-6h-18q-106 133 -225 133l-170 7q-37 -24 -37 -152v-37l19 -18q89 0 188 97q25 -107 25 -286v-30h-12q-167 73 -196 73h-17q-19 -66 -19 -127v-61q0 -19 116 -25q231 0 231 55l79 79q18 -36 18 -128v-164l-12 -12l-639 -18l-5 -6h-7l-5 6h-7
l-79 -13l-6 19q140 216 140 437q0 265 -134 469l-12 30h6l584 -48q54 8 140 72zM218 1316q-56 6 -68 27q-8 30 -8 71l2 18q12 36 76 61q56 -2 125 -20q123 -41 255 -103q26 -8 40 -30l13 -22l-21 -5q-69 32 -182 45l-27 3q-80 -1 -114 -23q-33 -22 -91 -22z" />
    <glyph glyph-name="eacute" unicode="&#xe9;" horiz-adv-x="880" 
d="M732 1098h6q34 0 48 -346v-6h-18q-106 133 -225 133l-170 7q-37 -24 -37 -152v-37l19 -18q89 0 188 97q25 -107 25 -286v-30h-12q-167 73 -196 73h-17q-19 -66 -19 -127v-61q0 -19 116 -25q231 0 231 55l79 79q18 -36 18 -128v-164l-12 -12l-639 -18l-5 -6h-7l-5 6h-7
l-79 -13l-6 19q140 216 140 437q0 265 -134 469l-12 30h6l584 -48q54 8 140 72zM486 1338q-34 22 -114 23l-27 -3q-113 -13 -181 -45l-22 5l14 22q13 22 39 30q132 62 255 103q70 18 126 20q64 -25 76 -61l1 -18q0 -41 -8 -71q-12 -21 -68 -27q-57 0 -91 22z" />
    <glyph glyph-name="ecircumflex" unicode="&#xea;" horiz-adv-x="880" 
d="M732 1098h6q34 0 48 -346v-6h-18q-106 133 -225 133l-170 7q-37 -24 -37 -152v-37l19 -18q89 0 188 97q25 -107 25 -286v-30h-12q-167 73 -196 73h-17q-19 -66 -19 -127v-61q0 -19 116 -25q231 0 231 55l79 79q18 -36 18 -128v-164l-12 -12l-639 -18l-5 -6h-7l-5 6h-7
l-79 -13l-6 19q140 216 140 437q0 265 -134 469l-12 30h6l584 -48q54 8 140 72zM126 1322q114 76 151.5 106.5t108.5 76.5q87 -50 146 -88t132 -75l-76 -21q-61 41 -174 54l-27 3q-122 -4 -171 -44z" />
    <glyph glyph-name="edieresis" unicode="&#xeb;" horiz-adv-x="880" 
d="M732 1098h6q34 0 48 -346v-6h-18q-106 133 -225 133l-170 7q-37 -24 -37 -152v-37l19 -18q89 0 188 97q25 -107 25 -286v-30h-12q-167 73 -196 73h-17q-19 -66 -19 -127v-61q0 -19 116 -25q231 0 231 55l79 79q18 -36 18 -128v-164l-12 -12l-639 -18l-5 -6h-7l-5 6h-7
l-79 -13l-6 19q140 216 140 437q0 265 -134 469l-12 30h6l584 -48q54 8 140 72zM201 1495q16 5 33 5q26 0 53 -12t47 -31q2 -3 8 -11.5t8.5 -12.5t7 -11.5t6 -14.5t1.5 -14v-35q0 -20 -1 -32q-8 -15 -15 -27t-17.5 -24.5t-20.5 -20.5t-22.5 -14t-26.5 -6q-6 0 -17 -0.5
t-17 -0.5q-31 0 -50 10q-30 17 -50 46t-20 61q0 24 6 48t18 43.5t30 34t39 19.5zM521 1495q16 5 33 5q26 0 53 -12t47 -31q2 -3 8 -11.5t8.5 -12.5t7 -11.5t6 -14.5t1.5 -14v-35q0 -20 -1 -32q-8 -15 -15 -27t-17.5 -24.5t-20.5 -20.5t-22.5 -14t-26.5 -6q-6 0 -17 -0.5
t-17 -0.5q-31 0 -50 10q-30 17 -50 46t-20 61q0 24 6 48t18 43.5t30 34t39 19.5z" />
    <glyph glyph-name="igrave" unicode="&#xec;" horiz-adv-x="440" 
d="M64 810h256q36 -4 36 -18q-85 -174 -85 -194v-85q0 -93 109 -231v-19l-6 -6v-6l-194 -6h-213v12q140 77 140 261q0 186 -98 262l-5 24zM18 1316q-56 6 -68 27q-8 30 -8 71l2 18q12 36 76 61q56 -2 125 -20q123 -41 255 -103q26 -8 40 -30l13 -22l-21 -5q-69 32 -182 45
l-27 3q-80 -1 -114 -23q-33 -22 -91 -22z" />
    <glyph glyph-name="iacute" unicode="&#xed;" horiz-adv-x="440" 
d="M64 810h256q36 -4 36 -18q-85 -174 -85 -194v-85q0 -93 109 -231v-19l-6 -6v-6l-194 -6h-213v12q140 77 140 261q0 186 -98 262l-5 24zM270 1338q-34 22 -114 23l-27 -3q-113 -13 -181 -45l-22 5l14 22q13 22 39 30q132 62 255 103q70 18 126 20q64 -25 76 -61l1 -18
q0 -41 -8 -71q-12 -21 -68 -27q-57 0 -91 22z" />
    <glyph glyph-name="icircumflex" unicode="&#xee;" horiz-adv-x="440" 
d="M64 810h256q36 -4 36 -18q-85 -174 -85 -194v-85q0 -93 109 -231v-19l-6 -6v-6l-194 -6h-213v12q140 77 140 261q0 186 -98 262l-5 24zM-82 1322q114 76 151.5 106.5t108.5 76.5q87 -50 146 -88t132 -75l-76 -21q-61 41 -174 54l-27 3q-122 -4 -171 -44z" />
    <glyph glyph-name="idieresis" unicode="&#xef;" horiz-adv-x="440" 
d="M64 810h255q36 -4 36 -18q-85 -174 -85 -194v-85q0 -93 110 -231v-19l-7 -6v-6l-194 -6h-213v12q140 77 140 261q0 186 -97 262l-6 24zM-15 1495q16 5 32 5q27 0 53.5 -12t46.5 -31q2 -3 8.5 -11.5t9 -12.5t6.5 -11.5t6 -14.5t2 -14v-35q0 -20 -2 -32q-8 -15 -15 -27
t-17 -24.5t-20 -20.5t-23 -14t-27 -6q-5 0 -16.5 -0.5t-17.5 -0.5q-30 0 -50 10q-29 17 -49.5 46t-20.5 61q0 24 6.5 48t18.5 43.5t29.5 34t39.5 19.5zM305 1495q16 5 32 5q27 0 53.5 -12t46.5 -31q2 -3 8.5 -11.5t9 -12.5t6.5 -11.5t6 -14.5t2 -14v-35q0 -20 -2 -32
q-8 -15 -15 -27t-17 -24.5t-20 -20.5t-23 -14t-27 -6q-5 0 -16.5 -0.5t-17.5 -0.5q-30 0 -50 10q-29 17 -49.5 46t-20.5 61q0 24 6.5 48t18.5 43.5t29.5 34t39.5 19.5z" />
    <glyph glyph-name="eth" unicode="&#xf0;" 
d="M480 806q-31 56 -75 56h-44q-36 0 -51 -80q29 3 63 8q78 11 107 16zM120 777q-27 162 -117 273l18 18q376 -36 444 -85q133 -30 231 -201q37 -120 37 -231q0 -225 -311 -370q-87 -37 -413 -73l-6 6v6q128 136 128 279v243h-1q-55 -15 -121 -22l-1 53v40q0 32 1 63
q0 4 2 6q1 1 11 1q17 0 98 -6zM297 645l-2 -27v-18q0 -274 73 -274l18 -5h19q133 53 133 230v19q-11 97 -29 162v-78q0 -3 -1 -6l-2 -6t-3 -5t-5 -2q-2 0 -6 1q-138 5 -195 9z" />
    <glyph glyph-name="ntilde" unicode="&#xf1;" horiz-adv-x="768" 
d="M368 1176q330 -6 330 -34q-73 -113 -73 -170q-19 -94 -19 -223q0 -337 63 -395l39 -48v-10l-224 -38q-24 0 -39 102q-49 133 -165 374h-5l-10 -180q0 -111 64 -160l15 -20q0 -18 -327 -39l-5 5v10q132 76 132 316q0 246 -132 336l-14 19v5l34 4h282q14 0 82 -219
q80 -193 93 -204l5 107q0 363 -141 438l-5 5v15zM77 1322q63 98 111 136t149 47q79 -10 115 -43q10 -12 26 -12q33 0 86 50l76 -40q-88 -110 -189 -110q-11 0 -22 1l-35 19q-47 39 -94 39q-67 0 -132 -75z" />
    <glyph glyph-name="ograve" unicode="&#xf2;" horiz-adv-x="640" 
d="M280 964h24q162 0 225 -177q25 -83 25 -152v-66l5 -55q0 -145 -201 -219l-72 -13q-125 0 -213 98q-73 94 -73 250v36q0 190 206 285zM182 642q14 -201 98 -201h12q108 0 127 213v6q0 146 -109 146q-97 0 -128 -152v-12zM106 1316q-56 6 -68 27q-8 30 -8 71l1 18
q12 36 76 61q56 -2 126 -20q123 -41 255 -103q26 -8 39 -30l14 -22l-22 -5q-69 32 -181 45l-28 3q-80 -1 -113 -23q-34 -22 -91 -22z" />
    <glyph glyph-name="oacute" unicode="&#xf3;" horiz-adv-x="640" 
d="M280 964h24q162 0 225 -177q25 -83 25 -152v-66l5 -55q0 -145 -201 -219l-72 -13q-125 0 -213 98q-73 94 -73 250v36q0 190 206 285zM182 642q14 -201 98 -201h12q108 0 127 213v6q0 146 -109 146q-97 0 -128 -152v-12zM374 1338q-34 22 -114 23l-27 -3
q-113 -13 -182 -45l-21 5l13 22q14 22 39 30q132 62 256 103q69 18 125 20q64 -25 76 -61l2 -18q0 -41 -8 -71q-12 -21 -68 -27q-58 0 -91 22z" />
    <glyph glyph-name="ocircumflex" unicode="&#xf4;" horiz-adv-x="640" 
d="M280 964h24q162 0 225 -177q25 -83 25 -152v-66l5 -55q0 -145 -201 -219l-72 -13q-125 0 -213 98q-73 94 -73 250v36q0 190 206 285zM182 642q14 -201 98 -201h12q108 0 127 213v6q0 146 -109 146q-97 0 -128 -152v-12zM22 1322q113 76 150.5 106.5t109.5 76.5
q87 -50 145.5 -88t132.5 -75l-77 -21q-61 41 -173 54l-28 3q-121 -4 -170 -44z" />
    <glyph glyph-name="otilde" unicode="&#xf5;" horiz-adv-x="640" 
d="M280 964h24q162 0 225 -177q25 -83 25 -152v-66l5 -55q0 -145 -201 -219l-72 -13q-125 0 -213 98q-73 94 -73 250v36q0 190 206 285zM182 642q14 -201 98 -201h12q108 0 127 213v6q0 146 -109 146q-97 0 -128 -152v-12zM6 1322q62 98 110 136t150 47q79 -10 114 -43
q10 -12 26 -12q33 0 86 50l76 -40q-88 -110 -189 -110q-11 0 -21 1l-36 19q-47 39 -94 39q-66 0 -132 -75z" />
    <glyph glyph-name="odieresis" unicode="&#xf6;" horiz-adv-x="640" 
d="M280 964h24q162 0 225 -177q25 -83 25 -152v-66l5 -55q0 -145 -201 -219l-72 -13q-125 0 -213 98q-73 94 -73 250v36q0 190 206 285zM182 642q14 -201 98 -201h12q108 0 127 213v6q0 146 -109 146q-97 0 -128 -152v-12zM113 1495q16 5 33 5q26 0 53 -12t47 -31
q1 -3 7.5 -11.5t9 -12.5t7 -11.5t6 -14.5t1.5 -14v-35q0 -20 -2 -32q-8 -15 -14.5 -27t-17 -24.5t-20.5 -20.5t-23 -14t-26 -6q-6 0 -17 -0.5t-18 -0.5q-30 0 -49 10q-30 17 -50.5 46t-20.5 61q0 24 6.5 48t18.5 43.5t29.5 34t39.5 19.5zM433 1495q16 5 33 5q26 0 53 -12
t47 -31q1 -3 7.5 -11.5t9 -12.5t7 -11.5t6 -14.5t1.5 -14v-35q0 -20 -2 -32q-8 -15 -14.5 -27t-17 -24.5t-20.5 -20.5t-23 -14t-26 -6q-6 0 -17 -0.5t-18 -0.5q-30 0 -49 10q-30 17 -50.5 46t-20.5 61q0 24 6.5 48t18.5 43.5t29.5 34t39.5 19.5z" />
    <glyph glyph-name="divide" unicode="&#xf7;" horiz-adv-x="725" 
d="M216 603q8 -1 18 -1q64 0 222 23q142 20 154 23h6q7 0 10 -4v-190q0 -3 -1 -7t-2.5 -7.5t-4 -6t-5.5 -2.5t-8 1q-274 10 -291 16q-22 7 -56 7q-12 0 -27 -2q-32 -1 -78 -14q-69 -18 -151 -27l-2 66v50q0 40 2 79q0 5 2 8q1 1 14 1q28 0 198 -13zM259 393q20 6 41 6
q33 0 66.5 -15t58.5 -39q2 -4 10 -14.5t11 -15.5t8.5 -14.5t7.5 -18t2 -17.5v-44q0 -24 -2 -40q-10 -18 -18.5 -33t-21.5 -31t-25.5 -26t-28.5 -17.5t-33 -7.5q-7 0 -21 -0.5t-22 -0.5q-38 0 -62 13q-37 21 -62.5 57t-25.5 77q0 30 8 59.5t23 54t37 42.5t49 25zM289 993
q20 6 41 6q33 0 66.5 -15t58.5 -39q2 -4 10 -14.5t11 -15.5t8.5 -14.5t7.5 -18t2 -17.5v-44q0 -24 -2 -40q-10 -18 -18.5 -33t-21.5 -31t-25.5 -26t-28.5 -17.5t-33 -7.5q-7 0 -21 -0.5t-22 -0.5q-38 0 -62 13q-37 21 -62.5 57t-25.5 77q0 30 8 59.5t23 54t37 42.5t49 25z
" />
    <glyph glyph-name="oslash" unicode="&#xf8;" horiz-adv-x="680" 
d="M317 805l-7 1q-97 0 -128 -152v-12q4 -48 11 -84q13 26 25 52v9l73 122q14 34 26 64zM416 704q-26 -42 -52 -90v-4l-63 -127h-6q-8 -23 -15 -42h12q108 0 127 213v6q0 24 -3 44zM75 378l-2 2q-73 94 -73 250v36q0 190 206 285l74 13h24q33 0 62 -7q8 29 8 46l-15 68h5
l311 -101l5 -5v-5q-86 -35 -170 -129q10 -20 19 -44q25 -83 25 -152v-66l5 -55q0 -145 -201 -219l-72 -13q-18 0 -34 2v-1l14 -53l-14 -10l-5 6l-5 -6h-4l-6 6l-4 -6h-10l-5 6l-5 -6q-248 16 -248 25q0 13 102 117q6 8 13 16z" />
    <glyph glyph-name="ugrave" unicode="&#xf9;" horiz-adv-x="840" 
d="M412 1246l378 -18v-18q-98 -64 -98 -256q-10 -662 -49 -662q-36 -82 -157 -134l-122 -24q-213 101 -213 486q-26 317 -73 317l-85 103l389 30v-6q-77 -134 -79 -176q18 -535 67 -535l30 -7q116 13 116 92l12 116q0 532 -103 650l-30 24zM218 1316q-56 6 -68 27
q-8 30 -8 71l1 18q12 36 76 61q56 -2 126 -20q123 -41 255 -103q26 -8 39 -30l14 -22l-22 -5q-68 32 -181 45l-27 3q-80 -1 -114 -23t-91 -22z" />
    <glyph glyph-name="uacute" unicode="&#xfa;" horiz-adv-x="840" 
d="M412 1246l378 -18v-18q-98 -64 -98 -256q-10 -662 -49 -662q-36 -82 -157 -134l-122 -24q-213 101 -213 486q-26 317 -73 317l-85 103l389 30v-6q-77 -134 -79 -176q18 -535 67 -535l30 -7q116 13 116 92l12 116q0 532 -103 650l-30 24zM486 1338q-34 22 -114 23l-27 -3
q-113 -13 -182 -45l-21 5l13 22q14 22 40 30q132 62 255 103q69 18 125 20q64 -25 76 -61l2 -18q0 -41 -8 -71q-12 -21 -68 -27q-58 0 -91 22z" />
    <glyph glyph-name="ucircumflex" unicode="&#xfb;" horiz-adv-x="840" 
d="M412 1246l378 -18v-18q-98 -64 -98 -256q-10 -662 -49 -662q-36 -82 -157 -134l-122 -24q-213 101 -213 486q-26 317 -73 317l-85 103l389 30v-6q-77 -134 -79 -176q18 -535 67 -535l30 -7q116 13 116 92l12 116q0 532 -103 650l-30 24zM126 1322q113 76 151 106.5
t109 76.5q87 -50 146 -88t132 -75l-77 -21q-60 41 -173 54l-27 3q-122 -4 -171 -44z" />
    <glyph glyph-name="udieresis" unicode="&#xfc;" horiz-adv-x="840" 
d="M201 1495q16 5 33 5q26 0 53 -12t47 -31q1 -3 7.5 -11.5t9 -12.5t7 -11.5t6 -14.5t1.5 -14v-35q0 -20 -2 -32q-8 -15 -14.5 -27t-17 -24.5t-20.5 -20.5t-23 -14t-26 -6q-6 0 -17 -0.5t-18 -0.5q-30 0 -49 10q-30 17 -50.5 46t-20.5 61q0 24 6.5 48t18.5 43.5t29.5 34
t39.5 19.5zM602 1237l188 -9v-18q-98 -64 -98 -256q-10 -662 -49 -662q-36 -82 -157 -134l-122 -24q-213 101 -213 486q-26 317 -73 317l-85 103l389 30v-6q-77 -134 -79 -176q18 -535 67 -535l30 -7q116 13 116 92l12 116q0 532 -103 650l-30 24l17 18l88 -4q-1 1 -2 1
q-30 17 -50.5 46t-20.5 61q0 24 6.5 48t18.5 43.5t29.5 34t39.5 19.5q16 5 33 5q26 0 53 -12t47 -31q1 -3 7.5 -11.5t9 -12.5t7 -11.5t6 -14.5t1.5 -14v-35q0 -20 -2 -32q-8 -15 -14.5 -27t-17 -24.5t-20.5 -20.5t-23 -14q-3 -2 -6 -3z" />
    <glyph glyph-name="yacute" unicode="&#xfd;" horiz-adv-x="1120" 
d="M541 1148h7l473 -12l7 -6v-19q-69 -37 -122 -85q-166 -187 -310 -516v-140q0 -122 128 -176l12 -19q0 -16 -396 -79q0 -12 -42 -12h-30l-12 12q170 122 170 255q0 119 -250 463q-85 100 -182 152v12l182 12l7 -6h5l25 6l79 -6l109 6h7q18 0 18 -24q-37 -64 -37 -104
q0 -80 110 -188q164 217 164 310q0 41 -122 158v6zM590 1338q-34 22 -114 23l-27 -3q-113 -13 -181 -45l-22 5l14 22q13 22 39 30q132 62 255 103q70 18 126 20q64 -25 76 -61l1 -18q0 -41 -8 -71q-12 -21 -68 -27q-57 0 -91 22z" />
    <glyph glyph-name="thorn" unicode="&#xfe;" horiz-adv-x="840" 
d="M342 555l24 -12q194 44 194 164q0 102 -133 122h-19q-61 0 -61 -158zM337 1012q129 -4 181 -31q113 -32 152 -103q91 -143 91 -237v-13q0 -143 -389 -243q-25 0 -25 -12q0 -108 98 -216v-6q-4 -18 -49 -18h-267q-67 0 -67 18q97 35 103 200v304q0 62 6 123
q0 358 -146 438q-24 10 -24 18v12h176q334 0 334 -24q0 -18 -56 -24q-101 -76 -118 -186z" />
    <glyph glyph-name="ydieresis" unicode="&#xff;" horiz-adv-x="1120" 
d="M541 1148h7l473 -12l7 -6v-19q-69 -37 -122 -85q-166 -187 -310 -516v-140q0 -122 128 -176l12 -19q0 -16 -396 -79q0 -12 -42 -12h-30l-12 12q170 122 170 255q0 119 -250 463q-85 100 -182 152v12l182 12l7 -6h5l25 6l79 -6l109 6h7q18 0 18 -24q-37 -64 -37 -104
q0 -80 110 -188q164 217 164 310q0 41 -122 158v6zM281 1495q16 5 33 5q26 0 53 -12t47 -31q2 -3 8 -11.5t8.5 -12.5t7 -11.5t6 -14.5t1.5 -14v-35q0 -20 -1 -32q-8 -15 -15 -27t-17.5 -24.5t-20.5 -20.5t-22.5 -14t-26.5 -6q-6 0 -17 -0.5t-17 -0.5q-31 0 -50 10
q-30 17 -50 46t-20 61q0 24 6 48t18 43.5t30 34t39 19.5zM601 1495q16 5 33 5q26 0 53 -12t47 -31q2 -3 8 -11.5t8.5 -12.5t7 -11.5t6 -14.5t1.5 -14v-35q0 -20 -1 -32q-8 -15 -15 -27t-17.5 -24.5t-20.5 -20.5t-22.5 -14t-26.5 -6q-6 0 -17 -0.5t-17 -0.5q-31 0 -50 10
q-30 17 -50 46t-20 61q0 24 6 48t18 43.5t30 34t39 19.5z" />
    <glyph glyph-name="dotlessi" unicode="&#x131;" horiz-adv-x="440" 
d="M64 810h255q36 -4 36 -18q-85 -174 -85 -194v-85q0 -93 110 -231v-19l-7 -6v-6l-194 -6h-213v12q140 77 140 261q0 186 -98 262l-5 24z" />
    <glyph glyph-name="circumflex" unicode="&#x2c6;" horiz-adv-x="750" 
d="M-3 1478q142 95 189 133t136 95q109 -62 182.5 -109.5t165.5 -93.5l-96 -27q-76 52 -217 68l-34 4q-152 -6 -213 -55z" />
    <glyph glyph-name="caron" unicode="&#x2c7;" horiz-adv-x="750" 
d="M670 1704q-142 -95 -189 -133t-136 -95q-109 62 -182.5 109.5t-165.5 93.5l96 27q76 -52 217 -68l34 -4q152 6 213 55z" />
    <glyph glyph-name="uni02C9" unicode="&#x2c9;" horiz-adv-x="1024" 
d="M254 1195v125h516v-125h-516z" />
    <glyph glyph-name="breve" unicode="&#x2d8;" horiz-adv-x="1024" 
d="M219 1349h51q17 -73 75 -107t167 -34t166 33.5t74 107.5h51q-20 -133 -94 -201.5t-197 -68.5q-122 0 -197 69t-96 201z" />
    <glyph glyph-name="dotaccent" unicode="&#x2d9;" horiz-adv-x="1024" 
d="M422 1289l69 72q6 6 13 9t14 3q6 0 12.5 -3t12.5 -9l71 -76q5 -4 7 -10t2 -14q-1 -9 -3 -15t-8 -12l-71 -76q-12 -11 -16 -13.5t-7 -2.5q-10 0 -16.5 2.5t-10.5 8.5l-75 87q-4 4 -6 9.5t-2 13.5q0 6 3 12.5t11 13.5z" />
    <glyph glyph-name="ring" unicode="&#x2da;" horiz-adv-x="1024" 
d="M411 1257q0 -42 29 -71t71 -29t71 29t29 71q0 40 -29.5 69.5t-70.5 29.5t-70.5 -29.5t-29.5 -69.5zM335 1257q0 75 51 126t125 51q76 0 127.5 -51.5t51.5 -125.5q0 -75 -51.5 -126.5t-127.5 -51.5q-74 0 -125 51.5t-51 126.5z" />
    <glyph glyph-name="ogonek" unicode="&#x2db;" horiz-adv-x="1024" 
d="M640 0q-71 -62 -110.5 -119.5t-39.5 -112.5q0 -47 27 -75t73 -28q40 0 69.5 15.5t49.5 48.5l28 -16q-36 -63 -90.5 -97t-119.5 -34q-70 0 -114 35.5t-44 90.5q0 76 60.5 156.5t161.5 135.5h49z" />
    <glyph glyph-name="tilde" unicode="&#x2dc;" horiz-adv-x="750" 
d="M-3 1478q78 122 138 169.5t187 58.5q99 -12 143 -54q13 -14 33 -14q41 0 107 62l95 -50q-110 -138 -236 -138q-14 0 -27 2l-44 24q-59 48 -118 48q-83 0 -165 -93z" />
    <glyph glyph-name="hungarumlaut" unicode="&#x2dd;" horiz-adv-x="1024" 
d="M217 1079l144 273q24 44 45.5 63t46.5 19q28 0 48 -20t20 -47q0 -16 -10.5 -35t-30.5 -41l-205 -212h-58zM502 1079l144 273q24 44 45.5 63t46.5 19q28 0 48 -20t20 -47q0 -16 -10.5 -35t-30.5 -41l-205 -212h-58z" />
    <glyph glyph-name="endash.002" horiz-adv-x="1108" 
d="M56 419v120h996v-120h-996z" />
    <glyph glyph-name="emdash" unicode="&#x2014;" horiz-adv-x="2048" 
d="M25 419q-12 20 -26 54t-14 56l16 157q0 3 18 3q45 0 188.5 -1t184.5 -2.5t111 -1.5q131 0 392 -1.5t363 -1.5q62 5 166 5q90 1 127 1h123q37 0 111 4q123 -5 252 -8l-11 -233q0 -4 -2 -8.5t-6 -8t-9 -7t-13 -3.5q-9 0 -19 2q-51 13 -202.5 14t-292 6t-183.5 5
q-12 0 -12 -1q-72 0 -95.5 -1.5t-156.5 -1.5q-233 0 -289.5 -0.5t-112 -3.5t-164 -3.5t-167.5 -6.5q-64 -6 -144.5 -7.5t-132.5 -5.5z" />
    <glyph glyph-name="quoteleft" unicode="&#x2018;" horiz-adv-x="450" 
d="M176 812q-20 -6 -41 -6q-34 0 -66.5 14.5t-59.5 39.5q-1 3 -9 14q-10 13 -12 16q-3 5 -8 14.5t-7 18t-2 17.5v41q0 28 2 47q3 4 8 16l10 24t13.5 28t18.5 30t26 29.5t35 27.5q17 17 35 29q17 13 34 21t31 13q15 6 31 8t27.5 3t25.5 1h27q24 0 35 2q-30 -24 -46 -37
q-18 -16 -40 -36q-20 -19 -33 -35q-13 -15 -21.5 -30t-8.5 -27q0 -3 1 -6q2 0 12 -1q10 -2 17.5 -3t19.5 -5q13 -4 21 -8q8 -5 19 -13q9 -9 17 -19q6 -12 10.5 -27.5t4.5 -34.5q0 -29 -10 -58q-9 -27 -26 -48q-18 -22 -41 -37q-23 -16 -50 -23z" />
    <glyph glyph-name="quoteright" unicode="&#x2019;" horiz-adv-x="450" 
d="M125 1254q20 6 41 6q34 0 66.5 -14.5t59.5 -39.5q1 -3 9 -14q10 -13 12 -16q3 -5 8 -14.5t7 -18t2 -17.5v-41q0 -28 -2 -47q-3 -4 -8 -16l-10 -24t-13.5 -28t-18.5 -30t-26 -29.5t-35 -27.5q-17 -17 -35 -29q-17 -13 -34 -21t-31 -13q-15 -6 -31 -8t-27.5 -3t-25.5 -1
h-27q-24 0 -35 -2q30 24 46 37q18 16 40 36q20 19 33 35q13 15 21.5 30t8.5 27q0 3 -1 6q-2 0 -12 1q-10 2 -17.5 3t-19.5 5q-13 4 -21 8q-8 5 -19 13q-9 9 -17 19q-6 12 -10.5 27.5t-4.5 34.5q0 29 10 58q9 27 26 48q18 22 41 37q23 16 50 23z" />
    <glyph glyph-name="quotesinglbase" unicode="&#x201a;" horiz-adv-x="450" 
d="M154 275q20 7 41 7q34 0 66.5 -15t59.5 -40q2 -4 8 -12t9.5 -12t7.5 -12t6.5 -14t4.5 -14t2 -15v-41q0 -29 -2 -47q-3 -5 -8 -17l-10 -24t-13.5 -28t-18.5 -30t-26 -29.5t-35 -26.5q-20 -20 -42 -34.5t-39.5 -22t-37.5 -12t-33.5 -5.5t-31.5 -1h-62q21 17 33.5 27
t30 25.5t28 25.5t22.5 23t19 22.5t11.5 20t4.5 18.5q0 3 -1 7q-3 0 -12.5 0.5t-18.5 2t-21.5 4t-23 6.5t-21.5 11.5t-19 17.5t-13 26t-5 35q0 29 12 58t31.5 52t44.5 39.5t52 23.5z" />
    <glyph glyph-name="quotedblleft" unicode="&#x201c;" 
d="M618 787q-32 -16 -68 -16q-56 0 -105 33q-2 2 -10.5 10t-11 10.5t-9.5 10.5t-9.5 12.5t-6.5 12t-5 15.5q-1 1 -3 9.5t-2.5 11.5t-2.5 10.5t-2.5 11.5t-1.5 10.5t-1.5 11t-1 10.5t-0.5 11q2 6 5 22t7.5 33t12 37.5t21.5 41.5t34 40q17 24 36.5 43t37.5 30t36 18.5t35 11.5
t31.5 6.5t28.5 5t23 7.5q-22 -26 -36.5 -44t-31 -40t-26 -38t-16 -32.5t-6.5 -28.5q0 -7 2 -13q2 0 10 0.5t15 0.5q89 0 114 -88q5 -19 5 -38q0 -47 -27.5 -88t-70.5 -61zM239 784q-30 -16 -68 -16q-26 0 -53.5 8.5t-51.5 24.5q-1 2 -9.5 10t-11.5 11t-9.5 10t-9.5 12
t-6.5 12.5t-5.5 14.5q0 2 -2 9t-2 9t-1.5 8t-2 8.5t-2 8.5t-2 9.5t-1 8.5t-0.5 9t-0.5 8.5t-0.5 8.5q2 5 5 21.5t7.5 33.5t12 37.5t21.5 41.5t33 39q18 25 37.5 44t37.5 30t35.5 18.5t35 11.5t31.5 6t28 5t23 8q-21 -26 -35.5 -44t-31 -40t-26 -38.5t-16.5 -32.5t-7 -28
q0 -8 3 -13q2 0 10.5 0.5t13.5 0.5q90 0 115 -88q5 -19 5 -38q0 -47 -28 -88t-71 -61z" />
    <glyph glyph-name="quotedblright" unicode="&#x201d;" 
d="M98 1238q32 16 68 16q56 0 105 -33q2 -2 10.5 -10t11 -10.5t9.5 -10.5t9.5 -12.5t6.5 -12t5 -15.5q1 -1 3 -9.5t2.5 -11.5t2.5 -10.5t2.5 -11.5t1.5 -10.5t1.5 -11t1 -10.5t0.5 -11q-2 -6 -5 -22t-7.5 -33t-12 -37.5t-21.5 -41.5t-34 -40q-17 -24 -36.5 -43t-37.5 -30
t-36 -18.5t-35 -11.5t-31.5 -6.5t-28.5 -5t-23 -7.5q22 26 36.5 44t31 40t26 38t16 32.5t6.5 28.5q0 7 -2 13q-2 0 -10 -0.5t-15 -0.5q-89 0 -114 88q-5 19 -5 38q0 47 27.5 88t70.5 61zM477 1241q30 16 68 16q26 0 53.5 -8.5t51.5 -24.5q1 -2 9.5 -10t11.5 -11t9.5 -10
t9.5 -12t6.5 -12.5t5.5 -14.5q0 -2 2 -9t2 -9t1.5 -8t2 -8.5t2 -8.5t2 -9.5t1 -8.5t0.5 -9t0.5 -8.5t0.5 -8.5q-2 -5 -5 -21.5t-7.5 -33.5t-12 -37.5t-21.5 -41.5t-33 -39q-18 -25 -37.5 -44t-37.5 -30t-35.5 -18.5t-35 -11.5t-31.5 -6t-28 -5t-23 -8q21 26 35.5 44t31 40
t26 38.5t16.5 32.5t7 28q0 8 -3 13q-2 0 -10.5 -0.5t-13.5 -0.5q-90 0 -115 88q-5 19 -5 38q0 47 28 88t71 61z" />
    <glyph glyph-name="quotedblbase" unicode="&#x201e;" 
d="M98 278q32 16 68 16q56 0 105 -33q2 -2 10.5 -10t11 -10.5t9.5 -10.5t9.5 -12.5t6.5 -12t5 -15.5q1 -1 3 -9.5t2.5 -11.5t2.5 -10.5t2.5 -11.5t1.5 -10.5t1.5 -11t1 -10.5t0.5 -11q-2 -6 -5 -22t-7.5 -33t-12 -37.5t-21.5 -41.5t-34 -40q-17 -24 -36.5 -43t-37.5 -30
t-36 -18.5t-35 -11.5t-31.5 -6.5t-28.5 -5t-23 -7.5q22 26 36.5 44t31 40t26 38t16 32.5t6.5 28.5q0 7 -2 13q-2 0 -10 -0.5t-15 -0.5q-89 0 -114 88q-5 19 -5 38q0 47 27.5 88t70.5 61zM477 281q30 16 68 16q26 0 53.5 -8.5t51.5 -24.5q1 -2 9.5 -10t11.5 -11t9.5 -10
t9.5 -12t6.5 -12.5t5.5 -14.5q0 -2 2 -9t2 -9t1.5 -8t2 -8.5t2 -8.5t2 -9.5t1 -8.5t0.5 -9t0.5 -8.5t0.5 -8.5q-2 -5 -5 -21.5t-7.5 -33.5t-12 -37.5t-21.5 -41.5t-33 -39q-18 -25 -37.5 -44t-37.5 -30t-35.5 -18.5t-35 -11.5t-31.5 -6t-28 -5t-23 -8q21 26 35.5 44t31 40
t26 38.5t16.5 32.5t7 28q0 8 -3 13q-2 0 -10.5 -0.5t-13.5 -0.5q-90 0 -115 88q-5 19 -5 38q0 47 28 88t71 61z" />
    <glyph glyph-name="dagger" unicode="&#x2020;" horiz-adv-x="1014" 
d="M486 1022q-8 97 -54 178q-57 101 -57 129q0 49 36 78.5t96 29.5q57 0 94.5 -27.5t37.5 -71.5q0 -32 -55 -137q-46 -85 -55 -179q96 8 177 54q101 57 129 57q49 0 79 -36t30 -96q0 -57 -27.5 -94.5t-72.5 -37.5q-32 0 -136 55q-85 46 -179 57q8 -176 110 -277
q-106 -460 -112 -974h-38q-6 514 -114 974q102 101 111 277q-96 -10 -178 -55q-101 -57 -129 -57q-49 0 -78.5 36t-29.5 96q0 57 27.5 94.5t71.5 37.5q32 0 137 -56q85 -46 179 -55z" />
    <glyph glyph-name="daggerdbl" unicode="&#x2021;" horiz-adv-x="1014" 
d="M528 186q94 11 179 57q104 55 136 55q45 0 72.5 -37.5t27.5 -94.5q0 -60 -30 -96t-79 -36q-28 0 -129 57q-81 46 -177 54q9 -94 55 -179q55 -105 55 -137q0 -44 -37.5 -71.5t-94.5 -27.5q-60 0 -96 29.5t-36 78.5q0 28 57 129q46 81 54 178q-94 -9 -179 -55
q-105 -56 -137 -56q-44 0 -71.5 37.5t-27.5 94.5q0 60 29.5 96t78.5 36q28 0 129 -57q82 -45 178 -55q-9 226 -111 398q102 171 111 397q-96 -10 -178 -55q-101 -57 -129 -57q-49 0 -78.5 36t-29.5 96q0 57 27.5 94.5t71.5 37.5q32 0 137 -56q85 -46 179 -55q-8 97 -54 178
q-57 101 -57 129q0 49 36 78.5t96 29.5q57 0 94.5 -27.5t37.5 -71.5q0 -32 -55 -137q-46 -85 -55 -179q96 8 177 54q101 57 129 57q49 0 79 -36t30 -96q0 -57 -27.5 -94.5t-72.5 -37.5q-32 0 -136 55q-85 46 -179 57q8 -226 110 -397q-102 -172 -110 -398z" />
    <glyph glyph-name="bullet" unicode="&#x2022;" horiz-adv-x="1024" 
d="M216 718q0 123 87 209t210 86q122 0 208.5 -86.5t86.5 -208.5t-87.5 -209.5t-209.5 -87.5q-123 0 -209 87t-86 210z" />
    <glyph glyph-name="ellipsis" unicode="&#x2026;" horiz-adv-x="1200" 
d="M119 323q20 6 41 6q33 0 66.5 -15t58.5 -39q2 -4 10 -14.5t11 -15.5t8.5 -14.5t7.5 -18t2 -17.5v-44q0 -24 -2 -40q-10 -18 -18.5 -33t-21.5 -31t-25.5 -26t-28.5 -17.5t-33 -7.5q-7 0 -21 -0.5t-22 -0.5q-38 0 -62 13q-37 21 -62.5 57t-25.5 77q0 30 8 59.5t23 54
t37 42.5t49 25zM499 323q20 6 41 6q33 0 66.5 -15t58.5 -39q2 -4 10 -14.5t11 -15.5t8.5 -14.5t7.5 -18t2 -17.5v-44q0 -24 -2 -40q-10 -18 -18.5 -33t-21.5 -31t-25.5 -26t-28.5 -17.5t-33 -7.5q-7 0 -21 -0.5t-22 -0.5q-38 0 -62 13q-37 21 -62.5 57t-25.5 77q0 30 8 59.5
t23 54t37 42.5t49 25zM869 323q20 6 41 6q33 0 66.5 -15t58.5 -39q2 -4 10 -14.5t11 -15.5t8.5 -14.5t7.5 -18t2 -17.5v-44q0 -24 -2 -40q-10 -18 -18.5 -33t-21.5 -31t-25.5 -26t-28.5 -17.5t-33 -7.5q-7 0 -21 -0.5t-22 -0.5q-38 0 -62 13q-37 21 -62.5 57t-25.5 77
q0 30 8 59.5t23 54t37 42.5t49 25z" />
    <glyph glyph-name="guilsinglleft" unicode="&#x2039;" horiz-adv-x="750" 
d="M274 547l8 -6q7 -5 15 -10q56 -32 204 -91q133 -54 145 -57l5 -3q6 -4 7 -9l-95 -164q-2 -3 -5 -6t-6 -5.5t-12 -2.5q-3 2 -6 5q-233 146 -245 159q-15 7 -44 24q-11 6 -25 12q-28 15 -74 37q-16 4 -33 10q-8 -5 -9 -5q-4 2 -6 6q-1 2 -3 5q-46 15 -84 36l-18 68l3 5
l-4 7l28 58q30 12 77 27l2 4q2 4 6 6q1 0 9 -4q16 5 31 9q46 22 74 37q14 6 25 12q19 7 44 24q12 14 245 159q3 4 6 5q9 0 12 -2.5t6 -5.5l5 -5l95 -165q-1 -5 -7 -8l-5 -3q-12 -4 -145 -57q-148 -60 -204 -92q-8 -5 -15 -9q-4 -3 -7 -5z" />
    <glyph glyph-name="guilsinglright" unicode="&#x203a;" horiz-adv-x="750" 
d="M369 552q-7 4 -15 9q-56 32 -204 92q-133 53 -145 57l-5 3q-6 3 -7 8l95 165l5 5t6 5.5t12 2.5q3 -1 6 -5q233 -145 245 -159q25 -17 44 -24q11 -6 25 -12q28 -15 74 -37q15 -4 31 -9q8 4 9 4q4 -2 6 -6l2 -4q47 -15 77 -27l28 -58l-4 -7l3 -5l-18 -68q-38 -21 -84 -36
q-2 -3 -3 -5q-2 -4 -6 -6q-1 0 -9 5q-17 -6 -33 -10q-46 -22 -74 -37q-14 -6 -25 -12q-29 -17 -44 -24q-12 -13 -245 -159q-3 -3 -6 -5q-9 0 -12 2.5t-6 5.5t-5 6l-95 164q1 5 7 9l5 3q12 3 145 57q148 59 204 91q8 5 15 10l8 6q-3 2 -7 5z" />
    <glyph glyph-name="fraction" unicode="&#x2044;" horiz-adv-x="850" 
d="M696 1091l-120 -258l-256 -562l-16 -45q-26 -60 -29 -97t-7 -115l9 -19l-18 9h-5q-1 0 -2 2l-40 1l-46 2q-38 1 -46 1h-38l-25 -3l-25 -3q-1 1 -20 2h-18q5 45 6 69q14 13 28 32t25 35q18 26 25 39q2 4 5 7q13 26 34.5 64t39.5 74q19 35 32 67l133 281l133 269
q39 107 39 143q0 5 -1 9q-19 79 -19 115q0 54 32 54h41l3 -6h80q13 -3 26 -3q16 0 31 3q11 2 30 2q12 0 22 -1q18 -1 26 -1q15 0 20 2q2 -10 2 -18q0 -40 -31 -63q-19 -14 -28 -30q-20 -34 -32 -58z" />
    <glyph glyph-name="fraction" unicode="&#x2215;" horiz-adv-x="850" 
d="M696 1091l-120 -258l-256 -562l-16 -45q-26 -60 -29 -97t-7 -115l9 -19l-18 9h-5q-1 0 -2 2l-40 1l-46 2q-38 1 -46 1h-38l-25 -3l-25 -3q-1 1 -20 2h-18q5 45 6 69q14 13 28 32t25 35q18 26 25 39q2 4 5 7q13 26 34.5 64t39.5 74q19 35 32 67l133 281l133 269
q39 107 39 143q0 5 -1 9q-19 79 -19 115q0 54 32 54h41l3 -6h80q13 -3 26 -3q16 0 31 3q11 2 30 2q12 0 22 -1q18 -1 26 -1q15 0 20 2q2 -10 2 -18q0 -40 -31 -63q-19 -14 -28 -30q-20 -34 -32 -58z" />
    <glyph glyph-name="franc" unicode="&#x20a3;" horiz-adv-x="850" 
d="M143 370q11 87 11 179q0 280 -99 563q-61 63 -61 91l23 7l418 -22q136 0 289 53q12 0 22 -281l-7 -8h-8q-90 61 -197 61q-190 0 -190 -31v-83q0 -56 22 -137q69 0 198 122h8l22 -23v-289l-7 -114h-15q-144 166 -213 182v-7l-8 -152q0 -56 4 -108q44 6 101 14
q142 20 154 23h6q7 0 10 -4v-190q0 -3 -1 -7t-2.5 -7.5t-4 -6t-5.5 -2.5t-8 1q-150 5 -223 10q22 -85 60 -149l23 -23v-7q0 -34 -425 -53l-8 -8l-8 8v7q52 100 84 211q-50 -10 -106 -16l-2 66v50q0 40 2 79q0 5 2 8q1 1 14 1q21 0 125 -8z" />
    <glyph glyph-name="lira" unicode="&#x20a4;" horiz-adv-x="1150" 
d="M511 1233l61 8q42 0 280 -84h25q48 0 127 84q12 0 12 -23q-55 -294 -122 -365q-127 152 -298 152q-134 0 -165 -152l-7 -150h-4v-7l23 -22q112 0 235 121q31 -134 31 -357v-38h-15q-208 91 -244 91h-22q-23 -82 -23 -159v-76q0 -23 144 -31q289 0 289 69l99 98
q23 -45 23 -159v-205l-16 -16l-798 -22l-7 -8h-8l-7 8h-8l-99 -16l-7 23q159 246 173 498q-115 -11 -183 -45v300q82 -41 197 -82l3 32q8 388 311 533z" />
    <glyph glyph-name="peseta" unicode="&#x20a7;" horiz-adv-x="1050" 
d="M427 629l30 -15q243 55 243 205q0 127 -167 152h-23q-76 0 -76 -197zM203 366l3 88v380q0 162 -205 396l15 15q544 -38 631 -84q142 -40 190 -129q114 -178 114 -296v-16q0 -179 -486 -304q-31 0 -31 -15v-17q11 1 22 3q142 20 154 23h6q7 0 10 -4v-190q0 -3 -1 -7
t-2.5 -7.5t-4 -6t-5.5 -2.5t-8 1q-85 3 -145 6q30 -106 96 -179v-7q-5 -23 -61 -23h-334q-84 0 -84 23q104 37 119 197q-20 -3 -43 -10q-69 -18 -151 -27l-2 66v50q0 40 2 79q0 5 2 8q1 1 14 1q27 0 185 -12z" />
    <glyph glyph-name="Euro" unicode="&#x20ac;" horiz-adv-x="1000" 
d="M447 300q61 -47 156 -47q170 0 274 175h7l16 -23v-137q0 -198 -46 -198l-334 -76q-175 0 -346 313q-10 -3 -21 -6q-69 -18 -151 -27l-2 66v50q0 40 2 79q0 5 2 8q1 1 14 1q21 0 117 -7q-3 30 -3 55q0 50 2 94q-57 -13 -122 -20l-2 66v50q0 40 2 79q0 5 2 8q1 1 14 1
q21 0 122 -7q19 107 58 140q128 146 327 220l30 8h53l122 -38q41 0 144 83h8l8 -38v-68q0 -327 -31 -327h-7q-154 137 -266 137q-162 0 -223 -114q42 6 93 13q142 20 154 23h6q7 0 10 -4v-190q0 -3 -1 -7t-2.5 -7.5t-4 -6t-5.5 -2.5t-8 1q-228 8 -278 14v-9q0 -86 14 -152
q46 5 105 14q142 20 154 23h6q7 0 10 -4v-190q0 -3 -1 -7t-2.5 -7.5t-4 -6t-5.5 -2.5t-8 1q-94 3 -158 6z" />
    <glyph glyph-name="afii61352" unicode="&#x2116;" horiz-adv-x="875" 
d="M229 1218q207 -4 207 -21q-46 -71 -46 -106q-12 -59 -12 -140q0 -210 40 -246l24 -31v-6l-140 -24q-15 0 -24 64q-31 83 -104 234h-3l-6 -112q0 -70 40 -101l9 -12q0 -11 -204 -24l-3 3v6q82 48 82 197q0 154 -82 210l-9 12v3l21 3h177q8 0 51 -137q50 -120 58 -127l3 67
q0 226 -88 273l-3 3v10zM599 1124h15q102 0 141 -110q15 -52 15 -95v-42l4 -34q0 -91 -126 -137l-45 -8q-78 0 -133 61q-46 59 -46 156v23q0 119 129 178zM538 923q9 -126 61 -126h8q67 0 79 133v4q0 91 -68 91q-61 0 -80 -95v-7z" />
    <glyph glyph-name="trademark" unicode="&#x2122;" horiz-adv-x="1193" 
d="M418 1109q3 -44 5 -121l3 -12q-4 -15 -9 -15q-51 82 -152 82l-18 -4v-18q0 -282 21 -282q48 -65 48 -76h-54l-143 -16l-3 10q39 56 39 136l-12 240l-12 10h-9q-52 0 -95 -67l-8 -3q-14 7 -16 136l-3 4l3 2l82 4h134q170 0 170 21l18 24q6 0 10 -42l21 3h221q10 0 64 -171
l35 -83h3l92 250l3 4h225l26 -4v-3q-99 -87 -99 -164q-10 -8 -15 -118q0 -181 103 -243v-4q0 -7 -12 -7q-247 15 -247 34q61 43 61 144l-7 133h-4q-76 -158 -76 -171q2 -23 19 -45q0 -14 -69 -31h-7q-48 9 -76 35q13 20 23 60l-69 152h-4l-7 -140q0 -86 49 -126l12 -15
q0 -14 -255 -30l-4 4v7q103 60 103 247q0 193 -103 262z" />
    <glyph glyph-name="partialdiff" unicode="&#x2202;" horiz-adv-x="1650" 
d="M0 200v1100q0 200 200 200h1100q200 0 200 -200v-1100q0 -200 -200 -200h-1100q-200 0 -200 200zM1475 201v1099q0 175 -175 175h-1100q-174 0 -175 -175v-1100q1 -175 175 -175h1101q174 0 174 176z" />
    <glyph glyph-name="Delta" unicode="&#x2206;" horiz-adv-x="1650" 
d="M0 200v1100q0 200 200 200h1100q200 0 200 -200v-1100q0 -200 -200 -200h-1100q-200 0 -200 200zM1475 201v1099q0 175 -175 175h-1100q-174 0 -175 -175v-1100q1 -175 175 -175h1101q174 0 174 176z" />
    <glyph glyph-name="product" unicode="&#x220f;" horiz-adv-x="1650" 
d="M0 200v1100q0 200 200 200h1100q200 0 200 -200v-1100q0 -200 -200 -200h-1100q-200 0 -200 200zM1475 201v1099q0 175 -175 175h-1100q-174 0 -175 -175v-1100q1 -175 175 -175h1101q174 0 174 176z" />
    <glyph glyph-name="summation" unicode="&#x2211;" horiz-adv-x="1650" 
d="M0 200v1100q0 200 200 200h1100q200 0 200 -200v-1100q0 -200 -200 -200h-1100q-200 0 -200 200zM1475 201v1099q0 175 -175 175h-1100q-174 0 -175 -175v-1100q1 -175 175 -175h1101q174 0 174 176z" />
    <glyph glyph-name="minus" unicode="&#x2212;" horiz-adv-x="1650" 
d="M0 200v1100q0 200 200 200h1100q200 0 200 -200v-1100q0 -200 -200 -200h-1100q-200 0 -200 200zM1475 201v1099q0 175 -175 175h-1100q-174 0 -175 -175v-1100q1 -175 175 -175h1101q174 0 174 176z" />
    <glyph glyph-name="radical" unicode="&#x221a;" horiz-adv-x="1650" 
d="M0 200v1100q0 200 200 200h1100q200 0 200 -200v-1100q0 -200 -200 -200h-1100q-200 0 -200 200zM1475 201v1099q0 175 -175 175h-1100q-174 0 -175 -175v-1100q1 -175 175 -175h1101q174 0 174 176z" />
    <glyph glyph-name="infinity" unicode="&#x221e;" horiz-adv-x="1650" 
d="M0 200v1100q0 200 200 200h1100q200 0 200 -200v-1100q0 -200 -200 -200h-1100q-200 0 -200 200zM1475 201v1099q0 175 -175 175h-1100q-174 0 -175 -175v-1100q1 -175 175 -175h1101q174 0 174 176z" />
    <glyph glyph-name="integral" unicode="&#x222b;" horiz-adv-x="1650" 
d="M0 200v1100q0 200 200 200h1100q200 0 200 -200v-1100q0 -200 -200 -200h-1100q-200 0 -200 200zM1475 201v1099q0 175 -175 175h-1100q-174 0 -175 -175v-1100q1 -175 175 -175h1101q174 0 174 176z" />
    <glyph glyph-name="approxequal" unicode="&#x2248;" horiz-adv-x="1650" 
d="M0 200v1100q0 200 200 200h1100q200 0 200 -200v-1100q0 -200 -200 -200h-1100q-200 0 -200 200zM1475 201v1099q0 175 -175 175h-1100q-174 0 -175 -175v-1100q1 -175 175 -175h1101q174 0 174 176z" />
    <glyph glyph-name="lessequal" unicode="&#x2264;" horiz-adv-x="1650" 
d="M0 200v1100q0 200 200 200h1100q200 0 200 -200v-1100q0 -200 -200 -200h-1100q-200 0 -200 200zM1475 201v1099q0 175 -175 175h-1100q-174 0 -175 -175v-1100q1 -175 175 -175h1101q174 0 174 176z" />
    <glyph glyph-name="greaterequal" unicode="&#x2265;" horiz-adv-x="1650" 
d="M0 200v1100q0 200 200 200h1100q200 0 200 -200v-1100q0 -200 -200 -200h-1100q-200 0 -200 200zM1475 201v1099q0 175 -175 175h-1100q-174 0 -175 -175v-1100q1 -175 175 -175h1101q174 0 174 176z" />
    <glyph glyph-name="uniF001" unicode="&#xf001;" horiz-adv-x="1073" 
 />
    <glyph glyph-name="uniF001" unicode="&#xfb01;" horiz-adv-x="1073" 
 />
    <glyph glyph-name="uniF002" unicode="&#xf002;" horiz-adv-x="1081" 
 />
    <glyph glyph-name="uniF002" unicode="&#xfb02;" horiz-adv-x="1081" 
 />
    <glyph glyph-name="afii10017.001" horiz-adv-x="1000" 
d="M669 1302h23q20 0 38 -281l83 -600q89 -368 183 -502q19 0 38 -61l-510 -68l-7 23q114 147 114 349v152h-145l-83 8q-31 -8 -31 -53q0 -144 114 -243v-8l-30 -15q-456 9 -456 45q141 169 220 403q99 299 99 547v23q0 57 -129 129q-38 0 -38 23q38 33 517 129zM524 816
l-106 -319v-8h15l167 8v7q-38 221 -68 312h-8z" />
    <glyph glyph-name="afii10065" unicode="&#x430;" 
d="M535 1182h19q16 0 30 -225l66 -480q72 -295 147 -402q15 0 30 -49l-408 -54l-5 18q91 118 91 280v121h-116l-67 7q-24 -7 -24 -43q0 -115 91 -194v-7l-24 -12q-365 8 -365 36q113 136 176 323q79 239 79 437v19q0 45 -103 103q-30 0 -30 18q30 27 413 104zM419 793
l-85 -255v-7h12l134 7v5q-30 177 -54 250h-7z" />
    <glyph glyph-name="afii10019.001" horiz-adv-x="1000" 
d="M88 1218h84q344 -20 608 -174q83 -70 83 -130v-15q0 -88 -174 -251v-7q205 -80 205 -167v-16q0 -107 -266 -357q-170 -106 -525 -167l-7 23q91 115 91 327q-25 828 -106 828q0 21 -84 84q27 22 91 22zM392 762v-76h23q198 48 198 198v15q-26 69 -84 69h-30q-84 0 -84 -38
q-23 -68 -23 -168zM392 527v-145q0 -106 38 -106l46 -8q131 0 190 183v7q0 56 -122 76h-23z" />
    <glyph glyph-name="afii10067" unicode="&#x432;" 
d="M71 1114h67q275 -16 486 -139q67 -56 67 -104v-12q0 -70 -139 -201v-5q164 -64 164 -134v-13q0 -85 -213 -285q-136 -85 -420 -134l-6 19q73 92 73 261q-20 663 -85 663q0 16 -67 67q22 17 73 17zM314 750v-61h18q159 38 159 158v12q-21 55 -67 55h-24q-68 0 -68 -30
q-18 -54 -18 -134zM314 562v-116q0 -85 30 -85l37 -7q105 0 152 147v5q0 45 -97 61h-19z" />
    <glyph glyph-name="afii10035.001" horiz-adv-x="875" 
d="M754 1210h8l8 -38v-68q0 -327 -31 -327h-7q-154 137 -266 137q-259 0 -259 -289q0 -372 266 -372q170 0 274 175h7l16 -23v-137q0 -198 -46 -198l-334 -76q-181 0 -358 335q-30 120 -30 197q0 346 76 411q128 146 327 220l30 8h53l122 -38q41 0 144 83z" />
    <glyph glyph-name="afii10083" unicode="&#x441;" horiz-adv-x="700" 
d="M604 1108h6l6 -30v-55q0 -261 -24 -261h-6q-123 109 -213 109q-207 0 -207 -231q0 -298 213 -298q136 0 219 140h6l12 -18v-110q0 -158 -36 -158l-268 -61q-144 0 -286 268q-24 96 -24 158q0 277 61 329q102 116 261 176l24 6h43l97 -30q33 0 116 66z" />
    <glyph glyph-name="afii10022.001" horiz-adv-x="1100" 
d="M914 1198h8q43 0 60 -433v-8h-22q-133 167 -282 167l-212 8q-46 -30 -46 -190v-46l23 -22q112 0 235 121q31 -134 31 -357v-38h-15q-208 91 -244 91h-22q-23 -82 -23 -159v-76q0 -23 144 -31q289 0 289 69l99 98q23 -45 23 -159v-205l-16 -16l-798 -22l-7 -8h-8l-7 8h-8
l-99 -16l-7 23q174 270 174 547q0 331 -167 586l-15 38h8l729 -61q68 11 175 91z" />
    <glyph glyph-name="afii10070" unicode="&#x435;" horiz-adv-x="880" 
d="M732 1098h6q34 0 48 -346v-6h-18q-106 133 -225 133l-170 7q-37 -24 -37 -152v-37l19 -18q89 0 188 97q25 -107 25 -286v-30h-12q-167 73 -196 73h-17q-19 -66 -19 -127v-61q0 -19 116 -25q231 0 231 55l79 79q18 -36 18 -128v-164l-12 -12l-639 -18l-5 -6h-7l-5 6h-7
l-79 -13l-6 19q140 216 140 437q0 265 -134 469l-12 30h6l584 -48q54 8 140 72z" />
    <glyph glyph-name="afii10031.001" horiz-adv-x="1200" 
d="M1072 1439l7 -7v-8q-175 -145 -175 -380v-137l-7 -61l7 -83v-350q0 -325 228 -456v-15h-7l-570 -61l-8 8v15q152 145 152 464l-15 266h-114q-182 -5 -182 -23q0 -249 152 -479l30 -38v-8l-15 -15l-152 15h-365l-15 16v7q106 69 106 137q69 144 69 372q0 376 -198 593v15
q0 19 494 54h46l7 -8h8q-160 -299 -160 -448v-16l38 -7h8q213 0 243 38v15q0 377 -137 494q-14 0 -45 53v15l91 8z" />
    <glyph glyph-name="afii10079" unicode="&#x43d;" horiz-adv-x="960" 
d="M858 1291l5 -5v-7q-140 -116 -140 -304v-109l-5 -49l5 -67v-280q0 -260 183 -364v-12h-6l-456 -49l-6 6v12q121 116 121 371l-12 213h-91q-146 -4 -146 -18q0 -199 122 -383l24 -31v-6l-12 -12l-122 12h-292l-12 13v5q85 55 85 110q55 115 55 297q0 301 -158 475v12
q0 15 395 43h37l6 -6h6q-128 -240 -128 -359v-13l30 -5h7q170 0 194 30v12q0 302 -109 395q-12 0 -36 43v12l72 6z" />
    <glyph glyph-name="afii10028" unicode="&#x41a;" horiz-adv-x="1210" 
d="M122 1427l68 -10h324q70 0 77 -27q-125 -268 -125 -463h10q248 143 248 387q0 76 39 76q496 -36 496 -76q-73 -31 -363 -321l-210 -188q486 -179 486 -357l10 -10l-47 -255q0 -68 228 -188v-29q-134 -141 -295 -141h-10q-176 0 -200 273q-64 510 -182 510q-88 65 -228 65
v-131q0 -228 190 -500l-57 -18h-9l-564 -58l-19 29q210 157 210 678l-9 123v217q-46 339 -124 339l-29 38v9q0 18 85 18v10z" />
    <glyph glyph-name="afii10076" unicode="&#x43a;" horiz-adv-x="960" 
d="M82 1060l43 -6h206q45 0 49 -18q-79 -173 -79 -298h6q158 92 158 249q0 49 25 49q316 -23 316 -49q-47 -20 -231 -207l-134 -122q310 -115 310 -230l6 -6l-30 -164q0 -44 145 -122v-18q-85 -92 -188 -92h-6q-112 0 -127 176q-41 329 -116 329q-56 43 -146 43v-85
q0 -147 122 -323l-37 -12h-6l-359 -36l-12 18q134 102 134 438l-6 79v140q-30 218 -79 218l-19 25v6q0 12 55 12v6z" />
    <glyph glyph-name="afii10030.001" horiz-adv-x="1450" 
d="M56 1086h441q21 0 129 -342l69 -167h7l183 501l7 8h449l53 -8v-7q-198 -174 -198 -327q-20 -17 -30 -236q0 -363 205 -486v-8q0 -15 -23 -15q-494 31 -494 69q122 85 122 288l-15 266h-8q-152 -316 -152 -342q5 -47 38 -91q0 -27 -137 -61h-15q-96 17 -152 69
q26 41 46 121l-137 304h-8l-15 -281q0 -172 99 -251l23 -30q0 -28 -510 -61l-7 8v15q205 120 205 494q0 385 -205 524l-23 31v7z" />
    <glyph glyph-name="afii10078" unicode="&#x43c;" horiz-adv-x="1160" 
d="M44 1009h353q17 0 103 -274l56 -133h5l147 400l5 7h359l43 -7v-5q-159 -139 -159 -262q-16 -13 -24 -189q0 -290 164 -388v-7q0 -12 -18 -12q-395 25 -395 55q97 68 97 231l-12 213h-6q-122 -253 -122 -274q4 -38 31 -73q0 -21 -110 -49h-12q-77 14 -121 56q20 32 36 96
l-109 244h-7l-12 -225q0 -138 80 -201l18 -24q0 -22 -408 -49l-6 7v12q164 96 164 395q0 308 -164 419l-18 25v5z" />
    <glyph glyph-name="afii10032.001" 
d="M350 1030h30q203 0 281 -221q31 -104 31 -190v-83l7 -69q0 -181 -251 -273l-91 -16q-156 0 -266 122q-91 118 -91 312v45q0 238 258 357zM228 627q17 -251 122 -251h15q135 0 159 266v8q0 182 -136 182q-122 0 -160 -190v-15z" />
    <glyph glyph-name="afii10080.001" horiz-adv-x="640" 
d="M280 964h24q162 0 225 -177q25 -83 25 -152v-66l5 -55q0 -145 -201 -219l-72 -13q-125 0 -213 98q-73 94 -73 250v36q0 190 206 285zM182 642q14 -201 98 -201h12q108 0 127 213v6q0 146 -109 146q-97 0 -128 -152v-12z" />
    <glyph glyph-name="afii10034.001" horiz-adv-x="1050" 
d="M16 1245q544 -38 631 -84q142 -40 190 -129q114 -178 114 -296v-16q0 -179 -486 -304q-31 0 -31 -15q0 -245 122 -380v-7q-5 -23 -61 -23h-334q-84 0 -84 23q122 44 122 258l7 182v380q0 162 -205 396zM427 629l30 -15q243 55 243 205q0 127 -167 152h-23q-76 0 -76 -197
z" />
    <glyph glyph-name="afii10082" unicode="&#x440;" horiz-adv-x="840" 
d="M13 1136q435 -30 505 -67q113 -32 152 -103q91 -143 91 -237v-13q0 -143 -389 -243q-25 0 -25 -12q0 -196 98 -304v-6q-4 -18 -49 -18h-267q-67 0 -67 18q97 35 97 207l6 145v304q0 130 -164 317zM342 643l24 -12q194 44 194 164q0 102 -133 122h-19q-61 0 -61 -158z" />
    <glyph glyph-name="afii10036.001" horiz-adv-x="1150" 
d="M1018 1280q31 0 38 -441l8 -30q-10 -38 -23 -38q-126 205 -380 205l-45 -8v-45q0 -707 53 -707q121 -162 121 -190h-136l-358 -38l-7 23q99 140 99 342l-31 600l-30 23h-23q-129 0 -236 -167l-22 -8q-34 19 -38 342l-8 8l8 7l205 8h334q426 0 426 53z" />
    <glyph glyph-name="afii10084" unicode="&#x442;" horiz-adv-x="920" 
d="M814 1164q25 0 31 -353l6 -24q-8 -30 -18 -30q-101 164 -304 164l-36 -7v-36q0 -565 42 -565q97 -130 97 -152h-109l-286 -31l-6 19q79 112 79 273l-24 480l-24 19h-19q-103 0 -189 -134l-17 -6q-27 15 -31 273l-6 7l6 5l164 7h268q340 0 340 42z" />
    <glyph glyph-name="afii10039.001" horiz-adv-x="1300" 
d="M726 1304h8l486 -159l8 -8v-7q-257 -103 -494 -540v-8q167 -284 273 -395q16 0 107 -114q53 -20 53 -38q0 -25 -266 -53v8l-8 -8h-7l-8 8l-46 -16h-7l-8 8l-83 -15v7l-8 -7h-8l-15 15l23 106v23q-50 274 -91 274h-8q-68 -187 -68 -243v-69l23 -83l-23 -16l-8 8l-7 -8h-8
l-8 8l-7 -8h-15l-8 8l-8 -8q-387 25 -387 38q0 20 159 183q152 189 244 387v16q-258 413 -502 486v8q14 16 274 106q121 65 205 84h7v-8q-30 -81 -30 -129q0 -137 160 -357q129 319 129 410z" />
    <glyph glyph-name="afii10087" unicode="&#x445;" horiz-adv-x="1040" 
d="M581 1183h6l389 -127l6 -6v-6q-205 -82 -395 -432v-6q134 -228 218 -316q13 0 86 -92q42 -16 42 -30q0 -20 -212 -42v6l-7 -6h-5l-7 6l-37 -13h-5l-7 7l-66 -12v5l-6 -5h-7l-12 12l19 84v19q-40 219 -73 219h-7q-54 -150 -54 -194v-56l18 -66l-18 -13l-6 7l-6 -7h-6l-7 7
l-5 -7h-12l-7 7l-6 -7q-310 20 -310 31q0 16 127 146q122 151 196 310v12q-207 331 -402 389v7q11 12 219 84q97 52 164 68h6v-7q-24 -65 -24 -103q0 -110 128 -286q103 256 103 328z" />
    <glyph glyph-name="afii10049" unicode="&#x42f;" horiz-adv-x="1146" 
d="M1163 1430v-9q-178 -412 -178 -594v-74l9 -122q53 -465 143 -554l-17 -16l-354 49l-119 -9v9l-8 8q127 164 127 415l-9 9q-41 0 -85 -25q-67 -61 -169 -423q-193 -522 -338 -522q-109 0 -186 33q-270 90 -270 179q0 152 160 269q26 0 26 -81q41 -131 152 -131h26
q51 0 109 41q25 8 144 399q0 222 118 350q-220 211 -220 285q0 209 246 367q0 72 676 163zM689 1169q-112 0 -151 -203q0 -142 219 -213l16 16v25l18 220v139z" />
    <glyph glyph-name="afii10097.003" horiz-adv-x="1707" 
 />
    <glyph glyph-name="afii10097" unicode="&#x44f;" 
d="M798 1201v-7q-128 -307 -128 -443v-55l6 -91q39 -347 104 -414l-12 -12l-256 37l-85 -6v6l-6 6q91 122 91 310l-6 6q-30 0 -61 -18q-48 -46 -121 -316q-140 -390 -244 -390q-78 0 -133 25q-195 67 -195 134q0 113 116 201q18 0 18 -61q30 -98 110 -98h18q37 0 78 31
q19 6 104 297q0 167 85 262q-158 157 -158 213q0 156 177 273q0 54 486 122zM457 1006q-81 0 -109 -152q0 -105 158 -158l12 12v18l13 164v104z" />
    <glyph glyph-name="afii10018" unicode="&#x411;" horiz-adv-x="1000" 
d="M376 1358q466 3 466 63l49 69q33 0 42 -498l9 -34q-12 -43 -26 -43q-137 232 -415 232l-54 -96q-12 -51 -17 -101.5t-5 -103.5v-35.5t2 -34.5h19q153 0 306 -51q223 -89 223 -189v-18q0 -119 -290 -402q-93 -61 -235.5 -107.5t-337.5 -81.5l-8 26q99 130 99 369
q-28 934 -115 934q0 24 -92 95q15 13 39.5 18.5t59.5 6.5zM427 596v-163q0 -120 42 -120l50 -9q143 0 207 207v7q0 64 -133 86h-25z" />
    <glyph glyph-name="afii10066" unicode="&#x431;" horiz-adv-x="1000" 
d="M353 1140q351 2 351 48l37 52q25 0 32 -376l6 -26q-9 -32 -19 -32q-103 175 -313 175l-41 -73q-9 -38 -12.5 -76.5t-3.5 -78.5v-26.5t1 -26.5h14q116 0 231 -38q169 -67 169 -142v-14q0 -90 -219 -304q-70 -46 -177.5 -81t-255.5 -61l-6 19q75 98 75 279q-21 705 -87 705
q0 18 -69 72q11 10 29.5 14t45.5 4zM391 565v-124q0 -90 32 -90l38 -7q107 0 156 156v6q0 48 -100 65h-19z" />
    <glyph glyph-name="afii10020.001" horiz-adv-x="1150" 
d="M943 1276q31 0 38 -441l8 -30q-10 -38 -23 -38q-126 205 -476 195l-45 -8v-45q-1 -706 52 -706q121 -162 121 -190h-136l-358 -38l-7 23q99 140 99 342q40 634 -89 459q-34 19 -38 342l-8 8l8 7l205 8l178 -2q426 0 426 53z" />
    <glyph glyph-name="afii10068.001" horiz-adv-x="1150" 
d="M887 1105q25 0 31 -367l7 -25q-9 -32 -19 -32q-105 171 -395 163l-37 -7v-37q-1 -588 43 -588q100 -135 100 -158h-112l-297 -31l-5 19q82 116 82 284q33 528 -74 382q-28 16 -32 285l-6 6l6 6l170 7l148 -2q352 0 352 44z" />
    <glyph glyph-name="afii10023" unicode="&#x401;" horiz-adv-x="1279" 
d="M1200 1474h11q56 0 79 -531v-10h-29q-175 205 -372 205l-279 10q-60 -38 -60 -234v-57l29 -26q148 0 310 148q42 -165 42 -438v-47h-21q-273 112 -321 112h-29q-30 -101 -30 -195v-93q0 -29 189 -39q382 0 382 85l129 120q31 -55 31 -195v-251l-22 -20l-1051 -27l-9 -10
h-11l-9 10h-10l-131 -20l-9 29q229 331 229 671q0 406 -220 719l-20 47h11l961 -75q89 14 230 112zM327 2083q26 8 54 8q43 0 87.5 -19t76.5 -48q3 -5 13.5 -18t14.5 -19t11.5 -17.5t10 -22t2.5 -21.5v-55q0 -29 -3 -48q-13 -23 -24 -41t-28.5 -38t-34 -32t-37 -21t-43.5 -9
q-9 0 -27.5 -1t-29.5 -1q-50 0 -81 16q-49 26 -83 70t-34 94q0 38 11 74t30.5 66t48.5 52t65 31zM854 2083q26 8 54 8q43 0 87.5 -19t77.5 -48q2 -5 12.5 -18t14.5 -19t11.5 -17.5t10 -22t2.5 -21.5v-55q0 -29 -3 -48q-12 -23 -23.5 -41t-29 -38t-33.5 -32t-37 -21t-44 -9
q-10 0 -28 -1t-29 -1q-50 0 -81 16q-50 26 -83 70t-33 94q0 38 10.5 74t30.5 66t48.5 52t64.5 31z" />
    <glyph glyph-name="afii10071" unicode="&#x451;" horiz-adv-x="880" 
d="M732 1098h6q34 0 48 -346v-6h-18q-106 133 -225 133l-170 7q-37 -24 -37 -152v-37l19 -18q89 0 188 97q25 -107 25 -286v-30h-12q-167 73 -196 73h-17q-19 -66 -19 -127v-61q0 -19 116 -25q231 0 231 55l79 79q18 -36 18 -128v-164l-12 -12l-639 -18l-5 -6h-7l-5 6h-7
l-79 -13l-6 19q140 216 140 437q0 265 -134 469l-12 30h6l584 -48q54 8 140 72zM201 1495q16 5 33 5q26 0 53 -12t47 -31q2 -3 8 -11.5t8.5 -12.5t7 -11.5t6 -14.5t1.5 -14v-35q0 -20 -1 -32q-8 -15 -15 -27t-17.5 -24.5t-20.5 -20.5t-22.5 -14t-26.5 -6q-6 0 -17 -0.5
t-17 -0.5q-31 0 -50 10q-30 17 -50 46t-20 61q0 24 6 48t18 43.5t30 34t39 19.5zM521 1495q16 5 33 5q26 0 53 -12t47 -31q2 -3 8 -11.5t8.5 -12.5t7 -11.5t6 -14.5t1.5 -14v-35q0 -20 -1 -32q-8 -15 -15 -27t-17.5 -24.5t-20.5 -20.5t-22.5 -14t-26.5 -6q-6 0 -17 -0.5
t-17 -0.5q-31 0 -50 10q-30 17 -50 46t-20 61q0 24 6 48t18 43.5t30 34t39 19.5z" />
    <glyph glyph-name="afii10026" unicode="&#x418;" horiz-adv-x="1404" 
d="M713 1416v-24l-10 -8q-288 -124 -288 -723l9 -176q27 18 190 337q141 361 168 361h577l69 -7v-9l-30 -32q-268 -147 -268 -554q0 -395 268 -522v-15l-9 -8q-667 34 -667 64l30 32q130 83 130 265l-20 297h-10q-238 -398 -338 -618q-30 -169 -80 -169l-457 65v16l80 80
q129 95 129 650q0 215 -39 369q0 94 -149 281q0 45 674 56z" />
    <glyph glyph-name="afii10074.001" horiz-adv-x="1200" 
d="M605 1341v-23l-9 -8q-259 -117 -259 -684l8 -167q25 17 171 319q127 342 151 342h519l62 -7v-8l-27 -30q-241 -140 -241 -525q0 -374 241 -494v-15l-8 -7q-600 32 -600 60l27 31q117 78 117 251l-18 281h-9q-214 -377 -304 -585q-27 -160 -72 -160l-411 61v15l72 76
q116 90 116 616q0 203 -35 349q0 89 -134 266q0 43 606 53z" />
    <glyph glyph-name="afii10074" unicode="&#x438;" horiz-adv-x="960" 
d="M513 1213v-19l-6 -6q-182 -94 -182 -547l7 -134q16 14 119 255q89 274 107 274h364l43 -6v-6l-18 -24q-170 -112 -170 -420q0 -299 170 -395v-12l-7 -6q-421 26 -421 48l19 25q83 62 83 201l-13 225h-7q-150 -302 -213 -468q-19 -128 -50 -128l-289 48v12l50 61
q82 72 82 493q0 162 -25 279q0 71 -94 213q0 34 426 42z" />
    <glyph glyph-name="afii10075" unicode="&#x439;" horiz-adv-x="960" 
d="M513 1213v-19l-6 -6q-182 -94 -182 -547l7 -134q16 14 119 255q89 274 107 274h364l43 -6v-6l-18 -24q-170 -112 -170 -420q0 -299 170 -395v-12l-7 -6q-421 26 -421 48l19 25q83 62 83 201l-13 225h-7q-150 -302 -213 -468q-19 -128 -50 -128l-289 48v12l50 61
q82 72 82 493q0 162 -25 279q0 71 -94 213q0 34 426 42zM296 1494q69 -45 241 -52l38 4q160 16 246 65l109 -26q-105 -43 -188 -88t-206 -104q-101 54 -154 90t-214 125z" />
    <glyph glyph-name="afii10027" unicode="&#x419;" horiz-adv-x="1404" 
d="M719 1418v-24l-10 -9q-288 -123 -288 -722l9 -177q27 18 190 337q142 362 168 362h578l69 -8v-8l-30 -32q-268 -148 -268 -554q0 -395 268 -522v-16l-9 -7q-668 33 -668 63l30 33q130 82 130 265l-19 297h-10q-239 -399 -339 -618q-30 -169 -81 -169l-457 64v16l80 80
q129 95 129 651q0 214 -39 368q0 94 -149 281q0 46 674 56zM379 1763q93 -58 325 -67l51 5q215 20 331 83l145 -32q-140 -56 -252 -114.5t-278 -134.5q-136 70 -207 116.5t-287 161.5z" />
    <glyph glyph-name="afii10025" unicode="&#x417;" horiz-adv-x="966" 
d="M339 885h23q39 -1 107 -1h5q88 0 114 47q46 87 46 159q0 121 -123 207q-16 11 -38 11q-37 0 -89 -28q-162 -86 -170 -108q-32 -76 -49 -76q-2 0 -6 3q-10 7 -12 9q-13 24 -145 257v2q0 15 90 15q41 0 80 3q37 4 50 9q133 46 247 46q28 0 52 -1q143 -13 192 -62
q160 -156 161 -288q0 -71 -78 -210q-59 -107 -134 -146l152 -93q151 -132 151 -254v-8q0 -138 -62 -236q-101 -156 -319 -171h-20q-63 0 -159 22q-163 38 -240 38h-1q-11 0 -92 -25q-21 -7 -32 -7q-21 0 -21 17l76 388q112 -101 130 -128q25 -36 60 -56q74 -40 74 -41
q115 -37 282 -37q64 20 64 98q0 139 -60 249q-48 83 -107 123q-51 35 -98 35h-1q-3 0 -32 -8q-51 -15 -64 -22q-30 -16 -39 -16q-6 0 -6 5q6 29 8 88q9 126 12 169q2 21 21 22z" />
    <glyph glyph-name="afii10073" unicode="&#x437;" horiz-adv-x="900" 
d="M323 726h16q28 -1 76 -1h3q62 0 80 31q32 56 32 103q0 78 -86 135q-11 7 -27 7q-26 0 -62 -18q-114 -57 -120 -71q-22 -49 -34 -49q-2 0 -4 2q-8 4 -9 6q-9 15 -102 166v2q0 9 63 9q29 0 57 3q26 2 35 5q93 30 174 30q19 0 36 -1q100 -8 135 -40q112 -101 113 -187
q0 -46 -55 -136q-41 -70 -94 -95l107 -60q106 -86 106 -165v-6q0 -89 -44 -152q-70 -102 -224 -111h-14q-44 0 -111 14q-115 25 -169 25h-1q-7 0 -65 -17q-14 -4 -22 -4q-14 0 -14 11l53 252q78 -66 91 -83q18 -24 42 -37q52 -26 52 -27q81 -23 198 -23q45 12 45 63
q0 90 -42 162q-33 53 -75 80q-36 22 -69 22h-1q-2 0 -22 -5q-36 -10 -45 -14q-21 -11 -28 -11q-4 0 -4 4q4 19 6 57q7 82 8 110q2 13 15 14z" />
    <glyph glyph-name="afii10020" unicode="&#x413;" horiz-adv-x="1003" 
d="M0 -6q0 12 33 25q203 104 203 572v454q0 174 -152 373v17l16 16h101q234 -24 776 -40l24 -16q-19 -470 -42 -470l-168 200q-46 47 -277 47h-9l-51 -685l9 -6v-57q0 -272 244 -381q76 -9 76 -33q0 -31 -540 -31h-243v15z" />
    <glyph glyph-name="afii10068" unicode="&#x433;" horiz-adv-x="704" 
d="M11 133q0 8 23 17q140 76 140 414v326q0 127 -105 270v11l12 12h70q162 -17 540 -29l17 -11q-13 -339 -29 -339l-118 144q-32 35 -193 35h-6l-35 -495l6 -5v-40q0 -197 169 -276q54 -6 54 -23q0 -22 -376 -22h-169v11z" />
    <glyph glyph-name="afii10037" unicode="&#x423;" horiz-adv-x="1523" 
d="M799 1421h10l701 -17l9 -9v-26q-101 -51 -180 -119q-245 -264 -459 -729l-147 -320q-97 -145 20 -306v-30q-13 -20 -556 204q-10 -15 -63 17l-38 23l-5 23q309 17 415 176q123 158 -246 642q-127 141 -270 214v17l270 17l9 -8h8l37 8l116 -8l162 8h10q27 0 27 -34
q-54 -90 -54 -145q0 -114 162 -267q242 307 242 438q0 58 -180 222v9z" />
    <glyph glyph-name="afii10085" unicode="&#x443;" horiz-adv-x="1045" 
d="M542 1074h7l468 -12l7 -6v-17q-68 -35 -121 -80q-164 -177 -307 -488l-98 -215q-65 -97 13 -205v-20q-8 -13 -372 136q-6 -9 -42 12l-25 16l-3 15q206 11 277 118q82 105 -165 430q-85 94 -181 143v12l181 11l6 -5h6l25 5l77 -5l109 5h6q18 0 18 -23q-36 -60 -36 -97
q0 -76 108 -178q163 205 163 293q0 38 -121 149v6z" />
    <glyph glyph-name="afii10033" unicode="&#x41f;" horiz-adv-x="1450" 
d="M33 1363h492q23 0 432 -10l8 10h500l59 -10v-8q-220 -219 -220 -411q-23 -21 -34 -295q0 -455 229 -609v-11q0 -19 -26 -19q-550 40 -550 87q135 107 135 361l-21 630h-9h-567h-8l-13 -648q0 -217 111 -315l25 -38q0 -35 -569 -77l-7 10v20q228 150 228 619
q0 483 -228 656l-26 40v8z" />
    <glyph glyph-name="afii10081" unicode="&#x43f;" horiz-adv-x="1450" 
d="M145 1161h380q18 0 335 -8l5 8h387l46 -8v-6q-171 -174 -171 -327q-17 -16 -25 -234q0 -362 176 -485v-8q0 -15 -20 -15q-425 31 -425 69q105 85 105 287l-17 501h-7h-438h-7l-10 -516q0 -172 86 -250l20 -30q0 -28 -440 -61l-6 8v15q176 119 176 493q0 383 -176 521
l-20 32v6z" />
    <glyph glyph-name="afii10029.001" horiz-adv-x="1450" 
d="M32 1248h457q22 0 402 -9l7 9h465l55 -9v-8q-205 -200 -205 -376q-21 -19 -31 -270q0 -417 212 -558v-10q0 -17 -24 -17q-440 9 -440 52q74 117 55 358l-20 577h-8h-527h-8l-149 -635q0 -198 103 -288l24 -35q0 -32 -585 -28l-7 9v18q330 211 367.5 609.5t-174.5 557.5
l-24 36v8z" />
    <glyph glyph-name="afii10029" unicode="&#x41b;" horiz-adv-x="1422" 
d="M856 10q136 130 136 225v20q-230 588 -263 588h-45q-243 -488 -243 -599q0 -107 117 -223v-20l-624 20h-9v11q0 17 63 60q323 348 542 932q104 235 182 327h9l343 -711q54 -197 425 -619v-11l-614 -19z" />
    <glyph glyph-name="afii10077" unicode="&#x43b;" horiz-adv-x="1040" 
d="M594 147q92 87 92 150v14q-155 391 -177 391h-31q-164 -325 -164 -399q0 -71 80 -148v-13l-420 13h-6v7q0 11 42 40q217 232 365 621q70 157 122 217h6l231 -473q36 -132 286 -412v-8l-414 -13z" />
    <glyph glyph-name="afii10041" unicode="&#x427;" horiz-adv-x="1203" 
d="M1149 1491l8 -7v-9q-189 -150 -189 -393v-142l-7 -64l7 -86v-362q0 -337 246 -473v-15h-8l-613 -63l-9 8v16q164 150 164 480l-16 276h-123q-196 -5 -322 -7q-78 380 -291 605v15q0 20 531 56h50l7 -8h9q-172 -310 -172 -464v-17l40 -7h9q229 0 262 39v16q0 390 -148 512
q-15 0 -48 54v16l98 8z" />
    <glyph glyph-name="afii10089" unicode="&#x447;" horiz-adv-x="989" 
d="M815 1230l6 -5v-7q-148 -109 -148 -287v-103l-6 -46l6 -63v-264q0 -245 193 -344v-12h-6l-483 -46l-7 6v11q129 110 129 351l-13 201h-97q-154 -4 -253 -6q-62 277 -230 442v11q0 14 419 40h39l6 -5h7q-136 -226 -136 -339v-11l32 -6h7q181 0 206 28v12q0 285 -116 373
q-12 0 -38 40v11l77 6z" />
    <glyph glyph-name="afii10042" unicode="&#x428;" horiz-adv-x="1523" 
d="M-2 1352v12q0 65 535 96h10l3 -32q-208 -202 -205 -424l-13 -503q36 -69 236 -68l57 1l27 36q5 352 -148 535q167 49 443 51l47 1v-23q-110 -311 -115 -550v-34q102 -31 198 -31l94 1q29 0 43 399q-3 433 -90 433l-122 147q56 34 196 36l256 2l20 -24l35 -1191l12 -11
l1 -12l-12 -11v-12l23 -147l-29 -11q-338 144 -682 140q-411 -3 -726 -147l-46 -23v12l67 1091q-15 102 -115 261z" />
    <glyph glyph-name="afii10090" unicode="&#x448;" horiz-adv-x="1100" 
d="M0 1049v7q0 41 397 59h7l2 -19q-154 -125 -152 -262l-10 -310q27 -43 175 -42l43 1l20 22q3 217 -110 330q124 30 328 31l35 1v-14q-81 -192 -85 -340v-20q75 -20 146 -20l70 1q21 0 32 246q-3 267 -67 267l-90 91q41 21 145 22l190 2l15 -15l26 -735l9 -7v-8l-8 -6v-8
l16 -90l-21 -7q-251 89 -506 86q-304 -2 -538 -90l-33 -15v8l49 673q-11 63 -85 161z" />
    <glyph glyph-name="afii10043" unicode="&#x429;" horiz-adv-x="1652" 
d="M-6 1352v12q0 65 527 96h10l2 -32q-204 -202 -201 -424l-13 -503q35 -69 232 -68l57 1l26 36q4 352 -146 535q165 49 436 51l46 1v-23q-108 -311 -112 -550v-34q99 -31 194 -31l92 1q28 0 43 399q-4 433 -89 433l-120 147q55 34 193 36l251 2l20 -24l35 -1191l12 -11
l1 -12l-12 -11v-12l22 -147l-28 -11q-333 144 -671 140q-404 -3 -714 -147l-45 -23v12l66 1091q-15 102 -114 261zM1075 139q316 -2 316 -16q0 -58 130 -77q129 15 129 91q15 0 15 47v48l14 14q116 -56 159 -185v-20q0 -117 -317 -220l-57 -7q-114 38 -261 282l-6 6
q-7 12 -122 37z" />
    <glyph glyph-name="afii10091" unicode="&#x449;" horiz-adv-x="1359" 
d="M-11 1056v8q0 42 399 62h8l1 -21q-154 -130 -152 -274l-11 -324q27 -45 176 -44l44 2l18 23q4 227 -109 344q124 32 329 34l35 1v-15q-81 -201 -85 -355v-22q75 -21 147 -21l69 1q22 0 33 258q-3 279 -68 279l-90 94q42 23 146 24l189 1l16 -15l26 -769l8 -6l1 -9l-8 -5
v-8l17 -96l-22 -7q-251 93 -507 90q-305 -2 -539 -93l-35 -17v9l51 703q-12 66 -87 168zM806 272q239 1 319 -54q-80 9 17 -4q99 10 99 59q11 0 11 29v33l11 9q88 -36 119 -120v-13q0 -75 -240 -142l-42 -4q-86 24 -197 182l-3 3q-6 8 -94 22z" />
    <glyph glyph-name="afii10046" unicode="&#x42c;" horiz-adv-x="1050" 
d="M1 7q219 265 219 449v430l-7 206q0 242 -131 292q0 26 90 26h358q60 0 66 -26v-8q-131 -153 -131 -430q0 -17 33 -17q521 -142 521 -344v-18q0 -134 -122 -335q-52 -101 -204 -146q-93 -53 -676 -96zM465 524q0 -223 81 -223h25q179 28 179 172q0 170 -260 232l-33 -17z
" />
    <glyph glyph-name="afii10045" unicode="&#x42b;" horiz-adv-x="1399" 
d="M-63 6q228 268 228 453v435l-8 208q0 245 -135 295q0 27 93 27h372q62 0 67 -27v-8q-135 -154 -135 -434q0 -18 34 -18q541 -143 541 -347v-19q0 -135 -127 -338q-54 -102 -211 -148q-97 -53 -702 -96zM419 528q0 -226 84 -226h26q185 29 185 174q0 172 -270 235l-33 -17
zM1289 698q0 -10 4 -31t4 -32q-10 -50 -12 -158q0 -216 20 -281q27 -61 94 -91q3 -42 7 -68q2 -10 3 -22q0 -13 -3 -29q-85 0 -102.5 2.5t-103.5 2.5q-29 0 -85 -5.5t-85 -5.5q-12 0 -35.5 -1t-35.5 -1q5 93 33 144t28 60l51 467v130l-21 452q0 10 -28 60.5t-36 72.5
q-5 8 -5 22q0 19 9 49q161 -6 190 -6q86 0 215 -17q4 -16 4 -28q-1 -12 -3 -23q-4 -27 -34 -70.5t-57 -43.5q-18 -98 -18 -220q0 -82 8 -174q-8 -25 -8 -61q0 -10 1 -30.5t1 -63.5z" />
    <glyph glyph-name="afii10093" unicode="&#x44b;" horiz-adv-x="1050" 
d="M-36 174q161 170 161 288v277l-5 133q0 155 -96 187q0 17 66 17h262q44 0 47 -17v-5q-95 -98 -95 -276q0 -11 24 -11q381 -91 381 -222v-11q0 -86 -89 -216q-38 -65 -149 -94q-68 -33 -495 -61zM304 506q0 -143 59 -143h18q131 18 131 110q0 110 -190 150l-24 -11z
M918 615q0 -7 2.5 -20.5t2.5 -20.5q-7 -32 -8 -100q0 -138 14 -179q18 -39 66 -58q2 -27 5 -43q2 -7 2 -14q0 -9 -2 -19q-60 0 -72.5 2t-72.5 2q-20 0 -60 -4t-60 -4q-9 0 -25.5 -0.5t-24.5 -0.5q3 60 23 92t20 38l36 297v83l-15 288q0 6 -20 38t-25 46q-4 5 -4 14
q0 12 7 31q113 -3 134 -3q60 0 151 -11q3 -10 3 -18q-1 -8 -2 -15q-3 -17 -24.5 -44.5t-39.5 -27.5q-13 -63 -13 -141q0 -51 6 -110q-6 -16 -6 -39q0 -6 1 -19.5t1 -39.5z" />
    <glyph glyph-name="afii10094" unicode="&#x44c;" horiz-adv-x="1050" 
d="M108 123q168 179 168 305v290l-5 140q0 164 -101 198q0 18 70 18h271q46 0 49 -18v-5q-99 -103 -99 -291q0 -12 26 -12q396 -97 396 -233v-13q0 -91 -93 -227q-40 -68 -154 -99q-72 -35 -515 -64zM461 474q0 -152 62 -152h19q135 19 135 116q0 116 -197 158l-24 -12z" />
    <glyph glyph-name="afii10044" unicode="&#x42a;" horiz-adv-x="1140" 
d="M606 941q530 -143 530 -349v-18q0 -135 -124 -340q-53 -102 -208 -148q-95 -53 -689 -96l-16 17q224 269 224 454v437l-8 209q0 82 -8 141q-137 0 -231 -154l-19 -7q-29 17 -33 314l-7 8l7 5l250 15h364q62 0 67 -26v-8q-133 -155 -133 -436q0 -18 34 -18
q-12 -68 -21 -122q-5 -23 -8.5 -45t-6.5 -39q-4 -20 -6 -39l8 -166q0 -226 83 -226h25q182 29 182 175q0 172 -265 235l-33 -18z" />
    <glyph glyph-name="afii10092" unicode="&#x44a;" horiz-adv-x="1050" 
d="M492 763q390 -94 390 -228v-12q0 -88 -91 -221q-39 -67 -153 -97q-70 -34 -507 -63l-12 12q164 175 164 296v284l-5 136q0 54 -6 92q-101 0 -170 -100l-14 -4q-22 11 -25 204l-5 5l5 4l184 9h269q45 0 49 -17v-5q-98 -101 -98 -284q0 -11 25 -11l-16 -80l-6 -30t-5 -26
q-3 -13 -4 -25l6 -107q0 -148 61 -148h18q135 19 135 114q0 112 -196 153l-24 -12z" />
    <glyph glyph-name="afii10048" unicode="&#x42e;" horiz-adv-x="1482" 
d="M738 416l-16 300h-120q-192 -5 -192 -26q0 -281 160 -540l32 -43v-9l-16 -17l-160 17h-386l-16 18v8q112 78 112 155q73 162 73 419q0 424 -209 669v17q0 22 522 61h48l8 -9h8q-169 -337 -169 -505v-18l40 -8h9q225 0 256 43v16q0 426 16 -548zM1050 1255h-4q-4 0 -11 -2
q-13 -1 -19 -8q-71 -66 -173 -350v-158l42 -260q33 -117 226 -135q17 -1 54 -6q7 0 10 2q105 35 121 191q10 178 10 182q1 4 1 9q0 4 -1 12v43q0 314 -244 476q-8 4 -12 4zM1036 1433q91 -5 244 -100q76 -46 104 -117q64 -156 64 -268q7 -48 11 -150q5 -118 9 -169
q1 -3 1 -5q0 -36 -18 -124q-14 -76 -47 -150q-35 -82 -58 -105q-19 -18 -61 -52q-4 -3 -93 -35q-55 -20 -153 -40q-27 -3 -41 -3h-9q-102 12 -140 77q-221 365 -221 573q0 23 3 44q39 301 40 304q19 62 56 142q21 46 59 91q47 55 73 65q60 24 140 24q18 0 37 -2z" />
    <glyph glyph-name="afii10096" unicode="&#x44e;" horiz-adv-x="1153" 
d="M588 392l-12 224h-91q-146 -5 -146 -20q0 -209 122 -402l24 -32v-7l-12 -12l-122 12h-292l-12 14v6q85 57 85 115q55 121 55 312q0 316 -158 498v13q0 16 395 45h37l5 -7h7q-128 -251 -128 -376v-13l30 -6h7q170 0 194 32v12q0 317 12 -408zM824 1017h-2q-4 0 -9 -2
q-10 0 -15 -6q-53 -49 -131 -261v-117l32 -194q25 -87 171 -100q13 -1 41 -5q6 0 8 2q79 26 91 142q8 133 8 135q1 4 1 7t-1 9v32q0 234 -184 355q-7 3 -10 3zM814 1149q68 -3 184 -74q58 -34 80 -87q48 -116 48 -200q5 -36 8 -112q4 -87 7 -125q1 -3 1 -4q0 -27 -14 -93
q-10 -56 -35 -111q-27 -61 -44 -79q-15 -13 -47 -38q-3 -3 -70 -26q-42 -15 -116 -30q-21 -2 -31 -2h-7q-77 9 -106 57q-167 272 -167 427q0 17 2 32q29 225 30 227q14 46 42 106q16 34 45 67q36 41 55 49q46 18 107 18q13 0 28 -2z" />
    <glyph glyph-name="afii10040.002" horiz-adv-x="1707" 
 />
    <glyph glyph-name="afii10040" unicode="&#x426;" horiz-adv-x="1463" 
d="M28 1365v11q0 67 502 98h9l2 -32q-194 -206 -192 -432l-12 -512q33 -70 221 -69l122 -7q50 3 141 3l88 1q27 0 40 406q-3 441 -84 441l-114 149q51 35 183 37l240 2l19 -24l32 -1212l12 -11l1 -13l-11 -10v-13l21 -149l-27 -12q-317 147 -640 143q-170 -14 -420 -11
l-43 -24v13q41 259 45.5 497.5t-27.5 463.5q-15 104 -108 266zM843 140q301 -2 301 -16q0 -59 123 -78q123 15 123 92q15 0 15 48v49l13 14q111 -57 152 -188v-21q0 -118 -303 -224l-54 -7q-108 39 -248 287l-6 6q-6 13 -116 38z" />
    <glyph glyph-name="afii10088" unicode="&#x446;" horiz-adv-x="1122" 
d="M30 1033v8q0 50 365 73h6l2 -24q-141 -153 -139 -322l-10 -382q25 -52 161 -51l89 -5q37 2 102 2h64q20 0 30 303q-3 329 -62 329l-83 111q38 26 134 28l174 2l14 -18l24 -904l8 -9l1 -9l-9 -8v-9l16 -112l-20 -8q-230 109 -465 106q-123 -10 -305 -8l-32 -18v10
q60 384 14 716q-11 78 -79 199zM623 119q219 -1 219 -12q0 -43 89 -58q89 11 89 69q11 0 11 36v36l10 11q80 -43 110 -141v-15q0 -88 -220 -167l-39 -5q-79 29 -181 214l-4 4q-5 9 -84 28z" />
    <glyph glyph-name="afii10047" unicode="&#x42d;" horiz-adv-x="911" 
d="M19 1451q115 -100 160 -100l136 46h59l33 -10q221 -88 364 -264q84 -78 84 -493q0 -92 -33 -236q-197 -402 -398 -402l-372 91q-51 0 -51 238v164l18 28h8q115 -210 304 -210q296 0 296 446q0 347 -288 347q-124 0 -296 -165h-7q-35 0 -35 393v81l9 46h9zM615 575
q-40 0 -271 -109h-17v45q0 268 35 429q136 -145 261 -145l40 -122l-24 -48q-9 -18 -16.5 -33.5t-7.5 -16.5z" />
    <glyph glyph-name="afii10095" unicode="&#x44d;" horiz-adv-x="772" 
d="M63 1101q92 -68 128 -68l109 31h48l26 -6q178 -61 292 -181q68 -53 68 -337q0 -63 -27 -161q-158 -275 -319 -275l-298 62q-41 0 -41 163v112l14 19h6q93 -143 245 -143q237 0 237 305q0 237 -231 237q-100 0 -237 -113h-7q-27 0 -27 268v56l7 31h7zM541 503
q-32 0 -218 -75h-13v31q0 183 28 293q109 -99 209 -99l33 -83q-11 -18 -20 -33q-4 -7 -7.5 -12.5t-5.5 -10.5q-4 -5 -6 -11z" />
    <glyph glyph-name="afii10097.001" 
d="M798 1201v-7q-128 -307 -128 -443v-55l6 -91q39 -347 104 -414l-12 -12l-256 37l-85 -6v6l-6 6q91 122 91 310l-6 6q-30 0 -61 -18q-48 -46 -121 -316q-140 -390 -244 -390q-78 0 -133 25q-195 67 -195 134q0 113 116 201q18 0 18 -61q30 -98 110 -98h18q37 0 78 31
q19 6 104 297q0 167 85 262q-158 157 -158 213q0 156 177 273q0 54 486 122zM457 1006q-81 0 -109 -152q0 -105 158 -158l12 12v18l13 164v104z" />
    <glyph glyph-name="afii10024" unicode="&#x416;" horiz-adv-x="1744" 
d="M1012 859q28 8 43.5 15.5t10.5 14.5q141 359 141 462l-26 119h9l548 -179l9 -9v-8q-290 -116 -557 -609v-9q188 -320 308 -446q18 0 121 -128q59 -23 59 -43q0 -28 -300 -60v9l-9 -9h-8l-9 9l-51 -18h-8l-9 9l-94 -17v8l-9 -8h-9l-17 17l26 120v26q-56 309 -103 309
q1 4 -5 5t-16.5 1h-24t-27.5 2v-110l20 -64q29 -108 97 -139q3 -41 7 -66q2 -11 3 -22q0 -13 -3 -29q-87 0 -104.5 2.5t-104.5 2.5q-29 0 -86 -5.5t-86 -5.5q-13 0 -36.5 -1t-35.5 -1q4 92 33 145t29 62l14 224q-15 -4 -25.5 0.5t-11.5 -1.5h-9q-77 -211 -77 -274v-78
l26 -94l-26 -18l-9 9l-8 -9h-9l-9 9l-7 -9h-17l-9 9l-9 -9q-437 28 -437 43q0 22 179 206q172 214 276 437v18q-291 466 -567 548v9q16 18 309 120q137 73 232 94h8v-9q-34 -91 -34 -145q0 -155 180 -403q14 -16 39 -28t51 -17l-22 386q0 9 -29 59t-37 72q-4 8 -4 21
q0 19 9 49q164 -6 193 -6q87 0 218 -17q4 -16 4 -28q-1 -11 -3 -23q-5 -26 -35.5 -68.5t-57.5 -42.5q-17 -38 -17 -158q0 -80 8 -172q-8 -25 -3 -56z" />
    <glyph glyph-name="afii10072" unicode="&#x436;" horiz-adv-x="1301" 
d="M747 686q20 5 32 11t8 11q105 262 105 337l-19 87h6l409 -131l6 -6v-6q-216 -85 -415 -445v-7q141 -234 230 -325q13 0 90 -94q44 -16 44 -31q0 -21 -223 -44v7l-7 -7h-6l-7 7l-38 -14h-6l-7 7l-70 -12v5l-6 -5h-7l-13 12l20 87v19q-42 226 -77 226q1 3 -3.5 3.5
t-12.5 0.5h-18t-20 2v-80l15 -47q21 -79 72 -101q2 -30 5 -49q2 -7 3 -16q0 -10 -3 -21q-65 0 -78 2t-77 2q-22 0 -64.5 -4t-64.5 -4q-9 0 -26.5 -1t-27.5 -1q4 68 25.5 106.5t21.5 45.5l10 163q-11 -2 -18.5 1t-8.5 -2h-7q-57 -154 -57 -200v-57l19 -68l-19 -14l-7 7l-6 -7
h-6l-7 7l-6 -7h-13l-6 7l-7 -7q-325 21 -325 32q0 16 133 151q128 155 205 318v14q-216 340 -421 400v7q11 13 230 87q102 54 172 69h6v-6q-25 -67 -25 -107q0 -113 134 -294q11 -11 29 -20t38 -13l-16 282q0 7 -21.5 43.5t-27.5 52.5q-4 5 -4 15q0 14 7 36q122 -4 144 -4
q65 0 162 -13q3 -11 3 -20q-1 -9 -2 -17q-4 -19 -26.5 -50t-42.5 -31q-13 -28 -13 -116q0 -58 6 -125q-6 -18 -2 -41z" />
    <glyph glyph-name="afii10038" unicode="&#x424;" horiz-adv-x="1252" 
d="M631 1082h-6q-7 0 -18 -2q-19 -1 -29 -8q-109 -64 -269 -340v-153l66 -250q50 -112 352 -130q23 -1 81 -5q11 0 17 2q162 33 185 183q17 172 17 176q1 4 1 8t-1 12v42q0 302 -377 460q-14 5 -19 5zM633 1241q122 -4 329 -95q103 -44 141 -112q86 -147 86 -254
q10 -46 16 -143q6 -112 11 -159q1 -4 1 -6q0 -35 -24 -118q-19 -72 -63 -142q-48 -78 -78 -100q-26 -17 -83 -49q-5 -3 -125 -34q-74 -19 -208 -37q-36 -3 -56 -3h-10q-139 11 -191 73q-298 347 -298 544q0 23 4 42q53 286 54 290q25 59 76 135q28 42 79 85q64 53 99 63
q81 22 189 22q24 0 51 -2zM789 629q0 -13 4 -39.5t4 -39.5q-11 -62 -13 -196q0 -270 20 -350q29 -76 100 -114q2 -52 8 -84q2 -13 3 -27q0 -17 -3 -38q-91 0 -109 4t-108 4q-30 0 -89.5 -7t-89.5 -7q-13 0 -37 -2t-38 -2q5 118 35 181t30 74l54 581v163l-23 563
q0 12 -30 74.5t-38 90.5q-4 10 -4 27q0 24 9 62q169 -8 200 -8q90 0 225 -21q5 -20 5 -36q-1 -14 -4 -28q-4 -33 -35.5 -87t-60.5 -54q-18 -123 -18 -275q0 -101 8 -217q-8 -31 -8 -75q0 -13 1.5 -39t1.5 -78z" />
    <glyph glyph-name="afii10086" unicode="&#x444;" horiz-adv-x="824" 
d="M406 982h-4q-5 0 -13 -2q-14 -1 -21 -5q-77 -48 -191 -248v-112l46 -182q36 -82 251 -94q17 -1 58 -4q8 0 12 1q116 24 132 134q12 125 12 127q1 4 1 7t-1 8v31q0 220 -269 335q-9 4 -13 4zM407 1098q87 -4 235 -69q73 -33 101 -82q61 -107 61 -185q7 -34 11 -104
q4 -82 8 -116q1 -3 1 -5q0 -25 -18 -85q-13 -53 -44 -104q-35 -57 -56 -73q-19 -12 -59 -36q-4 -2 -89 -24q-53 -14 -148 -28q-26 -2 -40 -2h-8q-99 9 -136 53q-212 254 -212 397q0 17 3 31q37 208 38 211q18 43 54 98q20 31 56 62q46 39 71 46q58 16 135 16q17 0 36 -1z
M518 652q0 -10 3 -29t3 -29q-7 -45 -9 -142q0 -197 15 -256q20 -55 70 -83q2 -38 6 -61q2 -10 2 -20q0 -12 -2 -27q-64 0 -77 2.5t-77 2.5q-22 0 -64.5 -5t-63.5 -5q-9 0 -26.5 -1t-26.5 -1q3 85 24 131t21 54l39 424v118l-16 410q0 9 -21.5 55t-26.5 66q-3 7 -3 20
q0 17 6 44q121 -5 142 -5q65 0 161 -16q3 -14 3 -26l-2 -20q-3 -24 -25.5 -63.5t-42.5 -39.5q-13 -89 -13 -201q0 -73 5 -157q-5 -23 -5 -55q0 -9 0.5 -28t0.5 -57z" />
    <glyph glyph-name="afii10021" unicode="&#x414;" horiz-adv-x="1486" 
d="M1132 557q90 -47 132 -104q71 -69 85 -161q28 -169 163 -262v-26l-524 -27l-25 27l6 16q83 128 73 227q-68 129 -325 146l-67 -9q-108 0 -191 -150q3 -61 109 -257v-9l-540 45l118 150l16 116q10 126 208 266q-1 -4 -0.5 9t2 34.5t3.5 48t4 51.5t3 45t1 27q0 562 295 710
l169 -36q168 -75 220 -195q70 -197 65 -682zM915 634l-9 223l-16 169q0 115 -162 133l-42 -9q-68 0 -80 -495q22 8 50 6z" />
    <glyph glyph-name="afii10069" unicode="&#x434;" horiz-adv-x="1288" 
d="M977 464q73 -36 107 -81q56 -53 68 -123q22 -130 132 -202v-20l-423 -20l-20 20l5 13q67 99 59 175q-55 99 -262 112l-55 -8q-86 0 -153 -114q2 -49 88 -198v-8l-435 35l95 116l13 89q8 97 168 205q-2 -4 -0.5 18t4 52t4 58.5t1.5 36.5q0 433 239 547l136 -28
q135 -58 176 -150q57 -152 53 -525zM803 523l-8 172l-13 130q0 89 -130 102l-34 -6q-55 0 -65 -381q18 5 41 4z" />
    <glyph glyph-name="afii10056" unicode="&#x407;" horiz-adv-x="550" 
d="M80 838h319q45 -5 45 -23q-106 -218 -106 -243v-106q0 -116 137 -289v-23l-8 -8v-7l-243 -8h-266v15q175 96 175 327q0 232 -122 327l-7 30zM-19 1694q20 6 41 6q33 0 66.5 -15t58.5 -39q2 -4 10 -14.5t11 -15.5t8.5 -14.5t7.5 -18t2 -17.5v-44q0 -24 -2 -40
q-10 -18 -18.5 -33t-21.5 -31t-25.5 -26t-28.5 -17.5t-33 -7.5q-7 0 -21 -0.5t-22 -0.5q-38 0 -62 13q-37 21 -62.5 57t-25.5 77q0 30 8 59.5t23 54t37 42.5t49 25zM381 1694q20 6 41 6q33 0 66.5 -15t58.5 -39q2 -4 10 -14.5t11 -15.5t8.5 -14.5t7.5 -18t2 -17.5v-44
q0 -24 -2 -40q-10 -18 -18.5 -33t-21.5 -31t-25.5 -26t-28.5 -17.5t-33 -7.5q-7 0 -21 -0.5t-22 -0.5q-38 0 -62 13q-37 21 -62.5 57t-25.5 77q0 30 8 59.5t23 54t37 42.5t49 25z" />
    <glyph glyph-name="afii10055" unicode="&#x406;" horiz-adv-x="525" 
d="M311 734q0 -14 4 -41.5t4 -41.5q-10 -67 -12 -210q0 -285 20 -372q26 -80 93 -121q2 -55 7 -89q2 -15 3 -30q0 -18 -4 -39q-84 0 -101 4t-101 4q-29 0 -84.5 -8t-83.5 -8q-12 0 -35 -1t-35 -1q4 123 32 190.5t28 79.5l50 619v172l-20 599q0 12 -28 79.5t-36 96.5
q-4 11 -4 28q0 26 8 66q159 -8 188 -8q84 0 212 -22q4 -21 4 -39q-1 -15 -3 -30q-5 -34 -34.5 -92t-55.5 -58q-18 -130 -18 -292q0 -108 8 -230q-8 -33 -8 -80q0 -14 1 -41.5t1 -83.5z" />
    <glyph glyph-name="afii10054" unicode="&#x405;" horiz-adv-x="950" 
d="M823 1272l8 -45q0 -167 -38 -304q-137 129 -236 129h-60q-137 -21 -137 -129q41 -36 387 -213q107 -100 107 -175v-30q0 -232 -266 -456q-98 -53 -137 -53h-8q-180 0 -364 342q-84 73 -84 121q103 23 456 23h8v-15q-99 -95 -99 -137v-8q12 -83 83 -83h31q121 0 121 258
v23q0 71 -228 84q-273 36 -273 258v15q0 186 266 342q37 23 99 23h30l122 -38q52 0 212 68z" />
    <glyph glyph-name="afii10102" unicode="&#x455;" horiz-adv-x="760" 
d="M658 1158l7 -36q0 -134 -31 -244q-109 104 -188 104h-48q-110 -17 -110 -104q33 -28 310 -170q85 -80 85 -140v-24q0 -186 -213 -365q-78 -42 -109 -42h-7q-144 0 -291 273q-67 59 -67 97q82 19 365 19h6v-12q-79 -76 -79 -110v-6q10 -67 66 -67h25q97 0 97 207v18
q0 57 -182 67q-219 29 -219 207v12q0 148 213 273q30 19 79 19h24l98 -31q41 0 169 55z" />
    <glyph glyph-name="afii10017" unicode="&#x410;" horiz-adv-x="1201" 
d="M775 1469h28q23 0 43 -318l97 -677q104 -416 213 -567q23 0 45 -69l-595 -78l-8 27q133 166 133 394v172h-170l-96 9q-37 -9 -37 -60q0 -163 133 -274v-10l-34 -17q-533 10 -533 51q166 191 258 456q115 338 115 618v25q0 65 -151 147q-44 0 -44 25q44 38 603 146z
M606 920l-124 -360v-9h17l196 9v7q-45 250 -80 353h-9z" />
    <glyph glyph-name="afii10019" unicode="&#x412;" horiz-adv-x="1104" 
d="M113 1440h98q405 -23 716 -206q97 -82 97 -153v-18q0 -104 -204 -297v-9q241 -94 241 -197v-19q0 -127 -313 -423q-201 -126 -618 -198l-9 27q108 137 108 388q-30 980 -124 980q0 25 -100 99q32 26 108 26zM471 901v-90h26q233 56 233 234v18q-30 81 -99 81h-36
q-98 0 -98 -45q-26 -80 -26 -198zM471 622v-171q0 -126 44 -126l54 -9q154 0 223 216v9q0 66 -143 90h-27z" />
    <glyph glyph-name="afii10035" unicode="&#x421;" horiz-adv-x="962" 
d="M887 1457h9l10 -46v-82q0 -393 -36 -393h-8q-180 164 -312 164q-303 0 -303 -348q0 -447 312 -447q199 0 320 210h8l19 -27v-165q0 -239 -53 -239l-392 -91q-212 0 -419 403q-35 145 -35 237q0 417 89 495q150 176 383 265l35 10h62l142 -46q49 0 169 100z" />
    <glyph glyph-name="afii10022" unicode="&#x415;" horiz-adv-x="1192" 
d="M1070 1486h9q50 0 70 -537v-10h-26q-154 207 -328 207l-247 10q-53 -38 -53 -236v-57l27 -27q130 0 273 150q36 -166 36 -443v-47h-17q-242 113 -284 113h-26q-27 -102 -27 -197v-95q0 -28 168 -38q336 0 336 86l116 121q26 -56 26 -197v-254l-18 -20l-929 -27l-8 -10
h-10l-8 10h-9l-115 -20l-8 28q202 335 202 679q0 410 -194 726l-18 47h10l848 -75q79 13 204 113z" />
    <glyph glyph-name="afii10031" unicode="&#x41d;" horiz-adv-x="1381" 
d="M1343 1497l9 -8v-8q-217 -151 -217 -395v-143l-9 -63l9 -86v-364q0 -338 283 -475v-15h-9l-707 -64l-10 9v15q189 151 189 483l-19 277h-141q-226 -6 -226 -24q0 -259 189 -499l37 -39v-8l-19 -16l-188 16h-453l-18 16v8q131 71 131 142q86 150 86 387q0 391 -246 617v15
q0 20 613 56h57l8 -8h10q-198 -311 -198 -466v-16l47 -8h10q264 0 301 40v15q0 392 -170 514q-17 0 -56 55v16l113 8z" />
    <glyph glyph-name="afii10032.002" horiz-adv-x="1178" 
d="M588 1173h42q285 0 395 -294q43 -138 43 -253v-111l10 -91q0 -242 -352 -364l-128 -21q-219 0 -374 162q-127 157 -127 416v60q0 317 362 475zM417 637q24 -335 171 -335h21q190 0 223 355v10q0 243 -191 243q-171 0 -224 -253v-20z" />
    <glyph glyph-name="afii10034" unicode="&#x420;" horiz-adv-x="1077" 
d="M1 1451q624 -45 724 -98q163 -47 218 -150q131 -207 131 -345v-18q0 -209 -558 -354q-35 0 -35 -18q0 -285 140 -442v-8q-6 -27 -70 -27h-384q-96 0 -96 27q140 51 140 300l8 212v442q0 189 -235 461zM473 734l34 -18q279 64 279 239q0 148 -192 177h-26q-87 0 -87 -230z
" />
    <glyph glyph-name="afii10030" unicode="&#x41c;" horiz-adv-x="1707" 
d="M68 1444h536q25 0 156 -456l84 -222h8l223 667l8 11h545l65 -11v-9q-240 -232 -240 -436q-24 -23 -37 -314q0 -484 249 -648v-10q0 -20 -28 -20q-600 41 -600 92q148 113 148 383v518h-10q-202 -584 -202 -619q6 -63 46 -121q0 -36 -167 -81h-17q-118 22 -185 91
q31 55 56 162l-185 568h-10v-538q0 -229 120 -334l29 -40q0 -37 -620 -81l-9 10v20q249 160 249 658q0 513 -249 698l-28 42v9z" />
    <glyph glyph-name="afii10036" unicode="&#x422;" horiz-adv-x="1201" 
d="M1147 1494q34 0 42 -516l9 -35q-11 -44 -26 -44q-142 239 -428 239l-51 -9v-52q0 -826 60 -826q136 -189 136 -222h-153l-404 -45l-8 27q112 164 112 400l-35 701l-34 26h-26q-145 0 -266 -195l-25 -9q-38 22 -43 400l-9 9l9 8l231 9h377q481 0 481 62z" />
    <glyph glyph-name="afii10039" unicode="&#x425;" horiz-adv-x="1173" 
d="M683 1451h9l530 -177l9 -9v-8q-281 -114 -539 -600v-9q182 -316 298 -439q17 0 116 -127q58 -23 58 -43q0 -27 -290 -58v8l-9 -8h-7l-9 8l-50 -17h-8l-9 9l-90 -17v8l-9 -8h-9l-16 17l25 117v26q-55 305 -100 305h-8q-75 -208 -75 -271v-76l26 -93l-26 -17l-8 9l-8 -9h-9
l-8 9l-8 -9h-16l-9 9l-9 -9q-423 27 -423 42q0 22 174 203q166 211 267 431v18q-282 459 -549 540v9q16 18 300 118q132 72 223 93h8v-9q-33 -90 -33 -143q0 -153 175 -397q141 355 141 456z" />
    <glyph glyph-name="O" unicode="O" horiz-adv-x="1270" 
d="M588 1173h42q285 0 395 -294q43 -138 43 -253v-111l10 -91q0 -242 -352 -364l-128 -21q-219 0 -374 162q-127 157 -127 416v60q0 317 362 475zM417 637q24 -335 171 -335h21q190 0 223 355v10q0 243 -191 243q-171 0 -224 -253v-20z" />
    <glyph glyph-name="afii10080" unicode="&#x43e;" horiz-adv-x="692" 
d="M332 964h24q162 0 225 -177q25 -83 25 -152v-66l5 -55q0 -145 -201 -219l-72 -13q-125 0 -213 98q-73 94 -73 250v36q0 190 206 285zM234 642q14 -201 98 -201h12q108 0 127 213v6q0 146 -109 146q-97 0 -128 -152v-12z" />
    <glyph glyph-name="afii10032" unicode="&#x41e;" horiz-adv-x="1270" 
d="M588 1173h42q285 0 395 -294q43 -138 43 -253v-111l10 -91q0 -242 -352 -364l-128 -21q-219 0 -374 162q-127 157 -127 416v60q0 317 362 475zM417 637q24 -335 171 -335h21q190 0 223 355v10q0 243 -191 243q-171 0 -224 -253v-20z" />
    <glyph glyph-name="M.002" horiz-adv-x="1707" 
d="M68 1444h536q25 0 156 -456l84 -222h8l223 667l8 11h545l65 -11v-9q-240 -232 -240 -436q-24 -23 -37 -314q0 -484 249 -648v-10q0 -20 -28 -20q-600 41 -600 92q148 113 148 383l-17 355h-10q-185 -421 -185 -456q6 -63 46 -121q0 -36 -167 -81h-17q-118 22 -185 91
q31 55 56 162l-167 405h-10l-18 -375q0 -229 120 -334l29 -40q0 -37 -620 -81l-9 10v20q249 160 249 658q0 513 -249 698l-28 42v9z" />
    <glyph glyph-name="M" unicode="M" horiz-adv-x="1707" 
d="M68 1444h536q25 0 156 -456l84 -222h8l223 667l8 11h545l65 -11v-9q-240 -232 -240 -436q-24 -23 -37 -314q0 -484 249 -648v-10q0 -20 -28 -20q-600 41 -600 92q148 113 148 383v518h-10q-202 -584 -202 -619q6 -63 46 -121q0 -36 -167 -81h-17q-118 22 -185 91
q31 55 56 162l-185 568h-10v-538q0 -229 120 -334l29 -40q0 -37 -620 -81l-9 10v20q249 160 249 658q0 513 -249 698l-28 42v9z" />
    <glyph glyph-name="endash" unicode="&#x2013;" horiz-adv-x="1006" 
d="M15 413q-6 21 -13 56.5t-7 58.5l8 162q0 4 9 4q22 0 92 -1t90 -3t54 -2q64 0 191.5 -1.5t177.5 -1.5q30 5 81 6q44 1 62 1h60q18 0 54 4q60 -5 123 -9l-5 -241q0 -4 -1 -9t-3 -8.5t-4.5 -7t-6.5 -3.5t-9 2q-25 13 -99 14t-142.5 6.5t-89.5 5.5q-6 0 -6 -1
q-35 0 -46.5 -1.5t-76.5 -1.5q-114 0 -141.5 -1t-54.5 -4t-80 -3.5t-82 -6.5q-31 -6 -70.5 -7.5t-64.5 -6.5z" />
    <glyph glyph-name="perthousand" unicode="&#x2030;" horiz-adv-x="1100" 
d="M747 391q-24 -3 -46 -12t-36.5 -20.5t-18.5 -21t-4 -19.5q0 -18 12 -36q11 -17 35 -34q3 -2 13 -6t21.5 -8t23 -6t18.5 -2h6q32 7 48 18.5t20 25.5q8 19 8 41v2q0 17 -5 31t-14 24q-8 9 -28.5 16.5t-40.5 7.5q-5 0 -12 -1zM324 814q-24 -3 -46 -12t-36 -20.5t-18 -21.5
t-4 -20q0 -18 12 -35q12 -18 35 -35q3 -2 13 -6t21 -7.5t23 -6t20 -2.5q3 0 4 1q32 6 48 18t21 27q7 18 7 40v1q0 17 -4 32t-14 24q-8 9 -28.5 16t-41.5 7h-12zM1134 359q-20 -14 -35.5 -32t-23 -35t-6.5 -27t5 -19q8 -16 27 -27q18 -10 47 -14q4 0 14.5 1t22.5 2.5t23 5
t18 6.5l5 3q25 21 34 38.5t6 31.5q-1 20 -11 40l-1 2q-8 15 -18.5 25t-23.5 15q-11 5 -32.5 2t-39.5 -12q-5 -2 -11 -6zM989 399q19 19 45 35q22 15 44 26l5 3q42 21 80 30.5t71 6.5q20 -3 31 -5.5t26 -7t26 -9.5t22 -13.5t20 -19.5q19 -18 28.5 -35.5t23.5 -45.5
q8 -14 14 -43q3 -24 0 -58q-4 -28 -14 -48q-19 -40 -55 -72q-42 -38 -94 -65q-33 -17 -68 -28l-32 -6q-37 -7 -55 -7q-27 1 -51 7.5t-43 18.5q-14 10 -27 21t-25 26q-6 5 -13 15q-56 -15 -102 -27q-55 -15 -113 -15q-37 0 -74 6l-31 9q-36 11 -52 19q-24 13 -42 30t-30 36
q-8 15 -14.5 31t-10.5 35q-3 7 -4 19l-39 -54l-19 -36q-33 -49 -39 -78.5t-6 -92.5l11 -14l-23 7h-7q-1 0 -1 1h-108q-48 0 -58 3h-47q0 -2 -32 -2t-32 -2q0 1 -23 1h-23q5 36 8 56q17 9 34.5 24.5t31.5 28.5q22 20 31 31l6 6q16 20 43 51t49.5 59t40.5 53l155 212
q-2 0 -4 -1q-56 -15 -113 -15q-37 0 -75 6l-30 9q-37 10 -52 19q-24 13 -41.5 29.5t-29.5 36.5q-10 14 -16.5 30t-9 30t-4 24.5t-1.5 17.5v13q0 21 7 47q5 21 20 45q12 21 31 40q18 19 41 33.5t51.5 25t68.5 15.5q25 3 49 3h5q49 0 87 -9t66 -27q15 -12 24.5 -19t20.5 -17.5
t18 -20.5t13 -22.5t10 -25.5q8 -25 9 -45q1 -15 1 -33l31 40q49 85 49 114q0 4 -2 7q-23 63 -23 92v1q0 42 39 42h52l3 -5h100q16 -2 34 -2t38 2q15 2 29 2h9q7 0 27 -1h33q3 1 13 1h12q1 -7 1 -14q0 -32 -37 -51q-24 -11 -36 -24q-24 -26 -40 -46q-74 -103 -149 -207
l-121 -169q25 8 56 11q26 3 51 3h5q48 0 86 -9t66 -27q16 -11 25 -18.5t20 -18t18.5 -20t13.5 -22t12 6.5z" />
    <glyph glyph-name="afii10101" unicode="&#x454;" horiz-adv-x="772" 
d="M727 1101l7 -31v-56q0 -268 -27 -268h-7q-137 113 -237 113q-231 0 -231 -237q0 -305 237 -305q152 0 245 143h6l14 -19v-112q0 -163 -41 -163l-298 -62q-161 0 -319 275q-27 98 -27 161q0 284 68 337q114 120 292 181l26 6h48l109 -31q36 0 128 68h7zM222 537
q-9 15 -19 33l33 83q100 0 209 99q28 -110 28 -293v-31h-13q-186 75 -218 75z" />
    <glyph glyph-name="o" unicode="o" horiz-adv-x="692" 
d="M332 964h24q162 0 225 -177q25 -83 25 -152v-66l5 -55q0 -145 -201 -219l-72 -13q-125 0 -213 98q-73 94 -73 250v36q0 190 206 285zM234 642q14 -201 98 -201h12q108 0 127 213v6q0 146 -109 146q-97 0 -128 -152v-12z" />
    <glyph glyph-name="afii10053" unicode="&#x404;" horiz-adv-x="911" 
d="M846 1451l9 -46v-81q0 -393 -35 -393h-7q-172 165 -296 165q-288 0 -288 -347q0 -446 296 -446q189 0 304 210h8l18 -28v-164q0 -238 -51 -238l-372 -91q-201 0 -398 402q-33 144 -33 236q0 415 84 493q143 176 364 264l33 10h59l136 -46q45 0 160 100h9zM241 575
q0 1 -7.5 16.5t-16.5 33.5l-24 48l40 122q125 0 261 145q35 -161 35 -429v-45h-17q-231 109 -271 109z" />
    <glyph glyph-name="afii10097.002" 
d="M798 1201v-7q-128 -307 -128 -443v-55l6 -91q39 -347 104 -414l-12 -12l-256 37l-85 -6v6l-6 6q91 122 91 310l-6 6q-30 0 -61 -18q-48 -46 -121 -316q-140 -390 -244 -390q-78 0 -133 25q-195 67 -195 134q0 113 116 201q18 0 18 -61q30 -98 110 -98h18q37 0 78 31
q19 6 104 297q0 167 85 262q-158 157 -158 213q0 156 177 273q0 54 486 122zM457 1006q-81 0 -109 -152q0 -105 158 -158l12 12v18l13 164v104z" />
    <glyph glyph-name="afii10040.001" horiz-adv-x="1463" 
d="M28 1365v11q0 67 502 98h9l2 -32q-194 -206 -192 -432l-12 -512q33 -70 221 -69l122 -7q50 3 141 3l88 1q27 0 40 406q-3 441 -84 441l-114 149q51 35 183 37l240 2l19 -24l32 -1212l12 -11l1 -13l-11 -10v-13l21 -149l-27 -12q-317 147 -640 143q-170 -14 -420 -11
l-43 -24v13q41 259 45.5 497.5t-27.5 463.5q-15 104 -108 266zM843 140q301 -2 301 -16q0 -59 123 -78q123 15 123 92q15 0 15 48v49l13 14q111 -57 152 -188v-21q0 -118 -303 -224l-54 -7q-108 39 -248 287l-6 6q-6 13 -116 38z" />
    <glyph glyph-name="endash.001" horiz-adv-x="1006" 
d="M15 413q-6 21 -13 56.5t-7 58.5l8 162q0 4 9 4q22 0 92 -1t90 -3t54 -2q64 0 191.5 -1.5t177.5 -1.5q30 5 81 6q44 1 62 1h60q18 0 54 4q60 -5 123 -9l-5 -241q0 -4 -1 -9t-3 -8.5t-4.5 -7t-6.5 -3.5t-9 2q-25 13 -99 14t-142.5 6.5t-89.5 5.5q-6 0 -6 -1
q-35 0 -46.5 -1.5t-76.5 -1.5q-114 0 -141.5 -1t-54.5 -4t-80 -3.5t-82 -6.5q-31 -6 -70.5 -7.5t-64.5 -6.5z" />
  </font>
</defs>
</svg>
